<?xml version="1.0" encoding="utf-8" standalone="no"?>
<!DOCTYPE svg PUBLIC "-//W3C//DTD SVG 1.1//EN"
  "http://www.w3.org/Graphics/SVG/1.1/DTD/svg11.dtd">
<svg xmlns:xlink="http://www.w3.org/1999/xlink" width="495.873187pt" height="422.285625pt" viewBox="0 0 495.873187 422.285625" xmlns="http://www.w3.org/2000/svg" version="1.1">
 <metadata>
  <rdf:RDF xmlns:dc="http://purl.org/dc/elements/1.1/" xmlns:cc="http://creativecommons.org/ns#" xmlns:rdf="http://www.w3.org/1999/02/22-rdf-syntax-ns#">
   <cc:Work>
    <dc:type rdf:resource="http://purl.org/dc/dcmitype/StillImage"/>
    <dc:date>2025-12-09T03:25:13.052759</dc:date>
    <dc:format>image/svg+xml</dc:format>
    <dc:creator>
     <cc:Agent>
      <dc:title>Matplotlib v3.10.0, https://matplotlib.org/</dc:title>
     </cc:Agent>
    </dc:creator>
   </cc:Work>
  </rdf:RDF>
 </metadata>
 <defs>
  <style type="text/css">*{stroke-linejoin: round; stroke-linecap: butt}</style>
 </defs>
 <g id="figure_1">
  <g id="patch_1">
   <path d="M 0 422.285625 
L 495.873187 422.285625 
L 495.873187 0 
L 0 0 
z
" style="fill: #ffffff"/>
  </g>
  <g id="axes_1">
   <g id="patch_2">
    <path d="M 60.180625 384.7075 
L 480.721625 384.7075 
L 480.721625 36.2355 
L 60.180625 36.2355 
z
" style="fill: #ffffff"/>
   </g>
   <g id="matplotlib.axis_1">
    <g id="xtick_1">
     <g id="line2d_1">
      <path d="M 60.180625 384.7075 
L 60.180625 36.2355 
" clip-path="url(#p5e5fb41d56)" style="fill: none; stroke: #b0b0b0; stroke-width: 0.8; stroke-linecap: square"/>
     </g>
     <g id="line2d_2">
      <defs>
       <path id="mfa2a031e76" d="M 0 0 
L 0 3.5 
" style="stroke: #000000; stroke-width: 0.8"/>
      </defs>
      <g>
       <use xlink:href="#mfa2a031e76" x="60.180625" y="384.7075" style="stroke: #000000; stroke-width: 0.8"/>
      </g>
     </g>
     <g id="text_1">
      <!-- 0.0 -->
      <g transform="translate(52.229062 399.305937) scale(0.1 -0.1)">
       <defs>
        <path id="DejaVuSans-30" d="M 2034 4250 
Q 1547 4250 1301 3770 
Q 1056 3291 1056 2328 
Q 1056 1369 1301 889 
Q 1547 409 2034 409 
Q 2525 409 2770 889 
Q 3016 1369 3016 2328 
Q 3016 3291 2770 3770 
Q 2525 4250 2034 4250 
z
M 2034 4750 
Q 2819 4750 3233 4129 
Q 3647 3509 3647 2328 
Q 3647 1150 3233 529 
Q 2819 -91 2034 -91 
Q 1250 -91 836 529 
Q 422 1150 422 2328 
Q 422 3509 836 4129 
Q 1250 4750 2034 4750 
z
" transform="scale(0.015625)"/>
        <path id="DejaVuSans-2e" d="M 684 794 
L 1344 794 
L 1344 0 
L 684 0 
L 684 794 
z
" transform="scale(0.015625)"/>
       </defs>
       <use xlink:href="#DejaVuSans-30"/>
       <use xlink:href="#DejaVuSans-2e" transform="translate(63.623047 0)"/>
       <use xlink:href="#DejaVuSans-30" transform="translate(95.410156 0)"/>
      </g>
     </g>
    </g>
    <g id="xtick_2">
     <g id="line2d_3">
      <path d="M 144.288825 384.7075 
L 144.288825 36.2355 
" clip-path="url(#p5e5fb41d56)" style="fill: none; stroke: #b0b0b0; stroke-width: 0.8; stroke-linecap: square"/>
     </g>
     <g id="line2d_4">
      <g>
       <use xlink:href="#mfa2a031e76" x="144.288825" y="384.7075" style="stroke: #000000; stroke-width: 0.8"/>
      </g>
     </g>
     <g id="text_2">
      <!-- 0.1 -->
      <g transform="translate(136.337263 399.305937) scale(0.1 -0.1)">
       <defs>
        <path id="DejaVuSans-31" d="M 794 531 
L 1825 531 
L 1825 4091 
L 703 3866 
L 703 4441 
L 1819 4666 
L 2450 4666 
L 2450 531 
L 3481 531 
L 3481 0 
L 794 0 
L 794 531 
z
" transform="scale(0.015625)"/>
       </defs>
       <use xlink:href="#DejaVuSans-30"/>
       <use xlink:href="#DejaVuSans-2e" transform="translate(63.623047 0)"/>
       <use xlink:href="#DejaVuSans-31" transform="translate(95.410156 0)"/>
      </g>
     </g>
    </g>
    <g id="xtick_3">
     <g id="line2d_5">
      <path d="M 228.397025 384.7075 
L 228.397025 36.2355 
" clip-path="url(#p5e5fb41d56)" style="fill: none; stroke: #b0b0b0; stroke-width: 0.8; stroke-linecap: square"/>
     </g>
     <g id="line2d_6">
      <g>
       <use xlink:href="#mfa2a031e76" x="228.397025" y="384.7075" style="stroke: #000000; stroke-width: 0.8"/>
      </g>
     </g>
     <g id="text_3">
      <!-- 0.2 -->
      <g transform="translate(220.445463 399.305937) scale(0.1 -0.1)">
       <defs>
        <path id="DejaVuSans-32" d="M 1228 531 
L 3431 531 
L 3431 0 
L 469 0 
L 469 531 
Q 828 903 1448 1529 
Q 2069 2156 2228 2338 
Q 2531 2678 2651 2914 
Q 2772 3150 2772 3378 
Q 2772 3750 2511 3984 
Q 2250 4219 1831 4219 
Q 1534 4219 1204 4116 
Q 875 4013 500 3803 
L 500 4441 
Q 881 4594 1212 4672 
Q 1544 4750 1819 4750 
Q 2544 4750 2975 4387 
Q 3406 4025 3406 3419 
Q 3406 3131 3298 2873 
Q 3191 2616 2906 2266 
Q 2828 2175 2409 1742 
Q 1991 1309 1228 531 
z
" transform="scale(0.015625)"/>
       </defs>
       <use xlink:href="#DejaVuSans-30"/>
       <use xlink:href="#DejaVuSans-2e" transform="translate(63.623047 0)"/>
       <use xlink:href="#DejaVuSans-32" transform="translate(95.410156 0)"/>
      </g>
     </g>
    </g>
    <g id="xtick_4">
     <g id="line2d_7">
      <path d="M 312.505225 384.7075 
L 312.505225 36.2355 
" clip-path="url(#p5e5fb41d56)" style="fill: none; stroke: #b0b0b0; stroke-width: 0.8; stroke-linecap: square"/>
     </g>
     <g id="line2d_8">
      <g>
       <use xlink:href="#mfa2a031e76" x="312.505225" y="384.7075" style="stroke: #000000; stroke-width: 0.8"/>
      </g>
     </g>
     <g id="text_4">
      <!-- 0.3 -->
      <g transform="translate(304.553663 399.305937) scale(0.1 -0.1)">
       <defs>
        <path id="DejaVuSans-33" d="M 2597 2516 
Q 3050 2419 3304 2112 
Q 3559 1806 3559 1356 
Q 3559 666 3084 287 
Q 2609 -91 1734 -91 
Q 1441 -91 1130 -33 
Q 819 25 488 141 
L 488 750 
Q 750 597 1062 519 
Q 1375 441 1716 441 
Q 2309 441 2620 675 
Q 2931 909 2931 1356 
Q 2931 1769 2642 2001 
Q 2353 2234 1838 2234 
L 1294 2234 
L 1294 2753 
L 1863 2753 
Q 2328 2753 2575 2939 
Q 2822 3125 2822 3475 
Q 2822 3834 2567 4026 
Q 2313 4219 1838 4219 
Q 1578 4219 1281 4162 
Q 984 4106 628 3988 
L 628 4550 
Q 988 4650 1302 4700 
Q 1616 4750 1894 4750 
Q 2613 4750 3031 4423 
Q 3450 4097 3450 3541 
Q 3450 3153 3228 2886 
Q 3006 2619 2597 2516 
z
" transform="scale(0.015625)"/>
       </defs>
       <use xlink:href="#DejaVuSans-30"/>
       <use xlink:href="#DejaVuSans-2e" transform="translate(63.623047 0)"/>
       <use xlink:href="#DejaVuSans-33" transform="translate(95.410156 0)"/>
      </g>
     </g>
    </g>
    <g id="xtick_5">
     <g id="line2d_9">
      <path d="M 396.613425 384.7075 
L 396.613425 36.2355 
" clip-path="url(#p5e5fb41d56)" style="fill: none; stroke: #b0b0b0; stroke-width: 0.8; stroke-linecap: square"/>
     </g>
     <g id="line2d_10">
      <g>
       <use xlink:href="#mfa2a031e76" x="396.613425" y="384.7075" style="stroke: #000000; stroke-width: 0.8"/>
      </g>
     </g>
     <g id="text_5">
      <!-- 0.4 -->
      <g transform="translate(388.661863 399.305937) scale(0.1 -0.1)">
       <defs>
        <path id="DejaVuSans-34" d="M 2419 4116 
L 825 1625 
L 2419 1625 
L 2419 4116 
z
M 2253 4666 
L 3047 4666 
L 3047 1625 
L 3713 1625 
L 3713 1100 
L 3047 1100 
L 3047 0 
L 2419 0 
L 2419 1100 
L 313 1100 
L 313 1709 
L 2253 4666 
z
" transform="scale(0.015625)"/>
       </defs>
       <use xlink:href="#DejaVuSans-30"/>
       <use xlink:href="#DejaVuSans-2e" transform="translate(63.623047 0)"/>
       <use xlink:href="#DejaVuSans-34" transform="translate(95.410156 0)"/>
      </g>
     </g>
    </g>
    <g id="xtick_6">
     <g id="line2d_11">
      <path d="M 480.721625 384.7075 
L 480.721625 36.2355 
" clip-path="url(#p5e5fb41d56)" style="fill: none; stroke: #b0b0b0; stroke-width: 0.8; stroke-linecap: square"/>
     </g>
     <g id="line2d_12">
      <g>
       <use xlink:href="#mfa2a031e76" x="480.721625" y="384.7075" style="stroke: #000000; stroke-width: 0.8"/>
      </g>
     </g>
     <g id="text_6">
      <!-- 0.5 -->
      <g transform="translate(472.770062 399.305937) scale(0.1 -0.1)">
       <defs>
        <path id="DejaVuSans-35" d="M 691 4666 
L 3169 4666 
L 3169 4134 
L 1269 4134 
L 1269 2991 
Q 1406 3038 1543 3061 
Q 1681 3084 1819 3084 
Q 2600 3084 3056 2656 
Q 3513 2228 3513 1497 
Q 3513 744 3044 326 
Q 2575 -91 1722 -91 
Q 1428 -91 1123 -41 
Q 819 9 494 109 
L 494 744 
Q 775 591 1075 516 
Q 1375 441 1709 441 
Q 2250 441 2565 725 
Q 2881 1009 2881 1497 
Q 2881 1984 2565 2268 
Q 2250 2553 1709 2553 
Q 1456 2553 1204 2497 
Q 953 2441 691 2322 
L 691 4666 
z
" transform="scale(0.015625)"/>
       </defs>
       <use xlink:href="#DejaVuSans-30"/>
       <use xlink:href="#DejaVuSans-2e" transform="translate(63.623047 0)"/>
       <use xlink:href="#DejaVuSans-35" transform="translate(95.410156 0)"/>
      </g>
     </g>
    </g>
    <g id="text_7">
     <!-- $C_{\mathrm{Pb}}$ (mg/L) -->
     <g transform="translate(244.451125 412.985625) scale(0.1 -0.1)">
      <defs>
       <path id="DejaVuSans-Oblique-43" d="M 4447 4306 
L 4319 3641 
Q 4019 3944 3683 4091 
Q 3347 4238 2956 4238 
Q 2422 4238 2017 3981 
Q 1613 3725 1319 3200 
Q 1131 2863 1032 2486 
Q 934 2109 934 1728 
Q 934 1091 1264 756 
Q 1594 422 2222 422 
Q 2656 422 3056 561 
Q 3456 700 3834 978 
L 3688 231 
Q 3316 72 2936 -9 
Q 2556 -91 2175 -91 
Q 1278 -91 773 396 
Q 269 884 269 1753 
Q 269 2309 461 2846 
Q 653 3384 1013 3828 
Q 1394 4300 1883 4525 
Q 2372 4750 3022 4750 
Q 3422 4750 3780 4639 
Q 4138 4528 4447 4306 
z
" transform="scale(0.015625)"/>
       <path id="DejaVuSans-50" d="M 1259 4147 
L 1259 2394 
L 2053 2394 
Q 2494 2394 2734 2622 
Q 2975 2850 2975 3272 
Q 2975 3691 2734 3919 
Q 2494 4147 2053 4147 
L 1259 4147 
z
M 628 4666 
L 2053 4666 
Q 2838 4666 3239 4311 
Q 3641 3956 3641 3272 
Q 3641 2581 3239 2228 
Q 2838 1875 2053 1875 
L 1259 1875 
L 1259 0 
L 628 0 
L 628 4666 
z
" transform="scale(0.015625)"/>
       <path id="DejaVuSans-62" d="M 3116 1747 
Q 3116 2381 2855 2742 
Q 2594 3103 2138 3103 
Q 1681 3103 1420 2742 
Q 1159 2381 1159 1747 
Q 1159 1113 1420 752 
Q 1681 391 2138 391 
Q 2594 391 2855 752 
Q 3116 1113 3116 1747 
z
M 1159 2969 
Q 1341 3281 1617 3432 
Q 1894 3584 2278 3584 
Q 2916 3584 3314 3078 
Q 3713 2572 3713 1747 
Q 3713 922 3314 415 
Q 2916 -91 2278 -91 
Q 1894 -91 1617 61 
Q 1341 213 1159 525 
L 1159 0 
L 581 0 
L 581 4863 
L 1159 4863 
L 1159 2969 
z
" transform="scale(0.015625)"/>
       <path id="DejaVuSans-20" transform="scale(0.015625)"/>
       <path id="DejaVuSans-28" d="M 1984 4856 
Q 1566 4138 1362 3434 
Q 1159 2731 1159 2009 
Q 1159 1288 1364 580 
Q 1569 -128 1984 -844 
L 1484 -844 
Q 1016 -109 783 600 
Q 550 1309 550 2009 
Q 550 2706 781 3412 
Q 1013 4119 1484 4856 
L 1984 4856 
z
" transform="scale(0.015625)"/>
       <path id="DejaVuSans-6d" d="M 3328 2828 
Q 3544 3216 3844 3400 
Q 4144 3584 4550 3584 
Q 5097 3584 5394 3201 
Q 5691 2819 5691 2113 
L 5691 0 
L 5113 0 
L 5113 2094 
Q 5113 2597 4934 2840 
Q 4756 3084 4391 3084 
Q 3944 3084 3684 2787 
Q 3425 2491 3425 1978 
L 3425 0 
L 2847 0 
L 2847 2094 
Q 2847 2600 2669 2842 
Q 2491 3084 2119 3084 
Q 1678 3084 1418 2786 
Q 1159 2488 1159 1978 
L 1159 0 
L 581 0 
L 581 3500 
L 1159 3500 
L 1159 2956 
Q 1356 3278 1631 3431 
Q 1906 3584 2284 3584 
Q 2666 3584 2933 3390 
Q 3200 3197 3328 2828 
z
" transform="scale(0.015625)"/>
       <path id="DejaVuSans-67" d="M 2906 1791 
Q 2906 2416 2648 2759 
Q 2391 3103 1925 3103 
Q 1463 3103 1205 2759 
Q 947 2416 947 1791 
Q 947 1169 1205 825 
Q 1463 481 1925 481 
Q 2391 481 2648 825 
Q 2906 1169 2906 1791 
z
M 3481 434 
Q 3481 -459 3084 -895 
Q 2688 -1331 1869 -1331 
Q 1566 -1331 1297 -1286 
Q 1028 -1241 775 -1147 
L 775 -588 
Q 1028 -725 1275 -790 
Q 1522 -856 1778 -856 
Q 2344 -856 2625 -561 
Q 2906 -266 2906 331 
L 2906 616 
Q 2728 306 2450 153 
Q 2172 0 1784 0 
Q 1141 0 747 490 
Q 353 981 353 1791 
Q 353 2603 747 3093 
Q 1141 3584 1784 3584 
Q 2172 3584 2450 3431 
Q 2728 3278 2906 2969 
L 2906 3500 
L 3481 3500 
L 3481 434 
z
" transform="scale(0.015625)"/>
       <path id="DejaVuSans-2f" d="M 1625 4666 
L 2156 4666 
L 531 -594 
L 0 -594 
L 1625 4666 
z
" transform="scale(0.015625)"/>
       <path id="DejaVuSans-4c" d="M 628 4666 
L 1259 4666 
L 1259 531 
L 3531 531 
L 3531 0 
L 628 0 
L 628 4666 
z
" transform="scale(0.015625)"/>
       <path id="DejaVuSans-29" d="M 513 4856 
L 1013 4856 
Q 1481 4119 1714 3412 
Q 1947 2706 1947 2009 
Q 1947 1309 1714 600 
Q 1481 -109 1013 -844 
L 513 -844 
Q 928 -128 1133 580 
Q 1338 1288 1338 2009 
Q 1338 2731 1133 3434 
Q 928 4138 513 4856 
z
" transform="scale(0.015625)"/>
      </defs>
      <use xlink:href="#DejaVuSans-Oblique-43" transform="translate(0 0.125)"/>
      <use xlink:href="#DejaVuSans-50" transform="translate(69.824219 -16.28125) scale(0.7)"/>
      <use xlink:href="#DejaVuSans-62" transform="translate(112.036133 -16.28125) scale(0.7)"/>
      <use xlink:href="#DejaVuSans-20" transform="translate(159.204102 0.125)"/>
      <use xlink:href="#DejaVuSans-28" transform="translate(190.991211 0.125)"/>
      <use xlink:href="#DejaVuSans-6d" transform="translate(230.004883 0.125)"/>
      <use xlink:href="#DejaVuSans-67" transform="translate(327.416992 0.125)"/>
      <use xlink:href="#DejaVuSans-2f" transform="translate(390.893555 0.125)"/>
      <use xlink:href="#DejaVuSans-4c" transform="translate(424.584961 0.125)"/>
      <use xlink:href="#DejaVuSans-29" transform="translate(480.297852 0.125)"/>
     </g>
    </g>
   </g>
   <g id="matplotlib.axis_2">
    <g id="ytick_1">
     <g id="line2d_13">
      <path d="M 60.180625 384.7075 
L 480.721625 384.7075 
" clip-path="url(#p5e5fb41d56)" style="fill: none; stroke: #b0b0b0; stroke-width: 0.8; stroke-linecap: square"/>
     </g>
     <g id="line2d_14">
      <defs>
       <path id="me2f1b21835" d="M 0 0 
L -3.5 0 
" style="stroke: #000000; stroke-width: 0.8"/>
      </defs>
      <g>
       <use xlink:href="#me2f1b21835" x="60.180625" y="384.7075" style="stroke: #000000; stroke-width: 0.8"/>
      </g>
     </g>
     <g id="text_8">
      <!-- −70 -->
      <g transform="translate(32.075937 388.506719) scale(0.1 -0.1)">
       <defs>
        <path id="DejaVuSans-2212" d="M 678 2272 
L 4684 2272 
L 4684 1741 
L 678 1741 
L 678 2272 
z
" transform="scale(0.015625)"/>
        <path id="DejaVuSans-37" d="M 525 4666 
L 3525 4666 
L 3525 4397 
L 1831 0 
L 1172 0 
L 2766 4134 
L 525 4134 
L 525 4666 
z
" transform="scale(0.015625)"/>
       </defs>
       <use xlink:href="#DejaVuSans-2212"/>
       <use xlink:href="#DejaVuSans-37" transform="translate(83.789062 0)"/>
       <use xlink:href="#DejaVuSans-30" transform="translate(147.412109 0)"/>
      </g>
     </g>
    </g>
    <g id="ytick_2">
     <g id="line2d_15">
      <path d="M 60.180625 334.925786 
L 480.721625 334.925786 
" clip-path="url(#p5e5fb41d56)" style="fill: none; stroke: #b0b0b0; stroke-width: 0.8; stroke-linecap: square"/>
     </g>
     <g id="line2d_16">
      <g>
       <use xlink:href="#me2f1b21835" x="60.180625" y="334.925786" style="stroke: #000000; stroke-width: 0.8"/>
      </g>
     </g>
     <g id="text_9">
      <!-- −60 -->
      <g transform="translate(32.075937 338.725004) scale(0.1 -0.1)">
       <defs>
        <path id="DejaVuSans-36" d="M 2113 2584 
Q 1688 2584 1439 2293 
Q 1191 2003 1191 1497 
Q 1191 994 1439 701 
Q 1688 409 2113 409 
Q 2538 409 2786 701 
Q 3034 994 3034 1497 
Q 3034 2003 2786 2293 
Q 2538 2584 2113 2584 
z
M 3366 4563 
L 3366 3988 
Q 3128 4100 2886 4159 
Q 2644 4219 2406 4219 
Q 1781 4219 1451 3797 
Q 1122 3375 1075 2522 
Q 1259 2794 1537 2939 
Q 1816 3084 2150 3084 
Q 2853 3084 3261 2657 
Q 3669 2231 3669 1497 
Q 3669 778 3244 343 
Q 2819 -91 2113 -91 
Q 1303 -91 875 529 
Q 447 1150 447 2328 
Q 447 3434 972 4092 
Q 1497 4750 2381 4750 
Q 2619 4750 2861 4703 
Q 3103 4656 3366 4563 
z
" transform="scale(0.015625)"/>
       </defs>
       <use xlink:href="#DejaVuSans-2212"/>
       <use xlink:href="#DejaVuSans-36" transform="translate(83.789062 0)"/>
       <use xlink:href="#DejaVuSans-30" transform="translate(147.412109 0)"/>
      </g>
     </g>
    </g>
    <g id="ytick_3">
     <g id="line2d_17">
      <path d="M 60.180625 285.144071 
L 480.721625 285.144071 
" clip-path="url(#p5e5fb41d56)" style="fill: none; stroke: #b0b0b0; stroke-width: 0.8; stroke-linecap: square"/>
     </g>
     <g id="line2d_18">
      <g>
       <use xlink:href="#me2f1b21835" x="60.180625" y="285.144071" style="stroke: #000000; stroke-width: 0.8"/>
      </g>
     </g>
     <g id="text_10">
      <!-- −50 -->
      <g transform="translate(32.075937 288.94329) scale(0.1 -0.1)">
       <use xlink:href="#DejaVuSans-2212"/>
       <use xlink:href="#DejaVuSans-35" transform="translate(83.789062 0)"/>
       <use xlink:href="#DejaVuSans-30" transform="translate(147.412109 0)"/>
      </g>
     </g>
    </g>
    <g id="ytick_4">
     <g id="line2d_19">
      <path d="M 60.180625 235.362357 
L 480.721625 235.362357 
" clip-path="url(#p5e5fb41d56)" style="fill: none; stroke: #b0b0b0; stroke-width: 0.8; stroke-linecap: square"/>
     </g>
     <g id="line2d_20">
      <g>
       <use xlink:href="#me2f1b21835" x="60.180625" y="235.362357" style="stroke: #000000; stroke-width: 0.8"/>
      </g>
     </g>
     <g id="text_11">
      <!-- −40 -->
      <g transform="translate(32.075937 239.161576) scale(0.1 -0.1)">
       <use xlink:href="#DejaVuSans-2212"/>
       <use xlink:href="#DejaVuSans-34" transform="translate(83.789062 0)"/>
       <use xlink:href="#DejaVuSans-30" transform="translate(147.412109 0)"/>
      </g>
     </g>
    </g>
    <g id="ytick_5">
     <g id="line2d_21">
      <path d="M 60.180625 185.580643 
L 480.721625 185.580643 
" clip-path="url(#p5e5fb41d56)" style="fill: none; stroke: #b0b0b0; stroke-width: 0.8; stroke-linecap: square"/>
     </g>
     <g id="line2d_22">
      <g>
       <use xlink:href="#me2f1b21835" x="60.180625" y="185.580643" style="stroke: #000000; stroke-width: 0.8"/>
      </g>
     </g>
     <g id="text_12">
      <!-- −30 -->
      <g transform="translate(32.075937 189.379862) scale(0.1 -0.1)">
       <use xlink:href="#DejaVuSans-2212"/>
       <use xlink:href="#DejaVuSans-33" transform="translate(83.789062 0)"/>
       <use xlink:href="#DejaVuSans-30" transform="translate(147.412109 0)"/>
      </g>
     </g>
    </g>
    <g id="ytick_6">
     <g id="line2d_23">
      <path d="M 60.180625 135.798929 
L 480.721625 135.798929 
" clip-path="url(#p5e5fb41d56)" style="fill: none; stroke: #b0b0b0; stroke-width: 0.8; stroke-linecap: square"/>
     </g>
     <g id="line2d_24">
      <g>
       <use xlink:href="#me2f1b21835" x="60.180625" y="135.798929" style="stroke: #000000; stroke-width: 0.8"/>
      </g>
     </g>
     <g id="text_13">
      <!-- −20 -->
      <g transform="translate(32.075937 139.598147) scale(0.1 -0.1)">
       <use xlink:href="#DejaVuSans-2212"/>
       <use xlink:href="#DejaVuSans-32" transform="translate(83.789062 0)"/>
       <use xlink:href="#DejaVuSans-30" transform="translate(147.412109 0)"/>
      </g>
     </g>
    </g>
    <g id="ytick_7">
     <g id="line2d_25">
      <path d="M 60.180625 86.017214 
L 480.721625 86.017214 
" clip-path="url(#p5e5fb41d56)" style="fill: none; stroke: #b0b0b0; stroke-width: 0.8; stroke-linecap: square"/>
     </g>
     <g id="line2d_26">
      <g>
       <use xlink:href="#me2f1b21835" x="60.180625" y="86.017214" style="stroke: #000000; stroke-width: 0.8"/>
      </g>
     </g>
     <g id="text_14">
      <!-- −10 -->
      <g transform="translate(32.075937 89.816433) scale(0.1 -0.1)">
       <use xlink:href="#DejaVuSans-2212"/>
       <use xlink:href="#DejaVuSans-31" transform="translate(83.789062 0)"/>
       <use xlink:href="#DejaVuSans-30" transform="translate(147.412109 0)"/>
      </g>
     </g>
    </g>
    <g id="ytick_8">
     <g id="line2d_27">
      <path d="M 60.180625 36.2355 
L 480.721625 36.2355 
" clip-path="url(#p5e5fb41d56)" style="fill: none; stroke: #b0b0b0; stroke-width: 0.8; stroke-linecap: square"/>
     </g>
     <g id="line2d_28">
      <g>
       <use xlink:href="#me2f1b21835" x="60.180625" y="36.2355" style="stroke: #000000; stroke-width: 0.8"/>
      </g>
     </g>
     <g id="text_15">
      <!-- 0 -->
      <g transform="translate(46.818125 40.034719) scale(0.1 -0.1)">
       <use xlink:href="#DejaVuSans-30"/>
      </g>
     </g>
    </g>
    <g id="text_16">
     <!-- Profundidad (cm) -->
     <g transform="translate(14.798437 253.584781) rotate(-90) scale(0.1 -0.1)">
      <defs>
       <path id="DejaVuSans-72" d="M 2631 2963 
Q 2534 3019 2420 3045 
Q 2306 3072 2169 3072 
Q 1681 3072 1420 2755 
Q 1159 2438 1159 1844 
L 1159 0 
L 581 0 
L 581 3500 
L 1159 3500 
L 1159 2956 
Q 1341 3275 1631 3429 
Q 1922 3584 2338 3584 
Q 2397 3584 2469 3576 
Q 2541 3569 2628 3553 
L 2631 2963 
z
" transform="scale(0.015625)"/>
       <path id="DejaVuSans-6f" d="M 1959 3097 
Q 1497 3097 1228 2736 
Q 959 2375 959 1747 
Q 959 1119 1226 758 
Q 1494 397 1959 397 
Q 2419 397 2687 759 
Q 2956 1122 2956 1747 
Q 2956 2369 2687 2733 
Q 2419 3097 1959 3097 
z
M 1959 3584 
Q 2709 3584 3137 3096 
Q 3566 2609 3566 1747 
Q 3566 888 3137 398 
Q 2709 -91 1959 -91 
Q 1206 -91 779 398 
Q 353 888 353 1747 
Q 353 2609 779 3096 
Q 1206 3584 1959 3584 
z
" transform="scale(0.015625)"/>
       <path id="DejaVuSans-66" d="M 2375 4863 
L 2375 4384 
L 1825 4384 
Q 1516 4384 1395 4259 
Q 1275 4134 1275 3809 
L 1275 3500 
L 2222 3500 
L 2222 3053 
L 1275 3053 
L 1275 0 
L 697 0 
L 697 3053 
L 147 3053 
L 147 3500 
L 697 3500 
L 697 3744 
Q 697 4328 969 4595 
Q 1241 4863 1831 4863 
L 2375 4863 
z
" transform="scale(0.015625)"/>
       <path id="DejaVuSans-75" d="M 544 1381 
L 544 3500 
L 1119 3500 
L 1119 1403 
Q 1119 906 1312 657 
Q 1506 409 1894 409 
Q 2359 409 2629 706 
Q 2900 1003 2900 1516 
L 2900 3500 
L 3475 3500 
L 3475 0 
L 2900 0 
L 2900 538 
Q 2691 219 2414 64 
Q 2138 -91 1772 -91 
Q 1169 -91 856 284 
Q 544 659 544 1381 
z
M 1991 3584 
L 1991 3584 
z
" transform="scale(0.015625)"/>
       <path id="DejaVuSans-6e" d="M 3513 2113 
L 3513 0 
L 2938 0 
L 2938 2094 
Q 2938 2591 2744 2837 
Q 2550 3084 2163 3084 
Q 1697 3084 1428 2787 
Q 1159 2491 1159 1978 
L 1159 0 
L 581 0 
L 581 3500 
L 1159 3500 
L 1159 2956 
Q 1366 3272 1645 3428 
Q 1925 3584 2291 3584 
Q 2894 3584 3203 3211 
Q 3513 2838 3513 2113 
z
" transform="scale(0.015625)"/>
       <path id="DejaVuSans-64" d="M 2906 2969 
L 2906 4863 
L 3481 4863 
L 3481 0 
L 2906 0 
L 2906 525 
Q 2725 213 2448 61 
Q 2172 -91 1784 -91 
Q 1150 -91 751 415 
Q 353 922 353 1747 
Q 353 2572 751 3078 
Q 1150 3584 1784 3584 
Q 2172 3584 2448 3432 
Q 2725 3281 2906 2969 
z
M 947 1747 
Q 947 1113 1208 752 
Q 1469 391 1925 391 
Q 2381 391 2643 752 
Q 2906 1113 2906 1747 
Q 2906 2381 2643 2742 
Q 2381 3103 1925 3103 
Q 1469 3103 1208 2742 
Q 947 2381 947 1747 
z
" transform="scale(0.015625)"/>
       <path id="DejaVuSans-69" d="M 603 3500 
L 1178 3500 
L 1178 0 
L 603 0 
L 603 3500 
z
M 603 4863 
L 1178 4863 
L 1178 4134 
L 603 4134 
L 603 4863 
z
" transform="scale(0.015625)"/>
       <path id="DejaVuSans-61" d="M 2194 1759 
Q 1497 1759 1228 1600 
Q 959 1441 959 1056 
Q 959 750 1161 570 
Q 1363 391 1709 391 
Q 2188 391 2477 730 
Q 2766 1069 2766 1631 
L 2766 1759 
L 2194 1759 
z
M 3341 1997 
L 3341 0 
L 2766 0 
L 2766 531 
Q 2569 213 2275 61 
Q 1981 -91 1556 -91 
Q 1019 -91 701 211 
Q 384 513 384 1019 
Q 384 1609 779 1909 
Q 1175 2209 1959 2209 
L 2766 2209 
L 2766 2266 
Q 2766 2663 2505 2880 
Q 2244 3097 1772 3097 
Q 1472 3097 1187 3025 
Q 903 2953 641 2809 
L 641 3341 
Q 956 3463 1253 3523 
Q 1550 3584 1831 3584 
Q 2591 3584 2966 3190 
Q 3341 2797 3341 1997 
z
" transform="scale(0.015625)"/>
       <path id="DejaVuSans-63" d="M 3122 3366 
L 3122 2828 
Q 2878 2963 2633 3030 
Q 2388 3097 2138 3097 
Q 1578 3097 1268 2742 
Q 959 2388 959 1747 
Q 959 1106 1268 751 
Q 1578 397 2138 397 
Q 2388 397 2633 464 
Q 2878 531 3122 666 
L 3122 134 
Q 2881 22 2623 -34 
Q 2366 -91 2075 -91 
Q 1284 -91 818 406 
Q 353 903 353 1747 
Q 353 2603 823 3093 
Q 1294 3584 2113 3584 
Q 2378 3584 2631 3529 
Q 2884 3475 3122 3366 
z
" transform="scale(0.015625)"/>
      </defs>
      <use xlink:href="#DejaVuSans-50"/>
      <use xlink:href="#DejaVuSans-72" transform="translate(58.552734 0)"/>
      <use xlink:href="#DejaVuSans-6f" transform="translate(97.416016 0)"/>
      <use xlink:href="#DejaVuSans-66" transform="translate(158.597656 0)"/>
      <use xlink:href="#DejaVuSans-75" transform="translate(193.802734 0)"/>
      <use xlink:href="#DejaVuSans-6e" transform="translate(257.181641 0)"/>
      <use xlink:href="#DejaVuSans-64" transform="translate(320.560547 0)"/>
      <use xlink:href="#DejaVuSans-69" transform="translate(384.037109 0)"/>
      <use xlink:href="#DejaVuSans-64" transform="translate(411.820312 0)"/>
      <use xlink:href="#DejaVuSans-61" transform="translate(475.296875 0)"/>
      <use xlink:href="#DejaVuSans-64" transform="translate(536.576172 0)"/>
      <use xlink:href="#DejaVuSans-20" transform="translate(600.052734 0)"/>
      <use xlink:href="#DejaVuSans-28" transform="translate(631.839844 0)"/>
      <use xlink:href="#DejaVuSans-63" transform="translate(670.853516 0)"/>
      <use xlink:href="#DejaVuSans-6d" transform="translate(725.833984 0)"/>
      <use xlink:href="#DejaVuSans-29" transform="translate(823.246094 0)"/>
     </g>
     <!-- (0=superficie, -L=fondo) -->
     <g transform="translate(25.99625 272.367594) rotate(-90) scale(0.1 -0.1)">
      <defs>
       <path id="DejaVuSans-3d" d="M 678 2906 
L 4684 2906 
L 4684 2381 
L 678 2381 
L 678 2906 
z
M 678 1631 
L 4684 1631 
L 4684 1100 
L 678 1100 
L 678 1631 
z
" transform="scale(0.015625)"/>
       <path id="DejaVuSans-73" d="M 2834 3397 
L 2834 2853 
Q 2591 2978 2328 3040 
Q 2066 3103 1784 3103 
Q 1356 3103 1142 2972 
Q 928 2841 928 2578 
Q 928 2378 1081 2264 
Q 1234 2150 1697 2047 
L 1894 2003 
Q 2506 1872 2764 1633 
Q 3022 1394 3022 966 
Q 3022 478 2636 193 
Q 2250 -91 1575 -91 
Q 1294 -91 989 -36 
Q 684 19 347 128 
L 347 722 
Q 666 556 975 473 
Q 1284 391 1588 391 
Q 1994 391 2212 530 
Q 2431 669 2431 922 
Q 2431 1156 2273 1281 
Q 2116 1406 1581 1522 
L 1381 1569 
Q 847 1681 609 1914 
Q 372 2147 372 2553 
Q 372 3047 722 3315 
Q 1072 3584 1716 3584 
Q 2034 3584 2315 3537 
Q 2597 3491 2834 3397 
z
" transform="scale(0.015625)"/>
       <path id="DejaVuSans-70" d="M 1159 525 
L 1159 -1331 
L 581 -1331 
L 581 3500 
L 1159 3500 
L 1159 2969 
Q 1341 3281 1617 3432 
Q 1894 3584 2278 3584 
Q 2916 3584 3314 3078 
Q 3713 2572 3713 1747 
Q 3713 922 3314 415 
Q 2916 -91 2278 -91 
Q 1894 -91 1617 61 
Q 1341 213 1159 525 
z
M 3116 1747 
Q 3116 2381 2855 2742 
Q 2594 3103 2138 3103 
Q 1681 3103 1420 2742 
Q 1159 2381 1159 1747 
Q 1159 1113 1420 752 
Q 1681 391 2138 391 
Q 2594 391 2855 752 
Q 3116 1113 3116 1747 
z
" transform="scale(0.015625)"/>
       <path id="DejaVuSans-65" d="M 3597 1894 
L 3597 1613 
L 953 1613 
Q 991 1019 1311 708 
Q 1631 397 2203 397 
Q 2534 397 2845 478 
Q 3156 559 3463 722 
L 3463 178 
Q 3153 47 2828 -22 
Q 2503 -91 2169 -91 
Q 1331 -91 842 396 
Q 353 884 353 1716 
Q 353 2575 817 3079 
Q 1281 3584 2069 3584 
Q 2775 3584 3186 3129 
Q 3597 2675 3597 1894 
z
M 3022 2063 
Q 3016 2534 2758 2815 
Q 2500 3097 2075 3097 
Q 1594 3097 1305 2825 
Q 1016 2553 972 2059 
L 3022 2063 
z
" transform="scale(0.015625)"/>
       <path id="DejaVuSans-2c" d="M 750 794 
L 1409 794 
L 1409 256 
L 897 -744 
L 494 -744 
L 750 256 
L 750 794 
z
" transform="scale(0.015625)"/>
       <path id="DejaVuSans-2d" d="M 313 2009 
L 1997 2009 
L 1997 1497 
L 313 1497 
L 313 2009 
z
" transform="scale(0.015625)"/>
      </defs>
      <use xlink:href="#DejaVuSans-28"/>
      <use xlink:href="#DejaVuSans-30" transform="translate(39.013672 0)"/>
      <use xlink:href="#DejaVuSans-3d" transform="translate(102.636719 0)"/>
      <use xlink:href="#DejaVuSans-73" transform="translate(186.425781 0)"/>
      <use xlink:href="#DejaVuSans-75" transform="translate(238.525391 0)"/>
      <use xlink:href="#DejaVuSans-70" transform="translate(301.904297 0)"/>
      <use xlink:href="#DejaVuSans-65" transform="translate(365.380859 0)"/>
      <use xlink:href="#DejaVuSans-72" transform="translate(426.904297 0)"/>
      <use xlink:href="#DejaVuSans-66" transform="translate(468.017578 0)"/>
      <use xlink:href="#DejaVuSans-69" transform="translate(503.222656 0)"/>
      <use xlink:href="#DejaVuSans-63" transform="translate(531.005859 0)"/>
      <use xlink:href="#DejaVuSans-69" transform="translate(585.986328 0)"/>
      <use xlink:href="#DejaVuSans-65" transform="translate(613.769531 0)"/>
      <use xlink:href="#DejaVuSans-2c" transform="translate(675.292969 0)"/>
      <use xlink:href="#DejaVuSans-20" transform="translate(707.080078 0)"/>
      <use xlink:href="#DejaVuSans-2d" transform="translate(738.867188 0)"/>
      <use xlink:href="#DejaVuSans-4c" transform="translate(774.951172 0)"/>
      <use xlink:href="#DejaVuSans-3d" transform="translate(830.664062 0)"/>
      <use xlink:href="#DejaVuSans-66" transform="translate(914.453125 0)"/>
      <use xlink:href="#DejaVuSans-6f" transform="translate(949.658203 0)"/>
      <use xlink:href="#DejaVuSans-6e" transform="translate(1010.839844 0)"/>
      <use xlink:href="#DejaVuSans-64" transform="translate(1074.21875 0)"/>
      <use xlink:href="#DejaVuSans-6f" transform="translate(1137.695312 0)"/>
      <use xlink:href="#DejaVuSans-29" transform="translate(1198.876953 0)"/>
     </g>
    </g>
   </g>
   <g id="line2d_29">
    <path d="M 60.180625 384.7075 
L 60.180625 381.187581 
L 60.180625 377.667662 
L 60.180625 374.147742 
L 60.180625 370.627823 
L 60.180625 367.107904 
L 60.180625 363.587985 
L 60.180625 360.068066 
L 60.180625 356.548146 
L 60.180625 353.028227 
L 60.180625 349.508308 
L 60.180625 345.988389 
L 60.180625 342.46847 
L 60.180625 338.948551 
L 60.180625 335.428631 
L 60.180625 331.908712 
L 60.180625 328.388793 
L 60.180625 324.868874 
L 60.180625 321.348955 
L 60.180625 317.829035 
L 60.180625 314.309116 
L 60.180625 310.789197 
L 60.180625 307.269278 
L 60.180625 303.749359 
L 60.180625 300.229439 
L 60.180625 296.70952 
L 60.180625 293.189601 
L 60.180625 289.669682 
L 60.180625 286.149763 
L 60.180625 282.629843 
L 60.180625 279.109924 
L 60.180625 275.590005 
L 60.180625 272.070086 
L 60.180625 268.550167 
L 60.180625 265.030247 
L 60.180625 261.510328 
L 60.180625 257.990409 
L 60.180625 254.47049 
L 60.180625 250.950571 
L 60.180625 247.430652 
L 60.180625 243.910732 
L 60.180625 240.390813 
L 60.180625 236.870894 
L 60.180625 233.350975 
L 60.180625 229.831056 
L 60.180625 226.311136 
L 60.180625 222.791217 
L 60.180625 219.271298 
L 60.180625 215.751379 
L 60.180625 212.23146 
L 60.180625 208.71154 
L 60.180625 205.191621 
L 60.180625 201.671702 
L 60.180625 198.151783 
L 60.180625 194.631864 
L 60.180625 191.111944 
L 60.180625 187.592025 
L 60.180625 184.072106 
L 60.180625 180.552187 
L 60.180625 177.032268 
L 60.180625 173.512348 
L 60.180625 169.992429 
L 60.180625 166.47251 
L 60.180625 162.952591 
L 60.180625 159.432672 
L 60.180625 155.912753 
L 60.180625 152.392833 
L 60.180625 148.872914 
L 60.180625 145.352995 
L 60.180625 141.833076 
L 60.180625 138.313157 
L 60.180625 134.793237 
L 60.180625 131.273318 
L 60.180625 127.753399 
L 60.180625 124.23348 
L 60.180625 120.713561 
L 60.180625 117.193641 
L 60.180625 113.673722 
L 60.180625 110.153803 
L 60.180625 106.633884 
L 60.180625 103.113965 
L 60.180625 99.594045 
L 60.180625 96.074126 
L 60.180625 92.554207 
L 60.180625 89.034288 
L 60.180625 85.514369 
L 60.180625 81.994449 
L 60.180625 78.47453 
L 60.180625 74.954611 
L 60.180625 71.434692 
L 60.180625 67.914773 
L 60.180625 64.394854 
L 60.180625 60.874934 
L 60.180625 57.355015 
L 60.180625 53.835096 
L 60.180625 50.315177 
L 60.180625 46.795258 
L 60.180625 43.275338 
L 60.180625 39.755419 
L 60.180625 36.2355 
" clip-path="url(#p5e5fb41d56)" style="fill: none; stroke: #1f77b4; stroke-width: 2; stroke-linecap: square"/>
   </g>
   <g id="line2d_30">
    <path d="M 66.986838 384.7075 
L 66.986838 381.187581 
L 67.159564 377.667662 
L 67.434453 374.147742 
L 67.772717 370.627823 
L 68.1531 367.107904 
L 68.564123 363.587985 
L 68.999847 360.068066 
L 69.45755 356.548146 
L 69.936449 353.028227 
L 70.436996 349.508308 
L 70.960485 345.988389 
L 71.508821 342.46847 
L 72.084382 338.948551 
L 72.689923 335.428631 
L 73.328512 331.908712 
L 74.003487 328.388793 
L 74.718431 324.868874 
L 75.477155 321.348955 
L 76.283708 317.829035 
L 77.142378 314.309116 
L 78.057707 310.789197 
L 79.034509 307.269278 
L 80.077889 303.749359 
L 81.193254 300.229439 
L 82.386336 296.70952 
L 83.663204 293.189601 
L 85.030275 289.669682 
L 86.494328 286.149763 
L 88.062508 282.629843 
L 89.742332 279.109924 
L 91.541688 275.590005 
L 93.468829 272.070086 
L 95.532369 268.550167 
L 97.741259 265.030247 
L 100.104773 261.510328 
L 102.632475 257.990409 
L 105.334181 254.47049 
L 108.219915 250.950571 
L 111.299854 247.430652 
L 114.584264 243.910732 
L 118.083422 240.390813 
L 121.80753 236.870894 
L 125.766621 233.350975 
L 129.970445 229.831056 
L 134.428351 226.311136 
L 139.149157 222.791217 
L 144.141005 219.271298 
L 149.411211 215.751379 
L 154.966103 212.23146 
L 160.810856 208.71154 
L 166.949317 205.191621 
L 173.383831 201.671702 
L 180.115064 198.151783 
L 187.14183 194.631864 
L 194.460926 191.111944 
L 202.066976 187.592025 
L 209.952283 184.072106 
L 218.106715 180.552187 
L 226.517595 177.032268 
L 235.169634 173.512348 
L 244.044887 169.992429 
L 253.122749 166.47251 
L 262.379989 162.952591 
L 271.79083 159.432672 
L 281.327072 155.912753 
L 290.958266 152.392833 
L 300.651933 148.872914 
L 310.373836 145.352995 
L 320.088294 141.833076 
L 329.758542 138.313157 
L 339.347135 134.793237 
L 348.816375 131.273318 
L 358.128776 127.753399 
L 367.247539 124.23348 
L 376.137042 120.713561 
L 384.76332 117.193641 
L 393.094544 113.673722 
L 401.101462 110.153803 
L 408.757816 106.633884 
L 416.040708 103.113965 
L 422.930906 99.594045 
L 429.413093 96.074126 
L 435.476037 92.554207 
L 441.112686 89.034288 
L 446.320183 85.514369 
L 451.099797 81.994449 
L 455.456778 78.47453 
L 459.400136 74.954611 
L 462.94235 71.434692 
L 466.099019 67.914773 
L 468.888461 64.394854 
L 471.331278 60.874934 
L 473.449895 57.355015 
L 475.268088 53.835096 
L 476.810513 50.315177 
L 478.102245 46.795258 
L 479.168357 43.275338 
L 480.033513 39.755419 
L 480.721625 36.2355 
" clip-path="url(#p5e5fb41d56)" style="fill: none; stroke: #ff7f0e; stroke-width: 2; stroke-linecap: square"/>
   </g>
   <g id="line2d_31">
    <path d="M 146.541792 384.7075 
L 146.541792 381.187581 
L 147.556379 377.667662 
L 149.212121 374.147742 
L 151.315026 370.627823 
L 153.753265 367.107904 
L 156.458678 363.587985 
L 159.388148 360.068066 
L 162.513596 356.548146 
L 165.816251 353.028227 
L 169.283219 349.508308 
L 172.905369 345.988389 
L 176.675988 342.46847 
L 180.589912 338.948551 
L 184.64295 335.428631 
L 188.83149 331.908712 
L 193.152232 328.388793 
L 197.601999 324.868874 
L 202.177599 321.348955 
L 206.875724 317.829035 
L 211.692881 314.309116 
L 216.625331 310.789197 
L 221.669051 307.269278 
L 226.819702 303.749359 
L 232.072603 300.229439 
L 237.422716 296.70952 
L 242.864638 293.189601 
L 248.392592 289.669682 
L 254.000427 286.149763 
L 259.68162 282.629843 
L 265.429289 279.109924 
L 271.236196 275.590005 
L 277.094769 272.070086 
L 282.99712 268.550167 
L 288.935062 265.030247 
L 294.900142 261.510328 
L 300.883665 257.990409 
L 306.876727 254.47049 
L 312.870254 250.950571 
L 318.85503 247.430652 
L 324.821747 243.910732 
L 330.76104 240.390813 
L 336.663534 236.870894 
L 342.519887 233.350975 
L 348.320835 229.831056 
L 354.057243 226.311136 
L 359.720146 222.791217 
L 365.300799 219.271298 
L 370.790722 215.751379 
L 376.181745 212.23146 
L 381.466052 208.71154 
L 386.63622 205.191621 
L 391.685261 201.671702 
L 396.606656 198.151783 
L 401.39439 194.631864 
L 406.04298 191.111944 
L 410.547504 187.592025 
L 414.903618 184.072106 
L 419.10758 180.552187 
L 423.156258 177.032268 
L 427.047141 173.512348 
L 430.778344 169.992429 
L 434.348604 166.47251 
L 437.757278 162.952591 
L 441.004331 159.432672 
L 444.090325 155.912753 
L 447.016396 152.392833 
L 449.784234 148.872914 
L 452.396055 145.352995 
L 454.854574 141.833076 
L 457.162971 138.313157 
L 459.324853 134.793237 
L 461.344222 131.273318 
L 463.225429 127.753399 
L 464.973138 124.23348 
L 466.592284 120.713561 
L 468.088027 117.193641 
L 469.465714 113.673722 
L 470.730837 110.153803 
L 471.888989 106.633884 
L 472.945827 103.113965 
L 473.907034 99.594045 
L 474.778282 96.074126 
L 475.565196 92.554207 
L 476.273328 89.034288 
L 476.908121 85.514369 
L 477.47489 81.994449 
L 477.978792 78.47453 
L 478.424809 74.954611 
L 478.817731 71.434692 
L 479.162139 67.914773 
L 479.462398 64.394854 
L 479.72264 60.874934 
L 479.946768 57.355015 
L 480.138443 53.835096 
L 480.301091 50.315177 
L 480.437896 46.795258 
L 480.551811 43.275338 
L 480.645555 39.755419 
L 480.721625 36.2355 
" clip-path="url(#p5e5fb41d56)" style="fill: none; stroke: #2ca02c; stroke-width: 2; stroke-linecap: square"/>
   </g>
   <g id="line2d_32">
    <path d="M 324.903193 384.7075 
L 324.903193 381.187581 
L 325.997768 377.667662 
L 327.77815 374.147742 
L 330.023814 370.627823 
L 332.599654 367.107904 
L 335.417022 363.587985 
L 338.414935 360.068066 
L 341.549802 356.548146 
L 344.789389 353.028227 
L 348.109101 349.508308 
L 351.489611 345.988389 
L 354.915307 342.46847 
L 358.373251 338.948551 
L 361.852473 335.428631 
L 365.343478 331.908712 
L 368.837903 328.388793 
L 372.328273 324.868874 
L 375.807823 321.348955 
L 379.270374 317.829035 
L 382.710237 314.309116 
L 386.122145 310.789197 
L 389.501204 307.269278 
L 392.842853 303.749359 
L 396.14284 300.229439 
L 399.397194 296.70952 
L 402.602218 293.189601 
L 405.75447 289.669682 
L 408.850758 286.149763 
L 411.888133 282.629843 
L 414.863882 279.109924 
L 417.775524 275.590005 
L 420.620807 272.070086 
L 423.397707 268.550167 
L 426.104421 265.030247 
L 428.739366 261.510328 
L 431.301175 257.990409 
L 433.788698 254.47049 
L 436.200991 250.950571 
L 438.537318 247.430652 
L 440.797145 243.910732 
L 442.980132 240.390813 
L 445.086133 236.870894 
L 447.115188 233.350975 
L 449.067515 229.831056 
L 450.943504 226.311136 
L 452.743713 222.791217 
L 454.468857 219.271298 
L 456.119799 215.751379 
L 457.697548 212.23146 
L 459.203243 208.71154 
L 460.63815 205.191621 
L 462.003648 201.671702 
L 463.301225 198.151783 
L 464.532465 194.631864 
L 465.699038 191.111944 
L 466.802693 187.592025 
L 467.84525 184.072106 
L 468.828585 180.552187 
L 469.754627 177.032268 
L 470.625344 173.512348 
L 471.442737 169.992429 
L 472.208832 166.47251 
L 472.925668 162.952591 
L 473.595294 159.432672 
L 474.219756 155.912753 
L 474.801093 152.392833 
L 475.341333 148.872914 
L 475.842477 145.352995 
L 476.306505 141.833076 
L 476.735361 138.313157 
L 477.130952 134.793237 
L 477.495143 131.273318 
L 477.829754 127.753399 
L 478.136551 124.23348 
L 478.417251 120.713561 
L 478.673513 117.193641 
L 478.906937 113.673722 
L 479.119063 110.153803 
L 479.31137 106.633884 
L 479.485273 103.113965 
L 479.642123 99.594045 
L 479.783209 96.074126 
L 479.909754 92.554207 
L 480.022918 89.034288 
L 480.123798 85.514369 
L 480.213429 81.994449 
L 480.292784 78.47453 
L 480.362778 74.954611 
L 480.424265 71.434692 
L 480.478045 67.914773 
L 480.524863 64.394854 
L 480.565409 60.874934 
L 480.600325 57.355015 
L 480.630202 53.835096 
L 480.655587 50.315177 
L 480.676982 46.795258 
L 480.694846 43.275338 
L 480.709599 39.755419 
L 480.721625 36.2355 
" clip-path="url(#p5e5fb41d56)" style="fill: none; stroke: #d62728; stroke-width: 2; stroke-linecap: square"/>
   </g>
   <g id="line2d_33">
    <path d="M 434.907222 384.7075 
L 434.907222 381.187581 
L 435.342115 377.667662 
L 436.047858 374.147742 
L 436.934482 370.627823 
L 437.945733 367.107904 
L 439.043934 363.587985 
L 440.202671 360.068066 
L 441.402773 356.548146 
L 442.629921 353.028227 
L 443.873158 349.508308 
L 445.123919 345.988389 
L 446.375389 342.46847 
L 447.622058 338.948551 
L 448.859413 335.428631 
L 450.083721 331.908712 
L 451.291865 328.388793 
L 452.481232 324.868874 
L 453.649619 321.348955 
L 454.79517 317.829035 
L 455.916324 314.309116 
L 457.01177 310.789197 
L 458.08042 307.269278 
L 459.121379 303.749359 
L 460.133923 300.229439 
L 461.117483 296.70952 
L 462.071627 293.189601 
L 462.99605 289.669682 
L 463.890559 286.149763 
L 464.755064 282.629843 
L 465.589569 279.109924 
L 466.394166 275.590005 
L 467.169023 272.070086 
L 467.91438 268.550167 
L 468.630542 265.030247 
L 469.317874 261.510328 
L 469.976795 257.990409 
L 470.60777 254.47049 
L 471.211311 250.950571 
L 471.787966 247.430652 
L 472.338318 243.910732 
L 472.862983 240.390813 
L 473.362601 236.870894 
L 473.837836 233.350975 
L 474.289369 229.831056 
L 474.7179 226.311136 
L 475.12414 222.791217 
L 475.50881 219.271298 
L 475.872639 215.751379 
L 476.216357 212.23146 
L 476.540699 208.71154 
L 476.846398 205.191621 
L 477.134185 201.671702 
L 477.404786 198.151783 
L 477.658918 194.631864 
L 477.897293 191.111944 
L 478.120611 187.592025 
L 478.329561 184.072106 
L 478.524819 180.552187 
L 478.707046 177.032268 
L 478.876891 173.512348 
L 479.034983 169.992429 
L 479.181937 166.47251 
L 479.318349 162.952591 
L 479.444799 159.432672 
L 479.561845 155.912753 
L 479.670029 152.392833 
L 479.769872 148.872914 
L 479.861878 145.352995 
L 479.946527 141.833076 
L 480.024284 138.313157 
L 480.095591 134.793237 
L 480.160873 131.273318 
L 480.220535 127.753399 
L 480.274961 124.23348 
L 480.324519 120.713561 
L 480.369558 117.193641 
L 480.410407 113.673722 
L 480.44738 110.153803 
L 480.480771 106.633884 
L 480.51086 103.113965 
L 480.537909 99.594045 
L 480.562165 96.074126 
L 480.58386 92.554207 
L 480.60321 89.034288 
L 480.620419 85.514369 
L 480.635676 81.994449 
L 480.649158 78.47453 
L 480.661029 74.954611 
L 480.671441 71.434692 
L 480.680537 67.914773 
L 480.688446 64.394854 
L 480.69529 60.874934 
L 480.701179 57.355015 
L 480.706215 53.835096 
L 480.710493 50.315177 
L 480.714099 46.795258 
L 480.717109 43.275338 
L 480.719596 39.755419 
L 480.721625 36.2355 
" clip-path="url(#p5e5fb41d56)" style="fill: none; stroke: #9467bd; stroke-width: 2; stroke-linecap: square"/>
   </g>
   <g id="line2d_34">
    <path d="M 470.246203 384.7075 
L 470.246203 381.187581 
L 470.35895 377.667662 
L 470.541695 374.147742 
L 470.77082 370.627823 
L 471.03144 367.107904 
L 471.313512 363.587985 
L 471.609952 360.068066 
L 471.915598 356.548146 
L 472.226593 353.028227 
L 472.539989 349.508308 
L 472.853502 345.988389 
L 473.16533 342.46847 
L 473.474043 338.948551 
L 473.778492 335.428631 
L 474.077754 331.908712 
L 474.371085 328.388793 
L 474.657885 324.868874 
L 474.937674 321.348955 
L 475.210074 317.829035 
L 475.474789 314.309116 
L 475.731594 310.789197 
L 475.980329 307.269278 
L 476.220884 303.749359 
L 476.453197 300.229439 
L 476.677244 296.70952 
L 476.893036 293.189601 
L 477.100618 289.669682 
L 477.300058 286.149763 
L 477.491448 282.629843 
L 477.674902 279.109924 
L 477.85055 275.590005 
L 478.018539 272.070086 
L 478.179027 268.550167 
L 478.332185 265.030247 
L 478.478192 261.510328 
L 478.617238 257.990409 
L 478.749516 254.47049 
L 478.875225 250.950571 
L 478.99457 247.430652 
L 479.107756 243.910732 
L 479.214992 240.390813 
L 479.316487 236.870894 
L 479.412451 233.350975 
L 479.503092 229.831056 
L 479.588619 226.311136 
L 479.669237 222.791217 
L 479.74515 219.271298 
L 479.816558 215.751379 
L 479.883658 212.23146 
L 479.946645 208.71154 
L 480.005708 205.191621 
L 480.061031 201.671702 
L 480.112797 198.151783 
L 480.161181 194.631864 
L 480.206354 191.111944 
L 480.248481 187.592025 
L 480.287724 184.072106 
L 480.324238 180.552187 
L 480.358174 177.032268 
L 480.389674 173.512348 
L 480.41888 169.992429 
L 480.445925 166.47251 
L 480.470937 162.952591 
L 480.494039 159.432672 
L 480.515349 155.912753 
L 480.53498 152.392833 
L 480.553039 148.872914 
L 480.569629 145.352995 
L 480.584846 141.833076 
L 480.598784 138.313157 
L 480.611531 134.793237 
L 480.62317 131.273318 
L 480.63378 127.753399 
L 480.643435 124.23348 
L 480.652206 120.713561 
L 480.66016 117.193641 
L 480.667359 113.673722 
L 480.673861 110.153803 
L 480.679723 106.633884 
L 480.684995 103.113965 
L 480.689727 99.594045 
L 480.693963 96.074126 
L 480.697746 92.554207 
L 480.701116 89.034288 
L 480.704109 85.514369 
L 480.706759 81.994449 
L 480.709098 78.47453 
L 480.711156 74.954611 
L 480.712959 71.434692 
L 480.714532 67.914773 
L 480.7159 64.394854 
L 480.717082 60.874934 
L 480.718099 57.355015 
L 480.718968 53.835096 
L 480.719706 50.315177 
L 480.720328 46.795258 
L 480.720847 43.275338 
L 480.721275 39.755419 
L 480.721625 36.2355 
" clip-path="url(#p5e5fb41d56)" style="fill: none; stroke: #8c564b; stroke-width: 2; stroke-linecap: square"/>
   </g>
   <g id="line2d_35">
    <path d="M 478.610405 384.7075 
L 478.610405 381.187581 
L 478.634473 377.667662 
L 478.67346 374.147742 
L 478.722294 370.627823 
L 478.777768 367.107904 
L 478.83771 363.587985 
L 478.900586 360.068066 
L 478.965275 356.548146 
L 479.03094 353.028227 
L 479.096944 349.508308 
L 479.162793 345.988389 
L 479.228101 342.46847 
L 479.292564 338.948551 
L 479.355941 335.428631 
L 479.418041 331.908712 
L 479.478712 328.388793 
L 479.537835 324.868874 
L 479.59532 321.348955 
L 479.651095 317.829035 
L 479.705111 314.309116 
L 479.757331 310.789197 
L 479.807733 307.269278 
L 479.856308 303.749359 
L 479.903053 300.229439 
L 479.947978 296.70952 
L 479.991096 293.189601 
L 480.032428 289.669682 
L 480.072001 286.149763 
L 480.109845 282.629843 
L 480.145995 279.109924 
L 480.180489 275.590005 
L 480.213366 272.070086 
L 480.24467 268.550167 
L 480.274445 265.030247 
L 480.302735 261.510328 
L 480.329589 257.990409 
L 480.355054 254.47049 
L 480.379176 250.950571 
L 480.402006 247.430652 
L 480.42359 243.910732 
L 480.443978 240.390813 
L 480.463215 236.870894 
L 480.481351 233.350975 
L 480.498431 229.831056 
L 480.514501 226.311136 
L 480.529606 222.791217 
L 480.54379 219.271298 
L 480.557097 215.751379 
L 480.569568 212.23146 
L 480.581243 208.71154 
L 480.592164 205.191621 
L 480.602367 201.671702 
L 480.611892 198.151783 
L 480.620772 194.631864 
L 480.629045 191.111944 
L 480.636742 187.592025 
L 480.643896 184.072106 
L 480.650538 180.552187 
L 480.656699 177.032268 
L 480.662405 173.512348 
L 480.667686 169.992429 
L 480.672566 166.47251 
L 480.677071 162.952591 
L 480.681225 159.432672 
L 480.685049 155.912753 
L 480.688566 152.392833 
L 480.691797 148.872914 
L 480.694759 145.352995 
L 480.697473 141.833076 
L 480.699954 138.313157 
L 480.702221 134.793237 
L 480.704287 131.273318 
L 480.706168 127.753399 
L 480.707878 124.23348 
L 480.709429 120.713561 
L 480.710835 117.193641 
L 480.712105 113.673722 
L 480.713251 110.153803 
L 480.714283 106.633884 
L 480.715211 103.113965 
L 480.716042 99.594045 
L 480.716786 96.074126 
L 480.71745 92.554207 
L 480.718041 89.034288 
L 480.718565 85.514369 
L 480.719029 81.994449 
L 480.719438 78.47453 
L 480.719798 74.954611 
L 480.720113 71.434692 
L 480.720388 67.914773 
L 480.720627 64.394854 
L 480.720833 60.874934 
L 480.72101 57.355015 
L 480.721162 53.835096 
L 480.721291 50.315177 
L 480.721399 46.795258 
L 480.721489 43.275338 
L 480.721564 39.755419 
L 480.721625 36.2355 
" clip-path="url(#p5e5fb41d56)" style="fill: none; stroke: #e377c2; stroke-width: 2; stroke-linecap: square"/>
   </g>
   <g id="line2d_36">
    <path d="M 480.322231 384.7075 
L 480.322231 381.187581 
L 480.326913 377.667662 
L 480.334495 374.147742 
L 480.343988 370.627823 
L 480.354765 367.107904 
L 480.366401 363.587985 
L 480.378594 360.068066 
L 480.391126 356.548146 
L 480.403832 353.028227 
L 480.416587 349.508308 
L 480.429295 345.988389 
L 480.441881 342.46847 
L 480.454286 338.948551 
L 480.466463 335.428631 
L 480.478376 331.908712 
L 480.489996 328.388793 
L 480.501301 324.868874 
L 480.512273 321.348955 
L 480.522902 317.829035 
L 480.533177 314.309116 
L 480.543094 310.789197 
L 480.552649 307.269278 
L 480.561841 303.749359 
L 480.570671 300.229439 
L 480.579142 296.70952 
L 480.587258 293.189601 
L 480.595025 289.669682 
L 480.602447 286.149763 
L 480.609533 282.629843 
L 480.61629 279.109924 
L 480.622727 275.590005 
L 480.628851 272.070086 
L 480.634671 268.550167 
L 480.640199 265.030247 
L 480.645442 261.510328 
L 480.65041 257.990409 
L 480.655113 254.47049 
L 480.659562 250.950571 
L 480.663765 247.430652 
L 480.667733 243.910732 
L 480.671475 240.390813 
L 480.675 236.870894 
L 480.678318 233.350975 
L 480.681439 229.831056 
L 480.68437 226.311136 
L 480.687122 222.791217 
L 480.689702 219.271298 
L 480.692119 215.751379 
L 480.694382 212.23146 
L 480.696497 208.71154 
L 480.698472 205.191621 
L 480.700316 201.671702 
L 480.702035 198.151783 
L 480.703635 194.631864 
L 480.705125 191.111944 
L 480.706509 187.592025 
L 480.707793 184.072106 
L 480.708985 180.552187 
L 480.710089 177.032268 
L 480.71111 173.512348 
L 480.712055 169.992429 
L 480.712926 166.47251 
L 480.71373 162.952591 
L 480.714471 159.432672 
L 480.715152 155.912753 
L 480.715778 152.392833 
L 480.716352 148.872914 
L 480.716879 145.352995 
L 480.71736 141.833076 
L 480.717801 138.313157 
L 480.718202 134.793237 
L 480.718568 131.273318 
L 480.718901 127.753399 
L 480.719203 124.23348 
L 480.719478 120.713561 
L 480.719726 117.193641 
L 480.71995 113.673722 
L 480.720152 110.153803 
L 480.720334 106.633884 
L 480.720498 103.113965 
L 480.720644 99.594045 
L 480.720775 96.074126 
L 480.720892 92.554207 
L 480.720996 89.034288 
L 480.721088 85.514369 
L 480.721169 81.994449 
L 480.721241 78.47453 
L 480.721305 74.954611 
L 480.72136 71.434692 
L 480.721408 67.914773 
L 480.72145 64.394854 
L 480.721486 60.874934 
L 480.721517 57.355015 
L 480.721544 53.835096 
L 480.721566 50.315177 
L 480.721585 46.795258 
L 480.721601 43.275338 
L 480.721614 39.755419 
L 480.721625 36.2355 
" clip-path="url(#p5e5fb41d56)" style="fill: none; stroke: #7f7f7f; stroke-width: 2; stroke-linecap: square"/>
   </g>
   <g id="patch_3">
    <path d="M 60.180625 384.7075 
L 60.180625 36.2355 
" style="fill: none; stroke: #000000; stroke-width: 0.8; stroke-linejoin: miter; stroke-linecap: square"/>
   </g>
   <g id="patch_4">
    <path d="M 480.721625 384.7075 
L 480.721625 36.2355 
" style="fill: none; stroke: #000000; stroke-width: 0.8; stroke-linejoin: miter; stroke-linecap: square"/>
   </g>
   <g id="patch_5">
    <path d="M 60.180625 384.7075 
L 480.721625 384.7075 
" style="fill: none; stroke: #000000; stroke-width: 0.8; stroke-linejoin: miter; stroke-linecap: square"/>
   </g>
   <g id="patch_6">
    <path d="M 60.180625 36.2355 
L 480.721625 36.2355 
" style="fill: none; stroke: #000000; stroke-width: 0.8; stroke-linejoin: miter; stroke-linecap: square"/>
   </g>
   <g id="text_17">
    <!-- Perfiles de Pb disuelto vs profundidad (0–7 días) -->
    <g transform="translate(125.994563 16.798125) scale(0.12 -0.12)">
     <defs>
      <path id="DejaVuSans-6c" d="M 603 4863 
L 1178 4863 
L 1178 0 
L 603 0 
L 603 4863 
z
" transform="scale(0.015625)"/>
      <path id="DejaVuSans-74" d="M 1172 4494 
L 1172 3500 
L 2356 3500 
L 2356 3053 
L 1172 3053 
L 1172 1153 
Q 1172 725 1289 603 
Q 1406 481 1766 481 
L 2356 481 
L 2356 0 
L 1766 0 
Q 1100 0 847 248 
Q 594 497 594 1153 
L 594 3053 
L 172 3053 
L 172 3500 
L 594 3500 
L 594 4494 
L 1172 4494 
z
" transform="scale(0.015625)"/>
      <path id="DejaVuSans-76" d="M 191 3500 
L 800 3500 
L 1894 563 
L 2988 3500 
L 3597 3500 
L 2284 0 
L 1503 0 
L 191 3500 
z
" transform="scale(0.015625)"/>
      <path id="DejaVuSans-2013" d="M 313 1978 
L 2888 1978 
L 2888 1528 
L 313 1528 
L 313 1978 
z
" transform="scale(0.015625)"/>
      <path id="DejaVuSans-ed" d="M 1325 5119 
L 1947 5119 
L 928 3944 
L 450 3944 
L 1325 5119 
z
M 603 3500 
L 1178 3500 
L 1178 0 
L 603 0 
L 603 3500 
z
M 891 3584 
L 891 3584 
z
" transform="scale(0.015625)"/>
     </defs>
     <use xlink:href="#DejaVuSans-50"/>
     <use xlink:href="#DejaVuSans-65" transform="translate(56.677734 0)"/>
     <use xlink:href="#DejaVuSans-72" transform="translate(118.201172 0)"/>
     <use xlink:href="#DejaVuSans-66" transform="translate(159.314453 0)"/>
     <use xlink:href="#DejaVuSans-69" transform="translate(194.519531 0)"/>
     <use xlink:href="#DejaVuSans-6c" transform="translate(222.302734 0)"/>
     <use xlink:href="#DejaVuSans-65" transform="translate(250.085938 0)"/>
     <use xlink:href="#DejaVuSans-73" transform="translate(311.609375 0)"/>
     <use xlink:href="#DejaVuSans-20" transform="translate(363.708984 0)"/>
     <use xlink:href="#DejaVuSans-64" transform="translate(395.496094 0)"/>
     <use xlink:href="#DejaVuSans-65" transform="translate(458.972656 0)"/>
     <use xlink:href="#DejaVuSans-20" transform="translate(520.496094 0)"/>
     <use xlink:href="#DejaVuSans-50" transform="translate(552.283203 0)"/>
     <use xlink:href="#DejaVuSans-62" transform="translate(612.585938 0)"/>
     <use xlink:href="#DejaVuSans-20" transform="translate(676.0625 0)"/>
     <use xlink:href="#DejaVuSans-64" transform="translate(707.849609 0)"/>
     <use xlink:href="#DejaVuSans-69" transform="translate(771.326172 0)"/>
     <use xlink:href="#DejaVuSans-73" transform="translate(799.109375 0)"/>
     <use xlink:href="#DejaVuSans-75" transform="translate(851.208984 0)"/>
     <use xlink:href="#DejaVuSans-65" transform="translate(914.587891 0)"/>
     <use xlink:href="#DejaVuSans-6c" transform="translate(976.111328 0)"/>
     <use xlink:href="#DejaVuSans-74" transform="translate(1003.894531 0)"/>
     <use xlink:href="#DejaVuSans-6f" transform="translate(1043.103516 0)"/>
     <use xlink:href="#DejaVuSans-20" transform="translate(1104.285156 0)"/>
     <use xlink:href="#DejaVuSans-76" transform="translate(1136.072266 0)"/>
     <use xlink:href="#DejaVuSans-73" transform="translate(1195.251953 0)"/>
     <use xlink:href="#DejaVuSans-20" transform="translate(1247.351562 0)"/>
     <use xlink:href="#DejaVuSans-70" transform="translate(1279.138672 0)"/>
     <use xlink:href="#DejaVuSans-72" transform="translate(1342.615234 0)"/>
     <use xlink:href="#DejaVuSans-6f" transform="translate(1381.478516 0)"/>
     <use xlink:href="#DejaVuSans-66" transform="translate(1442.660156 0)"/>
     <use xlink:href="#DejaVuSans-75" transform="translate(1477.865234 0)"/>
     <use xlink:href="#DejaVuSans-6e" transform="translate(1541.244141 0)"/>
     <use xlink:href="#DejaVuSans-64" transform="translate(1604.623047 0)"/>
     <use xlink:href="#DejaVuSans-69" transform="translate(1668.099609 0)"/>
     <use xlink:href="#DejaVuSans-64" transform="translate(1695.882812 0)"/>
     <use xlink:href="#DejaVuSans-61" transform="translate(1759.359375 0)"/>
     <use xlink:href="#DejaVuSans-64" transform="translate(1820.638672 0)"/>
     <use xlink:href="#DejaVuSans-20" transform="translate(1884.115234 0)"/>
     <use xlink:href="#DejaVuSans-28" transform="translate(1915.902344 0)"/>
     <use xlink:href="#DejaVuSans-30" transform="translate(1954.916016 0)"/>
     <use xlink:href="#DejaVuSans-2013" transform="translate(2018.539062 0)"/>
     <use xlink:href="#DejaVuSans-37" transform="translate(2068.539062 0)"/>
     <use xlink:href="#DejaVuSans-20" transform="translate(2132.162109 0)"/>
     <use xlink:href="#DejaVuSans-64" transform="translate(2163.949219 0)"/>
     <use xlink:href="#DejaVuSans-ed" transform="translate(2227.425781 0)"/>
     <use xlink:href="#DejaVuSans-61" transform="translate(2255.208984 0)"/>
     <use xlink:href="#DejaVuSans-73" transform="translate(2316.488281 0)"/>
     <use xlink:href="#DejaVuSans-29" transform="translate(2368.587891 0)"/>
    </g>
    <!-- Relave Puerto Cristal (conceptual) -->
    <g transform="translate(168.157688 30.2355) scale(0.12 -0.12)">
     <defs>
      <path id="DejaVuSans-52" d="M 2841 2188 
Q 3044 2119 3236 1894 
Q 3428 1669 3622 1275 
L 4263 0 
L 3584 0 
L 2988 1197 
Q 2756 1666 2539 1819 
Q 2322 1972 1947 1972 
L 1259 1972 
L 1259 0 
L 628 0 
L 628 4666 
L 2053 4666 
Q 2853 4666 3247 4331 
Q 3641 3997 3641 3322 
Q 3641 2881 3436 2590 
Q 3231 2300 2841 2188 
z
M 1259 4147 
L 1259 2491 
L 2053 2491 
Q 2509 2491 2742 2702 
Q 2975 2913 2975 3322 
Q 2975 3731 2742 3939 
Q 2509 4147 2053 4147 
L 1259 4147 
z
" transform="scale(0.015625)"/>
      <path id="DejaVuSans-43" d="M 4122 4306 
L 4122 3641 
Q 3803 3938 3442 4084 
Q 3081 4231 2675 4231 
Q 1875 4231 1450 3742 
Q 1025 3253 1025 2328 
Q 1025 1406 1450 917 
Q 1875 428 2675 428 
Q 3081 428 3442 575 
Q 3803 722 4122 1019 
L 4122 359 
Q 3791 134 3420 21 
Q 3050 -91 2638 -91 
Q 1578 -91 968 557 
Q 359 1206 359 2328 
Q 359 3453 968 4101 
Q 1578 4750 2638 4750 
Q 3056 4750 3426 4639 
Q 3797 4528 4122 4306 
z
" transform="scale(0.015625)"/>
     </defs>
     <use xlink:href="#DejaVuSans-52"/>
     <use xlink:href="#DejaVuSans-65" transform="translate(64.982422 0)"/>
     <use xlink:href="#DejaVuSans-6c" transform="translate(126.505859 0)"/>
     <use xlink:href="#DejaVuSans-61" transform="translate(154.289062 0)"/>
     <use xlink:href="#DejaVuSans-76" transform="translate(215.568359 0)"/>
     <use xlink:href="#DejaVuSans-65" transform="translate(274.748047 0)"/>
     <use xlink:href="#DejaVuSans-20" transform="translate(336.271484 0)"/>
     <use xlink:href="#DejaVuSans-50" transform="translate(368.058594 0)"/>
     <use xlink:href="#DejaVuSans-75" transform="translate(426.611328 0)"/>
     <use xlink:href="#DejaVuSans-65" transform="translate(489.990234 0)"/>
     <use xlink:href="#DejaVuSans-72" transform="translate(551.513672 0)"/>
     <use xlink:href="#DejaVuSans-74" transform="translate(592.626953 0)"/>
     <use xlink:href="#DejaVuSans-6f" transform="translate(631.835938 0)"/>
     <use xlink:href="#DejaVuSans-20" transform="translate(693.017578 0)"/>
     <use xlink:href="#DejaVuSans-43" transform="translate(724.804688 0)"/>
     <use xlink:href="#DejaVuSans-72" transform="translate(794.628906 0)"/>
     <use xlink:href="#DejaVuSans-69" transform="translate(835.742188 0)"/>
     <use xlink:href="#DejaVuSans-73" transform="translate(863.525391 0)"/>
     <use xlink:href="#DejaVuSans-74" transform="translate(915.625 0)"/>
     <use xlink:href="#DejaVuSans-61" transform="translate(954.833984 0)"/>
     <use xlink:href="#DejaVuSans-6c" transform="translate(1016.113281 0)"/>
     <use xlink:href="#DejaVuSans-20" transform="translate(1043.896484 0)"/>
     <use xlink:href="#DejaVuSans-28" transform="translate(1075.683594 0)"/>
     <use xlink:href="#DejaVuSans-63" transform="translate(1114.697266 0)"/>
     <use xlink:href="#DejaVuSans-6f" transform="translate(1169.677734 0)"/>
     <use xlink:href="#DejaVuSans-6e" transform="translate(1230.859375 0)"/>
     <use xlink:href="#DejaVuSans-63" transform="translate(1294.238281 0)"/>
     <use xlink:href="#DejaVuSans-65" transform="translate(1349.21875 0)"/>
     <use xlink:href="#DejaVuSans-70" transform="translate(1410.742188 0)"/>
     <use xlink:href="#DejaVuSans-74" transform="translate(1474.21875 0)"/>
     <use xlink:href="#DejaVuSans-75" transform="translate(1513.427734 0)"/>
     <use xlink:href="#DejaVuSans-61" transform="translate(1576.806641 0)"/>
     <use xlink:href="#DejaVuSans-6c" transform="translate(1638.085938 0)"/>
     <use xlink:href="#DejaVuSans-29" transform="translate(1665.869141 0)"/>
    </g>
   </g>
   <g id="legend_1">
    <g id="patch_7">
     <path d="M 67.180625 161.6605 
L 129.185313 161.6605 
Q 131.185313 161.6605 131.185313 159.6605 
L 131.185313 43.2355 
Q 131.185313 41.2355 129.185313 41.2355 
L 67.180625 41.2355 
Q 65.180625 41.2355 65.180625 43.2355 
L 65.180625 159.6605 
Q 65.180625 161.6605 67.180625 161.6605 
z
" style="fill: #ffffff; opacity: 0.8; stroke: #cccccc; stroke-linejoin: miter"/>
    </g>
    <g id="line2d_37">
     <path d="M 69.180625 49.333937 
L 79.180625 49.333937 
L 89.180625 49.333937 
" style="fill: none; stroke: #1f77b4; stroke-width: 2; stroke-linecap: square"/>
    </g>
    <g id="text_18">
     <!-- 0 días -->
     <g transform="translate(97.180625 52.833937) scale(0.1 -0.1)">
      <use xlink:href="#DejaVuSans-30"/>
      <use xlink:href="#DejaVuSans-20" transform="translate(63.623047 0)"/>
      <use xlink:href="#DejaVuSans-64" transform="translate(95.410156 0)"/>
      <use xlink:href="#DejaVuSans-ed" transform="translate(158.886719 0)"/>
      <use xlink:href="#DejaVuSans-61" transform="translate(186.669922 0)"/>
      <use xlink:href="#DejaVuSans-73" transform="translate(247.949219 0)"/>
     </g>
    </g>
    <g id="line2d_38">
     <path d="M 69.180625 64.012063 
L 79.180625 64.012063 
L 89.180625 64.012063 
" style="fill: none; stroke: #ff7f0e; stroke-width: 2; stroke-linecap: square"/>
    </g>
    <g id="text_19">
     <!-- 1 días -->
     <g transform="translate(97.180625 67.512063) scale(0.1 -0.1)">
      <use xlink:href="#DejaVuSans-31"/>
      <use xlink:href="#DejaVuSans-20" transform="translate(63.623047 0)"/>
      <use xlink:href="#DejaVuSans-64" transform="translate(95.410156 0)"/>
      <use xlink:href="#DejaVuSans-ed" transform="translate(158.886719 0)"/>
      <use xlink:href="#DejaVuSans-61" transform="translate(186.669922 0)"/>
      <use xlink:href="#DejaVuSans-73" transform="translate(247.949219 0)"/>
     </g>
    </g>
    <g id="line2d_39">
     <path d="M 69.180625 78.690187 
L 79.180625 78.690187 
L 89.180625 78.690187 
" style="fill: none; stroke: #2ca02c; stroke-width: 2; stroke-linecap: square"/>
    </g>
    <g id="text_20">
     <!-- 2 días -->
     <g transform="translate(97.180625 82.190187) scale(0.1 -0.1)">
      <use xlink:href="#DejaVuSans-32"/>
      <use xlink:href="#DejaVuSans-20" transform="translate(63.623047 0)"/>
      <use xlink:href="#DejaVuSans-64" transform="translate(95.410156 0)"/>
      <use xlink:href="#DejaVuSans-ed" transform="translate(158.886719 0)"/>
      <use xlink:href="#DejaVuSans-61" transform="translate(186.669922 0)"/>
      <use xlink:href="#DejaVuSans-73" transform="translate(247.949219 0)"/>
     </g>
    </g>
    <g id="line2d_40">
     <path d="M 69.180625 93.368313 
L 79.180625 93.368313 
L 89.180625 93.368313 
" style="fill: none; stroke: #d62728; stroke-width: 2; stroke-linecap: square"/>
    </g>
    <g id="text_21">
     <!-- 3 días -->
     <g transform="translate(97.180625 96.868313) scale(0.1 -0.1)">
      <use xlink:href="#DejaVuSans-33"/>
      <use xlink:href="#DejaVuSans-20" transform="translate(63.623047 0)"/>
      <use xlink:href="#DejaVuSans-64" transform="translate(95.410156 0)"/>
      <use xlink:href="#DejaVuSans-ed" transform="translate(158.886719 0)"/>
      <use xlink:href="#DejaVuSans-61" transform="translate(186.669922 0)"/>
      <use xlink:href="#DejaVuSans-73" transform="translate(247.949219 0)"/>
     </g>
    </g>
    <g id="line2d_41">
     <path d="M 69.180625 108.046438 
L 79.180625 108.046438 
L 89.180625 108.046438 
" style="fill: none; stroke: #9467bd; stroke-width: 2; stroke-linecap: square"/>
    </g>
    <g id="text_22">
     <!-- 4 días -->
     <g transform="translate(97.180625 111.546438) scale(0.1 -0.1)">
      <use xlink:href="#DejaVuSans-34"/>
      <use xlink:href="#DejaVuSans-20" transform="translate(63.623047 0)"/>
      <use xlink:href="#DejaVuSans-64" transform="translate(95.410156 0)"/>
      <use xlink:href="#DejaVuSans-ed" transform="translate(158.886719 0)"/>
      <use xlink:href="#DejaVuSans-61" transform="translate(186.669922 0)"/>
      <use xlink:href="#DejaVuSans-73" transform="translate(247.949219 0)"/>
     </g>
    </g>
    <g id="line2d_42">
     <path d="M 69.180625 122.724562 
L 79.180625 122.724562 
L 89.180625 122.724562 
" style="fill: none; stroke: #8c564b; stroke-width: 2; stroke-linecap: square"/>
    </g>
    <g id="text_23">
     <!-- 5 días -->
     <g transform="translate(97.180625 126.224562) scale(0.1 -0.1)">
      <use xlink:href="#DejaVuSans-35"/>
      <use xlink:href="#DejaVuSans-20" transform="translate(63.623047 0)"/>
      <use xlink:href="#DejaVuSans-64" transform="translate(95.410156 0)"/>
      <use xlink:href="#DejaVuSans-ed" transform="translate(158.886719 0)"/>
      <use xlink:href="#DejaVuSans-61" transform="translate(186.669922 0)"/>
      <use xlink:href="#DejaVuSans-73" transform="translate(247.949219 0)"/>
     </g>
    </g>
    <g id="line2d_43">
     <path d="M 69.180625 137.402687 
L 79.180625 137.402687 
L 89.180625 137.402687 
" style="fill: none; stroke: #e377c2; stroke-width: 2; stroke-linecap: square"/>
    </g>
    <g id="text_24">
     <!-- 6 días -->
     <g transform="translate(97.180625 140.902687) scale(0.1 -0.1)">
      <use xlink:href="#DejaVuSans-36"/>
      <use xlink:href="#DejaVuSans-20" transform="translate(63.623047 0)"/>
      <use xlink:href="#DejaVuSans-64" transform="translate(95.410156 0)"/>
      <use xlink:href="#DejaVuSans-ed" transform="translate(158.886719 0)"/>
      <use xlink:href="#DejaVuSans-61" transform="translate(186.669922 0)"/>
      <use xlink:href="#DejaVuSans-73" transform="translate(247.949219 0)"/>
     </g>
    </g>
    <g id="line2d_44">
     <path d="M 69.180625 152.080812 
L 79.180625 152.080812 
L 89.180625 152.080812 
" style="fill: none; stroke: #7f7f7f; stroke-width: 2; stroke-linecap: square"/>
    </g>
    <g id="text_25">
     <!-- 7 días -->
     <g transform="translate(97.180625 155.580812) scale(0.1 -0.1)">
      <use xlink:href="#DejaVuSans-37"/>
      <use xlink:href="#DejaVuSans-20" transform="translate(63.623047 0)"/>
      <use xlink:href="#DejaVuSans-64" transform="translate(95.410156 0)"/>
      <use xlink:href="#DejaVuSans-ed" transform="translate(158.886719 0)"/>
      <use xlink:href="#DejaVuSans-61" transform="translate(186.669922 0)"/>
      <use xlink:href="#DejaVuSans-73" transform="translate(247.949219 0)"/>
     </g>
    </g>
   </g>
  </g>
 </g>
 <defs>
  <clipPath id="p5e5fb41d56">
   <rect x="60.180625" y="36.2355" width="420.541" height="348.472"/>
  </clipPath>
 </defs>
</svg>
