<?xml version="1.0" encoding="utf-8" standalone="no"?>
<!DOCTYPE svg PUBLIC "-//W3C//DTD SVG 1.1//EN"
  "http://www.w3.org/Graphics/SVG/1.1/DTD/svg11.dtd">
<svg xmlns:xlink="http://www.w3.org/1999/xlink" width="495.886625pt" height="423.70375pt" viewBox="0 0 495.886625 423.70375" xmlns="http://www.w3.org/2000/svg" version="1.1">
 <metadata>
  <rdf:RDF xmlns:dc="http://purl.org/dc/elements/1.1/" xmlns:cc="http://creativecommons.org/ns#" xmlns:rdf="http://www.w3.org/1999/02/22-rdf-syntax-ns#">
   <cc:Work>
    <dc:type rdf:resource="http://purl.org/dc/dcmitype/StillImage"/>
    <dc:date>2025-12-09T03:25:13.414454</dc:date>
    <dc:format>image/svg+xml</dc:format>
    <dc:creator>
     <cc:Agent>
      <dc:title>Matplotlib v3.10.0, https://matplotlib.org/</dc:title>
     </cc:Agent>
    </dc:creator>
   </cc:Work>
  </rdf:RDF>
 </metadata>
 <defs>
  <style type="text/css">*{stroke-linejoin: round; stroke-linecap: butt}</style>
 </defs>
 <g id="figure_1">
  <g id="patch_1">
   <path d="M 0 423.70375 
L 495.886625 423.70375 
L 495.886625 0 
L 0 0 
z
" style="fill: #ffffff"/>
  </g>
  <g id="axes_1">
   <g id="patch_2">
    <path d="M 60.180625 386.1475 
L 488.686625 386.1475 
L 488.686625 36.2355 
L 60.180625 36.2355 
z
" style="fill: #ffffff"/>
   </g>
   <g id="matplotlib.axis_1">
    <g id="xtick_1">
     <g id="line2d_1">
      <path d="M 126.865483 386.1475 
L 126.865483 36.2355 
" clip-path="url(#p37e47367b6)" style="fill: none; stroke: #b0b0b0; stroke-width: 0.8; stroke-linecap: square"/>
     </g>
     <g id="line2d_2">
      <defs>
       <path id="m9c257fd526" d="M 0 0 
L 0 3.5 
" style="stroke: #000000; stroke-width: 0.8"/>
      </defs>
      <g>
       <use xlink:href="#m9c257fd526" x="126.865483" y="386.1475" style="stroke: #000000; stroke-width: 0.8"/>
      </g>
     </g>
     <g id="text_1">
      <!-- 0.15 -->
      <g transform="translate(115.732671 400.745937) scale(0.1 -0.1)">
       <defs>
        <path id="DejaVuSans-30" d="M 2034 4250 
Q 1547 4250 1301 3770 
Q 1056 3291 1056 2328 
Q 1056 1369 1301 889 
Q 1547 409 2034 409 
Q 2525 409 2770 889 
Q 3016 1369 3016 2328 
Q 3016 3291 2770 3770 
Q 2525 4250 2034 4250 
z
M 2034 4750 
Q 2819 4750 3233 4129 
Q 3647 3509 3647 2328 
Q 3647 1150 3233 529 
Q 2819 -91 2034 -91 
Q 1250 -91 836 529 
Q 422 1150 422 2328 
Q 422 3509 836 4129 
Q 1250 4750 2034 4750 
z
" transform="scale(0.015625)"/>
        <path id="DejaVuSans-2e" d="M 684 794 
L 1344 794 
L 1344 0 
L 684 0 
L 684 794 
z
" transform="scale(0.015625)"/>
        <path id="DejaVuSans-31" d="M 794 531 
L 1825 531 
L 1825 4091 
L 703 3866 
L 703 4441 
L 1819 4666 
L 2450 4666 
L 2450 531 
L 3481 531 
L 3481 0 
L 794 0 
L 794 531 
z
" transform="scale(0.015625)"/>
        <path id="DejaVuSans-35" d="M 691 4666 
L 3169 4666 
L 3169 4134 
L 1269 4134 
L 1269 2991 
Q 1406 3038 1543 3061 
Q 1681 3084 1819 3084 
Q 2600 3084 3056 2656 
Q 3513 2228 3513 1497 
Q 3513 744 3044 326 
Q 2575 -91 1722 -91 
Q 1428 -91 1123 -41 
Q 819 9 494 109 
L 494 744 
Q 775 591 1075 516 
Q 1375 441 1709 441 
Q 2250 441 2565 725 
Q 2881 1009 2881 1497 
Q 2881 1984 2565 2268 
Q 2250 2553 1709 2553 
Q 1456 2553 1204 2497 
Q 953 2441 691 2322 
L 691 4666 
z
" transform="scale(0.015625)"/>
       </defs>
       <use xlink:href="#DejaVuSans-30"/>
       <use xlink:href="#DejaVuSans-2e" transform="translate(63.623047 0)"/>
       <use xlink:href="#DejaVuSans-31" transform="translate(95.410156 0)"/>
       <use xlink:href="#DejaVuSans-35" transform="translate(159.033203 0)"/>
      </g>
     </g>
    </g>
    <g id="xtick_2">
     <g id="line2d_3">
      <path d="M 205.544337 386.1475 
L 205.544337 36.2355 
" clip-path="url(#p37e47367b6)" style="fill: none; stroke: #b0b0b0; stroke-width: 0.8; stroke-linecap: square"/>
     </g>
     <g id="line2d_4">
      <g>
       <use xlink:href="#m9c257fd526" x="205.544337" y="386.1475" style="stroke: #000000; stroke-width: 0.8"/>
      </g>
     </g>
     <g id="text_2">
      <!-- 0.20 -->
      <g transform="translate(194.411525 400.745937) scale(0.1 -0.1)">
       <defs>
        <path id="DejaVuSans-32" d="M 1228 531 
L 3431 531 
L 3431 0 
L 469 0 
L 469 531 
Q 828 903 1448 1529 
Q 2069 2156 2228 2338 
Q 2531 2678 2651 2914 
Q 2772 3150 2772 3378 
Q 2772 3750 2511 3984 
Q 2250 4219 1831 4219 
Q 1534 4219 1204 4116 
Q 875 4013 500 3803 
L 500 4441 
Q 881 4594 1212 4672 
Q 1544 4750 1819 4750 
Q 2544 4750 2975 4387 
Q 3406 4025 3406 3419 
Q 3406 3131 3298 2873 
Q 3191 2616 2906 2266 
Q 2828 2175 2409 1742 
Q 1991 1309 1228 531 
z
" transform="scale(0.015625)"/>
       </defs>
       <use xlink:href="#DejaVuSans-30"/>
       <use xlink:href="#DejaVuSans-2e" transform="translate(63.623047 0)"/>
       <use xlink:href="#DejaVuSans-32" transform="translate(95.410156 0)"/>
       <use xlink:href="#DejaVuSans-30" transform="translate(159.033203 0)"/>
      </g>
     </g>
    </g>
    <g id="xtick_3">
     <g id="line2d_5">
      <path d="M 284.223192 386.1475 
L 284.223192 36.2355 
" clip-path="url(#p37e47367b6)" style="fill: none; stroke: #b0b0b0; stroke-width: 0.8; stroke-linecap: square"/>
     </g>
     <g id="line2d_6">
      <g>
       <use xlink:href="#m9c257fd526" x="284.223192" y="386.1475" style="stroke: #000000; stroke-width: 0.8"/>
      </g>
     </g>
     <g id="text_3">
      <!-- 0.25 -->
      <g transform="translate(273.090379 400.745937) scale(0.1 -0.1)">
       <use xlink:href="#DejaVuSans-30"/>
       <use xlink:href="#DejaVuSans-2e" transform="translate(63.623047 0)"/>
       <use xlink:href="#DejaVuSans-32" transform="translate(95.410156 0)"/>
       <use xlink:href="#DejaVuSans-35" transform="translate(159.033203 0)"/>
      </g>
     </g>
    </g>
    <g id="xtick_4">
     <g id="line2d_7">
      <path d="M 362.902046 386.1475 
L 362.902046 36.2355 
" clip-path="url(#p37e47367b6)" style="fill: none; stroke: #b0b0b0; stroke-width: 0.8; stroke-linecap: square"/>
     </g>
     <g id="line2d_8">
      <g>
       <use xlink:href="#m9c257fd526" x="362.902046" y="386.1475" style="stroke: #000000; stroke-width: 0.8"/>
      </g>
     </g>
     <g id="text_4">
      <!-- 0.30 -->
      <g transform="translate(351.769234 400.745937) scale(0.1 -0.1)">
       <defs>
        <path id="DejaVuSans-33" d="M 2597 2516 
Q 3050 2419 3304 2112 
Q 3559 1806 3559 1356 
Q 3559 666 3084 287 
Q 2609 -91 1734 -91 
Q 1441 -91 1130 -33 
Q 819 25 488 141 
L 488 750 
Q 750 597 1062 519 
Q 1375 441 1716 441 
Q 2309 441 2620 675 
Q 2931 909 2931 1356 
Q 2931 1769 2642 2001 
Q 2353 2234 1838 2234 
L 1294 2234 
L 1294 2753 
L 1863 2753 
Q 2328 2753 2575 2939 
Q 2822 3125 2822 3475 
Q 2822 3834 2567 4026 
Q 2313 4219 1838 4219 
Q 1578 4219 1281 4162 
Q 984 4106 628 3988 
L 628 4550 
Q 988 4650 1302 4700 
Q 1616 4750 1894 4750 
Q 2613 4750 3031 4423 
Q 3450 4097 3450 3541 
Q 3450 3153 3228 2886 
Q 3006 2619 2597 2516 
z
" transform="scale(0.015625)"/>
       </defs>
       <use xlink:href="#DejaVuSans-30"/>
       <use xlink:href="#DejaVuSans-2e" transform="translate(63.623047 0)"/>
       <use xlink:href="#DejaVuSans-33" transform="translate(95.410156 0)"/>
       <use xlink:href="#DejaVuSans-30" transform="translate(159.033203 0)"/>
      </g>
     </g>
    </g>
    <g id="xtick_5">
     <g id="line2d_9">
      <path d="M 441.580901 386.1475 
L 441.580901 36.2355 
" clip-path="url(#p37e47367b6)" style="fill: none; stroke: #b0b0b0; stroke-width: 0.8; stroke-linecap: square"/>
     </g>
     <g id="line2d_10">
      <g>
       <use xlink:href="#m9c257fd526" x="441.580901" y="386.1475" style="stroke: #000000; stroke-width: 0.8"/>
      </g>
     </g>
     <g id="text_5">
      <!-- 0.35 -->
      <g transform="translate(430.448088 400.745937) scale(0.1 -0.1)">
       <use xlink:href="#DejaVuSans-30"/>
       <use xlink:href="#DejaVuSans-2e" transform="translate(63.623047 0)"/>
       <use xlink:href="#DejaVuSans-33" transform="translate(95.410156 0)"/>
       <use xlink:href="#DejaVuSans-35" transform="translate(159.033203 0)"/>
      </g>
     </g>
    </g>
    <g id="text_6">
     <!-- $\theta$ (cm³/cm³) -->
     <g transform="translate(244.933625 414.424062) scale(0.1 -0.1)">
      <defs>
       <path id="DejaVuSans-Oblique-3b8" d="M 2913 2219 
L 925 2219 
Q 791 1284 928 888 
Q 1100 400 1566 400 
Q 2034 400 2391 891 
Q 2703 1322 2913 2219 
z
M 3009 2750 
Q 3094 3638 2984 3950 
Q 2813 4444 2353 4444 
Q 1875 4444 1525 3956 
Q 1250 3563 1034 2750 
L 3009 2750 
z
M 2444 4913 
Q 3194 4913 3494 4250 
Q 3794 3591 3566 2422 
Q 3341 1256 2781 594 
Q 2225 -72 1475 -72 
Q 722 -72 425 594 
Q 128 1256 353 2422 
Q 581 3591 1134 4250 
Q 1691 4913 2444 4913 
z
" transform="scale(0.015625)"/>
       <path id="DejaVuSans-20" transform="scale(0.015625)"/>
       <path id="DejaVuSans-28" d="M 1984 4856 
Q 1566 4138 1362 3434 
Q 1159 2731 1159 2009 
Q 1159 1288 1364 580 
Q 1569 -128 1984 -844 
L 1484 -844 
Q 1016 -109 783 600 
Q 550 1309 550 2009 
Q 550 2706 781 3412 
Q 1013 4119 1484 4856 
L 1984 4856 
z
" transform="scale(0.015625)"/>
       <path id="DejaVuSans-63" d="M 3122 3366 
L 3122 2828 
Q 2878 2963 2633 3030 
Q 2388 3097 2138 3097 
Q 1578 3097 1268 2742 
Q 959 2388 959 1747 
Q 959 1106 1268 751 
Q 1578 397 2138 397 
Q 2388 397 2633 464 
Q 2878 531 3122 666 
L 3122 134 
Q 2881 22 2623 -34 
Q 2366 -91 2075 -91 
Q 1284 -91 818 406 
Q 353 903 353 1747 
Q 353 2603 823 3093 
Q 1294 3584 2113 3584 
Q 2378 3584 2631 3529 
Q 2884 3475 3122 3366 
z
" transform="scale(0.015625)"/>
       <path id="DejaVuSans-6d" d="M 3328 2828 
Q 3544 3216 3844 3400 
Q 4144 3584 4550 3584 
Q 5097 3584 5394 3201 
Q 5691 2819 5691 2113 
L 5691 0 
L 5113 0 
L 5113 2094 
Q 5113 2597 4934 2840 
Q 4756 3084 4391 3084 
Q 3944 3084 3684 2787 
Q 3425 2491 3425 1978 
L 3425 0 
L 2847 0 
L 2847 2094 
Q 2847 2600 2669 2842 
Q 2491 3084 2119 3084 
Q 1678 3084 1418 2786 
Q 1159 2488 1159 1978 
L 1159 0 
L 581 0 
L 581 3500 
L 1159 3500 
L 1159 2956 
Q 1356 3278 1631 3431 
Q 1906 3584 2284 3584 
Q 2666 3584 2933 3390 
Q 3200 3197 3328 2828 
z
" transform="scale(0.015625)"/>
       <path id="DejaVuSans-b3" d="M 1638 3500 
Q 1925 3444 2083 3273 
Q 2241 3103 2241 2847 
Q 2241 2459 1944 2250 
Q 1647 2041 1094 2041 
Q 916 2041 720 2073 
Q 525 2106 306 2169 
L 306 2547 
Q 469 2463 655 2422 
Q 841 2381 1050 2381 
Q 1391 2381 1578 2504 
Q 1766 2628 1766 2847 
Q 1766 3078 1592 3197 
Q 1419 3316 1081 3316 
L 813 3316 
L 813 3653 
L 1106 3653 
Q 1400 3653 1551 3751 
Q 1703 3850 1703 4038 
Q 1703 4219 1547 4314 
Q 1391 4409 1094 4409 
Q 969 4409 809 4381 
Q 650 4353 397 4281 
L 397 4641 
Q 625 4694 825 4722 
Q 1025 4750 1197 4750 
Q 1647 4750 1911 4565 
Q 2175 4381 2175 4072 
Q 2175 3856 2034 3706 
Q 1894 3556 1638 3500 
z
" transform="scale(0.015625)"/>
       <path id="DejaVuSans-2f" d="M 1625 4666 
L 2156 4666 
L 531 -594 
L 0 -594 
L 1625 4666 
z
" transform="scale(0.015625)"/>
       <path id="DejaVuSans-29" d="M 513 4856 
L 1013 4856 
Q 1481 4119 1714 3412 
Q 1947 2706 1947 2009 
Q 1947 1309 1714 600 
Q 1481 -109 1013 -844 
L 513 -844 
Q 928 -128 1133 580 
Q 1338 1288 1338 2009 
Q 1338 2731 1133 3434 
Q 928 4138 513 4856 
z
" transform="scale(0.015625)"/>
      </defs>
      <use xlink:href="#DejaVuSans-Oblique-3b8" transform="translate(0 0.234375)"/>
      <use xlink:href="#DejaVuSans-20" transform="translate(61.181641 0.234375)"/>
      <use xlink:href="#DejaVuSans-28" transform="translate(92.96875 0.234375)"/>
      <use xlink:href="#DejaVuSans-63" transform="translate(131.982422 0.234375)"/>
      <use xlink:href="#DejaVuSans-6d" transform="translate(186.962891 0.234375)"/>
      <use xlink:href="#DejaVuSans-b3" transform="translate(284.375 0.234375)"/>
      <use xlink:href="#DejaVuSans-2f" transform="translate(324.462891 0.234375)"/>
      <use xlink:href="#DejaVuSans-63" transform="translate(358.154297 0.234375)"/>
      <use xlink:href="#DejaVuSans-6d" transform="translate(413.134766 0.234375)"/>
      <use xlink:href="#DejaVuSans-b3" transform="translate(510.546875 0.234375)"/>
      <use xlink:href="#DejaVuSans-29" transform="translate(550.634766 0.234375)"/>
     </g>
    </g>
   </g>
   <g id="matplotlib.axis_2">
    <g id="ytick_1">
     <g id="line2d_11">
      <path d="M 60.180625 386.1475 
L 488.686625 386.1475 
" clip-path="url(#p37e47367b6)" style="fill: none; stroke: #b0b0b0; stroke-width: 0.8; stroke-linecap: square"/>
     </g>
     <g id="line2d_12">
      <defs>
       <path id="m2e72442c44" d="M 0 0 
L -3.5 0 
" style="stroke: #000000; stroke-width: 0.8"/>
      </defs>
      <g>
       <use xlink:href="#m2e72442c44" x="60.180625" y="386.1475" style="stroke: #000000; stroke-width: 0.8"/>
      </g>
     </g>
     <g id="text_7">
      <!-- −70 -->
      <g transform="translate(32.075937 389.946719) scale(0.1 -0.1)">
       <defs>
        <path id="DejaVuSans-2212" d="M 678 2272 
L 4684 2272 
L 4684 1741 
L 678 1741 
L 678 2272 
z
" transform="scale(0.015625)"/>
        <path id="DejaVuSans-37" d="M 525 4666 
L 3525 4666 
L 3525 4397 
L 1831 0 
L 1172 0 
L 2766 4134 
L 525 4134 
L 525 4666 
z
" transform="scale(0.015625)"/>
       </defs>
       <use xlink:href="#DejaVuSans-2212"/>
       <use xlink:href="#DejaVuSans-37" transform="translate(83.789062 0)"/>
       <use xlink:href="#DejaVuSans-30" transform="translate(147.412109 0)"/>
      </g>
     </g>
    </g>
    <g id="ytick_2">
     <g id="line2d_13">
      <path d="M 60.180625 336.160071 
L 488.686625 336.160071 
" clip-path="url(#p37e47367b6)" style="fill: none; stroke: #b0b0b0; stroke-width: 0.8; stroke-linecap: square"/>
     </g>
     <g id="line2d_14">
      <g>
       <use xlink:href="#m2e72442c44" x="60.180625" y="336.160071" style="stroke: #000000; stroke-width: 0.8"/>
      </g>
     </g>
     <g id="text_8">
      <!-- −60 -->
      <g transform="translate(32.075937 339.95929) scale(0.1 -0.1)">
       <defs>
        <path id="DejaVuSans-36" d="M 2113 2584 
Q 1688 2584 1439 2293 
Q 1191 2003 1191 1497 
Q 1191 994 1439 701 
Q 1688 409 2113 409 
Q 2538 409 2786 701 
Q 3034 994 3034 1497 
Q 3034 2003 2786 2293 
Q 2538 2584 2113 2584 
z
M 3366 4563 
L 3366 3988 
Q 3128 4100 2886 4159 
Q 2644 4219 2406 4219 
Q 1781 4219 1451 3797 
Q 1122 3375 1075 2522 
Q 1259 2794 1537 2939 
Q 1816 3084 2150 3084 
Q 2853 3084 3261 2657 
Q 3669 2231 3669 1497 
Q 3669 778 3244 343 
Q 2819 -91 2113 -91 
Q 1303 -91 875 529 
Q 447 1150 447 2328 
Q 447 3434 972 4092 
Q 1497 4750 2381 4750 
Q 2619 4750 2861 4703 
Q 3103 4656 3366 4563 
z
" transform="scale(0.015625)"/>
       </defs>
       <use xlink:href="#DejaVuSans-2212"/>
       <use xlink:href="#DejaVuSans-36" transform="translate(83.789062 0)"/>
       <use xlink:href="#DejaVuSans-30" transform="translate(147.412109 0)"/>
      </g>
     </g>
    </g>
    <g id="ytick_3">
     <g id="line2d_15">
      <path d="M 60.180625 286.172643 
L 488.686625 286.172643 
" clip-path="url(#p37e47367b6)" style="fill: none; stroke: #b0b0b0; stroke-width: 0.8; stroke-linecap: square"/>
     </g>
     <g id="line2d_16">
      <g>
       <use xlink:href="#m2e72442c44" x="60.180625" y="286.172643" style="stroke: #000000; stroke-width: 0.8"/>
      </g>
     </g>
     <g id="text_9">
      <!-- −50 -->
      <g transform="translate(32.075937 289.971862) scale(0.1 -0.1)">
       <use xlink:href="#DejaVuSans-2212"/>
       <use xlink:href="#DejaVuSans-35" transform="translate(83.789062 0)"/>
       <use xlink:href="#DejaVuSans-30" transform="translate(147.412109 0)"/>
      </g>
     </g>
    </g>
    <g id="ytick_4">
     <g id="line2d_17">
      <path d="M 60.180625 236.185214 
L 488.686625 236.185214 
" clip-path="url(#p37e47367b6)" style="fill: none; stroke: #b0b0b0; stroke-width: 0.8; stroke-linecap: square"/>
     </g>
     <g id="line2d_18">
      <g>
       <use xlink:href="#m2e72442c44" x="60.180625" y="236.185214" style="stroke: #000000; stroke-width: 0.8"/>
      </g>
     </g>
     <g id="text_10">
      <!-- −40 -->
      <g transform="translate(32.075937 239.984433) scale(0.1 -0.1)">
       <defs>
        <path id="DejaVuSans-34" d="M 2419 4116 
L 825 1625 
L 2419 1625 
L 2419 4116 
z
M 2253 4666 
L 3047 4666 
L 3047 1625 
L 3713 1625 
L 3713 1100 
L 3047 1100 
L 3047 0 
L 2419 0 
L 2419 1100 
L 313 1100 
L 313 1709 
L 2253 4666 
z
" transform="scale(0.015625)"/>
       </defs>
       <use xlink:href="#DejaVuSans-2212"/>
       <use xlink:href="#DejaVuSans-34" transform="translate(83.789062 0)"/>
       <use xlink:href="#DejaVuSans-30" transform="translate(147.412109 0)"/>
      </g>
     </g>
    </g>
    <g id="ytick_5">
     <g id="line2d_19">
      <path d="M 60.180625 186.197786 
L 488.686625 186.197786 
" clip-path="url(#p37e47367b6)" style="fill: none; stroke: #b0b0b0; stroke-width: 0.8; stroke-linecap: square"/>
     </g>
     <g id="line2d_20">
      <g>
       <use xlink:href="#m2e72442c44" x="60.180625" y="186.197786" style="stroke: #000000; stroke-width: 0.8"/>
      </g>
     </g>
     <g id="text_11">
      <!-- −30 -->
      <g transform="translate(32.075937 189.997004) scale(0.1 -0.1)">
       <use xlink:href="#DejaVuSans-2212"/>
       <use xlink:href="#DejaVuSans-33" transform="translate(83.789062 0)"/>
       <use xlink:href="#DejaVuSans-30" transform="translate(147.412109 0)"/>
      </g>
     </g>
    </g>
    <g id="ytick_6">
     <g id="line2d_21">
      <path d="M 60.180625 136.210357 
L 488.686625 136.210357 
" clip-path="url(#p37e47367b6)" style="fill: none; stroke: #b0b0b0; stroke-width: 0.8; stroke-linecap: square"/>
     </g>
     <g id="line2d_22">
      <g>
       <use xlink:href="#m2e72442c44" x="60.180625" y="136.210357" style="stroke: #000000; stroke-width: 0.8"/>
      </g>
     </g>
     <g id="text_12">
      <!-- −20 -->
      <g transform="translate(32.075937 140.009576) scale(0.1 -0.1)">
       <use xlink:href="#DejaVuSans-2212"/>
       <use xlink:href="#DejaVuSans-32" transform="translate(83.789062 0)"/>
       <use xlink:href="#DejaVuSans-30" transform="translate(147.412109 0)"/>
      </g>
     </g>
    </g>
    <g id="ytick_7">
     <g id="line2d_23">
      <path d="M 60.180625 86.222929 
L 488.686625 86.222929 
" clip-path="url(#p37e47367b6)" style="fill: none; stroke: #b0b0b0; stroke-width: 0.8; stroke-linecap: square"/>
     </g>
     <g id="line2d_24">
      <g>
       <use xlink:href="#m2e72442c44" x="60.180625" y="86.222929" style="stroke: #000000; stroke-width: 0.8"/>
      </g>
     </g>
     <g id="text_13">
      <!-- −10 -->
      <g transform="translate(32.075937 90.022147) scale(0.1 -0.1)">
       <use xlink:href="#DejaVuSans-2212"/>
       <use xlink:href="#DejaVuSans-31" transform="translate(83.789062 0)"/>
       <use xlink:href="#DejaVuSans-30" transform="translate(147.412109 0)"/>
      </g>
     </g>
    </g>
    <g id="ytick_8">
     <g id="line2d_25">
      <path d="M 60.180625 36.2355 
L 488.686625 36.2355 
" clip-path="url(#p37e47367b6)" style="fill: none; stroke: #b0b0b0; stroke-width: 0.8; stroke-linecap: square"/>
     </g>
     <g id="line2d_26">
      <g>
       <use xlink:href="#m2e72442c44" x="60.180625" y="36.2355" style="stroke: #000000; stroke-width: 0.8"/>
      </g>
     </g>
     <g id="text_14">
      <!-- 0 -->
      <g transform="translate(46.818125 40.034719) scale(0.1 -0.1)">
       <use xlink:href="#DejaVuSans-30"/>
      </g>
     </g>
    </g>
    <g id="text_15">
     <!-- Profundidad (cm) -->
     <g transform="translate(14.798437 254.304781) rotate(-90) scale(0.1 -0.1)">
      <defs>
       <path id="DejaVuSans-50" d="M 1259 4147 
L 1259 2394 
L 2053 2394 
Q 2494 2394 2734 2622 
Q 2975 2850 2975 3272 
Q 2975 3691 2734 3919 
Q 2494 4147 2053 4147 
L 1259 4147 
z
M 628 4666 
L 2053 4666 
Q 2838 4666 3239 4311 
Q 3641 3956 3641 3272 
Q 3641 2581 3239 2228 
Q 2838 1875 2053 1875 
L 1259 1875 
L 1259 0 
L 628 0 
L 628 4666 
z
" transform="scale(0.015625)"/>
       <path id="DejaVuSans-72" d="M 2631 2963 
Q 2534 3019 2420 3045 
Q 2306 3072 2169 3072 
Q 1681 3072 1420 2755 
Q 1159 2438 1159 1844 
L 1159 0 
L 581 0 
L 581 3500 
L 1159 3500 
L 1159 2956 
Q 1341 3275 1631 3429 
Q 1922 3584 2338 3584 
Q 2397 3584 2469 3576 
Q 2541 3569 2628 3553 
L 2631 2963 
z
" transform="scale(0.015625)"/>
       <path id="DejaVuSans-6f" d="M 1959 3097 
Q 1497 3097 1228 2736 
Q 959 2375 959 1747 
Q 959 1119 1226 758 
Q 1494 397 1959 397 
Q 2419 397 2687 759 
Q 2956 1122 2956 1747 
Q 2956 2369 2687 2733 
Q 2419 3097 1959 3097 
z
M 1959 3584 
Q 2709 3584 3137 3096 
Q 3566 2609 3566 1747 
Q 3566 888 3137 398 
Q 2709 -91 1959 -91 
Q 1206 -91 779 398 
Q 353 888 353 1747 
Q 353 2609 779 3096 
Q 1206 3584 1959 3584 
z
" transform="scale(0.015625)"/>
       <path id="DejaVuSans-66" d="M 2375 4863 
L 2375 4384 
L 1825 4384 
Q 1516 4384 1395 4259 
Q 1275 4134 1275 3809 
L 1275 3500 
L 2222 3500 
L 2222 3053 
L 1275 3053 
L 1275 0 
L 697 0 
L 697 3053 
L 147 3053 
L 147 3500 
L 697 3500 
L 697 3744 
Q 697 4328 969 4595 
Q 1241 4863 1831 4863 
L 2375 4863 
z
" transform="scale(0.015625)"/>
       <path id="DejaVuSans-75" d="M 544 1381 
L 544 3500 
L 1119 3500 
L 1119 1403 
Q 1119 906 1312 657 
Q 1506 409 1894 409 
Q 2359 409 2629 706 
Q 2900 1003 2900 1516 
L 2900 3500 
L 3475 3500 
L 3475 0 
L 2900 0 
L 2900 538 
Q 2691 219 2414 64 
Q 2138 -91 1772 -91 
Q 1169 -91 856 284 
Q 544 659 544 1381 
z
M 1991 3584 
L 1991 3584 
z
" transform="scale(0.015625)"/>
       <path id="DejaVuSans-6e" d="M 3513 2113 
L 3513 0 
L 2938 0 
L 2938 2094 
Q 2938 2591 2744 2837 
Q 2550 3084 2163 3084 
Q 1697 3084 1428 2787 
Q 1159 2491 1159 1978 
L 1159 0 
L 581 0 
L 581 3500 
L 1159 3500 
L 1159 2956 
Q 1366 3272 1645 3428 
Q 1925 3584 2291 3584 
Q 2894 3584 3203 3211 
Q 3513 2838 3513 2113 
z
" transform="scale(0.015625)"/>
       <path id="DejaVuSans-64" d="M 2906 2969 
L 2906 4863 
L 3481 4863 
L 3481 0 
L 2906 0 
L 2906 525 
Q 2725 213 2448 61 
Q 2172 -91 1784 -91 
Q 1150 -91 751 415 
Q 353 922 353 1747 
Q 353 2572 751 3078 
Q 1150 3584 1784 3584 
Q 2172 3584 2448 3432 
Q 2725 3281 2906 2969 
z
M 947 1747 
Q 947 1113 1208 752 
Q 1469 391 1925 391 
Q 2381 391 2643 752 
Q 2906 1113 2906 1747 
Q 2906 2381 2643 2742 
Q 2381 3103 1925 3103 
Q 1469 3103 1208 2742 
Q 947 2381 947 1747 
z
" transform="scale(0.015625)"/>
       <path id="DejaVuSans-69" d="M 603 3500 
L 1178 3500 
L 1178 0 
L 603 0 
L 603 3500 
z
M 603 4863 
L 1178 4863 
L 1178 4134 
L 603 4134 
L 603 4863 
z
" transform="scale(0.015625)"/>
       <path id="DejaVuSans-61" d="M 2194 1759 
Q 1497 1759 1228 1600 
Q 959 1441 959 1056 
Q 959 750 1161 570 
Q 1363 391 1709 391 
Q 2188 391 2477 730 
Q 2766 1069 2766 1631 
L 2766 1759 
L 2194 1759 
z
M 3341 1997 
L 3341 0 
L 2766 0 
L 2766 531 
Q 2569 213 2275 61 
Q 1981 -91 1556 -91 
Q 1019 -91 701 211 
Q 384 513 384 1019 
Q 384 1609 779 1909 
Q 1175 2209 1959 2209 
L 2766 2209 
L 2766 2266 
Q 2766 2663 2505 2880 
Q 2244 3097 1772 3097 
Q 1472 3097 1187 3025 
Q 903 2953 641 2809 
L 641 3341 
Q 956 3463 1253 3523 
Q 1550 3584 1831 3584 
Q 2591 3584 2966 3190 
Q 3341 2797 3341 1997 
z
" transform="scale(0.015625)"/>
      </defs>
      <use xlink:href="#DejaVuSans-50"/>
      <use xlink:href="#DejaVuSans-72" transform="translate(58.552734 0)"/>
      <use xlink:href="#DejaVuSans-6f" transform="translate(97.416016 0)"/>
      <use xlink:href="#DejaVuSans-66" transform="translate(158.597656 0)"/>
      <use xlink:href="#DejaVuSans-75" transform="translate(193.802734 0)"/>
      <use xlink:href="#DejaVuSans-6e" transform="translate(257.181641 0)"/>
      <use xlink:href="#DejaVuSans-64" transform="translate(320.560547 0)"/>
      <use xlink:href="#DejaVuSans-69" transform="translate(384.037109 0)"/>
      <use xlink:href="#DejaVuSans-64" transform="translate(411.820312 0)"/>
      <use xlink:href="#DejaVuSans-61" transform="translate(475.296875 0)"/>
      <use xlink:href="#DejaVuSans-64" transform="translate(536.576172 0)"/>
      <use xlink:href="#DejaVuSans-20" transform="translate(600.052734 0)"/>
      <use xlink:href="#DejaVuSans-28" transform="translate(631.839844 0)"/>
      <use xlink:href="#DejaVuSans-63" transform="translate(670.853516 0)"/>
      <use xlink:href="#DejaVuSans-6d" transform="translate(725.833984 0)"/>
      <use xlink:href="#DejaVuSans-29" transform="translate(823.246094 0)"/>
     </g>
     <!-- (0=superficie, -L=fondo) -->
     <g transform="translate(25.99625 273.087594) rotate(-90) scale(0.1 -0.1)">
      <defs>
       <path id="DejaVuSans-3d" d="M 678 2906 
L 4684 2906 
L 4684 2381 
L 678 2381 
L 678 2906 
z
M 678 1631 
L 4684 1631 
L 4684 1100 
L 678 1100 
L 678 1631 
z
" transform="scale(0.015625)"/>
       <path id="DejaVuSans-73" d="M 2834 3397 
L 2834 2853 
Q 2591 2978 2328 3040 
Q 2066 3103 1784 3103 
Q 1356 3103 1142 2972 
Q 928 2841 928 2578 
Q 928 2378 1081 2264 
Q 1234 2150 1697 2047 
L 1894 2003 
Q 2506 1872 2764 1633 
Q 3022 1394 3022 966 
Q 3022 478 2636 193 
Q 2250 -91 1575 -91 
Q 1294 -91 989 -36 
Q 684 19 347 128 
L 347 722 
Q 666 556 975 473 
Q 1284 391 1588 391 
Q 1994 391 2212 530 
Q 2431 669 2431 922 
Q 2431 1156 2273 1281 
Q 2116 1406 1581 1522 
L 1381 1569 
Q 847 1681 609 1914 
Q 372 2147 372 2553 
Q 372 3047 722 3315 
Q 1072 3584 1716 3584 
Q 2034 3584 2315 3537 
Q 2597 3491 2834 3397 
z
" transform="scale(0.015625)"/>
       <path id="DejaVuSans-70" d="M 1159 525 
L 1159 -1331 
L 581 -1331 
L 581 3500 
L 1159 3500 
L 1159 2969 
Q 1341 3281 1617 3432 
Q 1894 3584 2278 3584 
Q 2916 3584 3314 3078 
Q 3713 2572 3713 1747 
Q 3713 922 3314 415 
Q 2916 -91 2278 -91 
Q 1894 -91 1617 61 
Q 1341 213 1159 525 
z
M 3116 1747 
Q 3116 2381 2855 2742 
Q 2594 3103 2138 3103 
Q 1681 3103 1420 2742 
Q 1159 2381 1159 1747 
Q 1159 1113 1420 752 
Q 1681 391 2138 391 
Q 2594 391 2855 752 
Q 3116 1113 3116 1747 
z
" transform="scale(0.015625)"/>
       <path id="DejaVuSans-65" d="M 3597 1894 
L 3597 1613 
L 953 1613 
Q 991 1019 1311 708 
Q 1631 397 2203 397 
Q 2534 397 2845 478 
Q 3156 559 3463 722 
L 3463 178 
Q 3153 47 2828 -22 
Q 2503 -91 2169 -91 
Q 1331 -91 842 396 
Q 353 884 353 1716 
Q 353 2575 817 3079 
Q 1281 3584 2069 3584 
Q 2775 3584 3186 3129 
Q 3597 2675 3597 1894 
z
M 3022 2063 
Q 3016 2534 2758 2815 
Q 2500 3097 2075 3097 
Q 1594 3097 1305 2825 
Q 1016 2553 972 2059 
L 3022 2063 
z
" transform="scale(0.015625)"/>
       <path id="DejaVuSans-2c" d="M 750 794 
L 1409 794 
L 1409 256 
L 897 -744 
L 494 -744 
L 750 256 
L 750 794 
z
" transform="scale(0.015625)"/>
       <path id="DejaVuSans-2d" d="M 313 2009 
L 1997 2009 
L 1997 1497 
L 313 1497 
L 313 2009 
z
" transform="scale(0.015625)"/>
       <path id="DejaVuSans-4c" d="M 628 4666 
L 1259 4666 
L 1259 531 
L 3531 531 
L 3531 0 
L 628 0 
L 628 4666 
z
" transform="scale(0.015625)"/>
      </defs>
      <use xlink:href="#DejaVuSans-28"/>
      <use xlink:href="#DejaVuSans-30" transform="translate(39.013672 0)"/>
      <use xlink:href="#DejaVuSans-3d" transform="translate(102.636719 0)"/>
      <use xlink:href="#DejaVuSans-73" transform="translate(186.425781 0)"/>
      <use xlink:href="#DejaVuSans-75" transform="translate(238.525391 0)"/>
      <use xlink:href="#DejaVuSans-70" transform="translate(301.904297 0)"/>
      <use xlink:href="#DejaVuSans-65" transform="translate(365.380859 0)"/>
      <use xlink:href="#DejaVuSans-72" transform="translate(426.904297 0)"/>
      <use xlink:href="#DejaVuSans-66" transform="translate(468.017578 0)"/>
      <use xlink:href="#DejaVuSans-69" transform="translate(503.222656 0)"/>
      <use xlink:href="#DejaVuSans-63" transform="translate(531.005859 0)"/>
      <use xlink:href="#DejaVuSans-69" transform="translate(585.986328 0)"/>
      <use xlink:href="#DejaVuSans-65" transform="translate(613.769531 0)"/>
      <use xlink:href="#DejaVuSans-2c" transform="translate(675.292969 0)"/>
      <use xlink:href="#DejaVuSans-20" transform="translate(707.080078 0)"/>
      <use xlink:href="#DejaVuSans-2d" transform="translate(738.867188 0)"/>
      <use xlink:href="#DejaVuSans-4c" transform="translate(774.951172 0)"/>
      <use xlink:href="#DejaVuSans-3d" transform="translate(830.664062 0)"/>
      <use xlink:href="#DejaVuSans-66" transform="translate(914.453125 0)"/>
      <use xlink:href="#DejaVuSans-6f" transform="translate(949.658203 0)"/>
      <use xlink:href="#DejaVuSans-6e" transform="translate(1010.839844 0)"/>
      <use xlink:href="#DejaVuSans-64" transform="translate(1074.21875 0)"/>
      <use xlink:href="#DejaVuSans-6f" transform="translate(1137.695312 0)"/>
      <use xlink:href="#DejaVuSans-29" transform="translate(1198.876953 0)"/>
     </g>
    </g>
   </g>
   <g id="line2d_27">
    <path d="M 79.65817 386.1475 
L 79.65817 382.613035 
L 79.65817 379.078571 
L 79.65817 375.544106 
L 79.65817 372.009641 
L 79.65817 368.475177 
L 79.65817 364.940712 
L 79.65817 361.406247 
L 79.65817 357.871783 
L 79.65817 354.337318 
L 79.65817 350.802854 
L 79.65817 347.268389 
L 79.65817 343.733924 
L 79.65817 340.19946 
L 79.65817 336.664995 
L 79.65817 333.13053 
L 79.65817 329.596066 
L 79.65817 326.061601 
L 79.65817 322.527136 
L 79.65817 318.992672 
L 79.65817 315.458207 
L 79.65817 311.923742 
L 79.65817 308.389278 
L 79.65817 304.854813 
L 79.65817 301.320348 
L 79.65817 297.785884 
L 79.65817 294.251419 
L 79.65817 290.716955 
L 79.65817 287.18249 
L 79.65817 283.648025 
L 79.65817 280.113561 
L 79.65817 276.579096 
L 79.65817 273.044631 
L 79.65817 269.510167 
L 79.65817 265.975702 
L 79.65817 262.441237 
L 79.65817 258.906773 
L 79.65817 255.372308 
L 79.65817 251.837843 
L 79.65817 248.303379 
L 79.65817 244.768914 
L 79.65817 241.234449 
L 79.65817 237.699985 
L 79.65817 234.16552 
L 79.65817 230.631056 
L 79.65817 227.096591 
L 79.65817 223.562126 
L 79.65817 220.027662 
L 79.65817 216.493197 
L 79.65817 212.958732 
L 79.65817 209.424268 
L 79.65817 205.889803 
L 79.65817 202.355338 
L 79.65817 198.820874 
L 79.65817 195.286409 
L 79.65817 191.751944 
L 79.65817 188.21748 
L 79.65817 184.683015 
L 79.65817 181.148551 
L 79.65817 177.614086 
L 79.65817 174.079621 
L 79.65817 170.545157 
L 79.65817 167.010692 
L 79.65817 163.476227 
L 79.65817 159.941763 
L 79.65817 156.407298 
L 79.65817 152.872833 
L 79.65817 149.338369 
L 79.65817 145.803904 
L 79.65817 142.269439 
L 79.65817 138.734975 
L 79.65817 135.20051 
L 79.65817 131.666045 
L 79.65817 128.131581 
L 79.65817 124.597116 
L 79.65817 121.062652 
L 79.65817 117.528187 
L 79.65817 113.993722 
L 79.65817 110.459258 
L 79.65817 106.924793 
L 79.65817 103.390328 
L 79.65817 99.855864 
L 79.65817 96.321399 
L 79.65817 92.786934 
L 79.65817 89.25247 
L 79.65817 85.718005 
L 79.65817 82.18354 
L 79.65817 78.649076 
L 79.65817 75.114611 
L 79.65817 71.580146 
L 79.65817 68.045682 
L 79.65817 64.511217 
L 79.65817 60.976753 
L 79.65817 57.442288 
L 79.65817 53.907823 
L 79.65817 50.373359 
L 79.65817 46.838894 
L 79.65817 43.304429 
L 79.65817 39.769965 
L 79.65817 36.2355 
" clip-path="url(#p37e47367b6)" style="fill: none; stroke: #1f77b4; stroke-width: 2; stroke-linecap: square"/>
   </g>
   <g id="line2d_28">
    <path d="M 79.65817 386.1475 
L 82.234009 382.613035 
L 84.857674 379.078571 
L 87.608815 375.544106 
L 90.556509 372.009641 
L 93.757781 368.475177 
L 97.254526 364.940712 
L 101.06941 361.406247 
L 105.201792 357.871783 
L 109.625222 354.337318 
L 114.288256 350.802854 
L 119.119745 347.268389 
L 124.038322 343.733924 
L 128.963964 340.19946 
L 133.828394 336.664995 
L 138.581529 333.13053 
L 143.192946 329.596066 
L 147.649322 326.061601 
L 151.949806 322.527136 
L 156.10121 318.992672 
L 160.114136 315.458207 
L 164.00039 311.923742 
L 167.771519 308.389278 
L 171.43814 304.854813 
L 175.009742 301.320348 
L 178.49471 297.785884 
L 181.900458 294.251419 
L 185.233563 290.716955 
L 188.499901 287.18249 
L 191.704755 283.648025 
L 194.852904 280.113561 
L 197.948692 276.579096 
L 200.99609 273.044631 
L 203.99874 269.510167 
L 206.959995 265.975702 
L 209.882955 262.441237 
L 212.770491 258.906773 
L 215.625273 255.372308 
L 218.449789 251.837843 
L 221.246367 248.303379 
L 224.017184 244.768914 
L 226.764289 241.234449 
L 229.489608 237.699985 
L 232.194959 234.16552 
L 234.882063 230.631056 
L 237.552548 227.096591 
L 240.207961 223.562126 
L 242.849774 220.027662 
L 245.47939 216.493197 
L 248.098149 212.958732 
L 250.707329 209.424268 
L 253.30816 205.889803 
L 255.901819 202.355338 
L 258.489437 198.820874 
L 261.072103 195.286409 
L 263.650868 191.751944 
L 266.226744 188.21748 
L 268.800711 184.683015 
L 271.373715 181.148551 
L 273.946673 177.614086 
L 276.520475 174.079621 
L 279.095984 170.545157 
L 281.674036 167.010692 
L 284.255446 163.476227 
L 286.841004 159.941763 
L 289.431481 156.407298 
L 292.027626 152.872833 
L 294.630167 149.338369 
L 297.239814 145.803904 
L 299.857257 142.269439 
L 302.483167 138.734975 
L 305.118198 135.20051 
L 307.762984 131.666045 
L 310.41814 128.131581 
L 313.084265 124.597116 
L 315.761935 121.062652 
L 318.451709 117.528187 
L 321.154125 113.993722 
L 323.8697 110.459258 
L 326.598929 106.924793 
L 329.342283 103.390328 
L 332.100212 99.855864 
L 334.873136 96.321399 
L 337.661451 92.786934 
L 340.465521 89.25247 
L 343.285683 85.718005 
L 346.122237 82.18354 
L 348.975449 78.649076 
L 351.845546 75.114611 
L 354.732713 71.580146 
L 357.637092 68.045682 
L 360.558775 64.511217 
L 363.497802 60.976753 
L 366.454157 57.442288 
L 369.427764 53.907823 
L 372.41848 50.373359 
L 375.42609 46.838894 
L 378.450304 43.304429 
L 381.490748 39.769965 
L 384.546955 36.2355 
" clip-path="url(#p37e47367b6)" style="fill: none; stroke: #ff7f0e; stroke-width: 2; stroke-linecap: square"/>
   </g>
   <g id="line2d_29">
    <path d="M 79.65817 386.1475 
L 103.470111 382.613035 
L 119.674481 379.078571 
L 132.002995 375.544106 
L 142.055834 372.009641 
L 150.619266 368.475177 
L 158.132344 364.940712 
L 164.864583 361.406247 
L 170.993421 357.871783 
L 176.642041 354.337318 
L 181.899578 350.802854 
L 186.832708 347.268389 
L 191.492674 343.733924 
L 195.919762 340.19946 
L 200.146251 336.664995 
L 204.198435 333.13053 
L 208.098038 329.596066 
L 211.863232 326.061601 
L 215.509389 322.527136 
L 219.049638 318.992672 
L 222.495295 315.458207 
L 225.856189 311.923742 
L 229.140921 308.389278 
L 232.357069 304.854813 
L 235.511349 301.320348 
L 238.609747 297.785884 
L 241.65763 294.251419 
L 244.659829 290.716955 
L 247.620715 287.18249 
L 250.544262 283.648025 
L 253.434093 280.113561 
L 256.293528 276.579096 
L 259.125621 273.044631 
L 261.933185 269.510167 
L 264.718827 265.975702 
L 267.484966 262.441237 
L 270.233855 258.906773 
L 272.967598 255.372308 
L 275.688164 251.837843 
L 278.397402 248.303379 
L 281.097052 244.768914 
L 283.788755 241.234449 
L 286.474059 237.699985 
L 289.154434 234.16552 
L 291.831271 230.631056 
L 294.505893 227.096591 
L 297.179559 223.562126 
L 299.853466 220.027662 
L 302.52876 216.493197 
L 305.206531 212.958732 
L 307.887823 209.424268 
L 310.573632 205.889803 
L 313.26491 202.355338 
L 315.96257 198.820874 
L 318.667481 195.286409 
L 321.380475 191.751944 
L 324.102345 188.21748 
L 326.833845 184.683015 
L 329.575693 181.148551 
L 332.328569 177.614086 
L 335.093117 174.079621 
L 337.869941 170.545157 
L 340.659606 167.010692 
L 343.462637 163.476227 
L 346.279519 159.941763 
L 349.110693 156.407298 
L 351.956553 152.872833 
L 354.81745 149.338369 
L 357.693681 145.803904 
L 360.585493 142.269439 
L 363.493075 138.734975 
L 366.416557 135.20051 
L 369.356006 131.666045 
L 372.311419 128.131581 
L 375.282722 124.597116 
L 378.269762 121.062652 
L 381.2723 117.528187 
L 384.29001 113.993722 
L 387.322466 110.459258 
L 390.369138 106.924793 
L 393.429386 103.390328 
L 396.502445 99.855864 
L 399.587422 96.321399 
L 402.683285 92.786934 
L 405.788849 89.25247 
L 408.902768 85.718005 
L 412.023522 82.18354 
L 415.149403 78.649076 
L 418.278504 75.114611 
L 421.408701 71.580146 
L 424.53764 68.045682 
L 427.662717 64.511217 
L 430.781064 60.976753 
L 433.889531 57.442288 
L 436.98466 53.907823 
L 440.062669 50.373359 
L 443.119429 46.838894 
L 446.150438 43.304429 
L 449.150794 39.769965 
L 452.115169 36.2355 
" clip-path="url(#p37e47367b6)" style="fill: none; stroke: #2ca02c; stroke-width: 2; stroke-linecap: square"/>
   </g>
   <g id="line2d_30">
    <path d="M 79.65817 386.1475 
L 106.552388 382.613035 
L 124.370691 379.078571 
L 137.697397 375.544106 
L 148.453655 372.009641 
L 157.55547 368.475177 
L 165.503463 364.940712 
L 172.600363 361.406247 
L 179.043321 357.871783 
L 184.9681 354.337318 
L 190.472328 350.802854 
L 195.628672 347.268389 
L 200.492759 343.733924 
L 205.108179 340.19946 
L 209.509767 336.664995 
L 213.72583 333.13053 
L 217.779713 329.596066 
L 221.690915 326.061601 
L 225.475901 322.527136 
L 229.148724 318.992672 
L 232.721479 315.458207 
L 236.204663 311.923742 
L 239.607457 308.389278 
L 242.937941 304.854813 
L 246.203275 301.320348 
L 249.409835 297.785884 
L 252.563334 294.251419 
L 255.668916 290.716955 
L 258.73123 287.18249 
L 261.754502 283.648025 
L 264.742585 280.113561 
L 267.699006 276.579096 
L 270.627007 273.044631 
L 273.529578 269.510167 
L 276.409483 265.975702 
L 279.269289 262.441237 
L 282.111381 258.906773 
L 284.937989 255.372308 
L 287.751196 251.837843 
L 290.552955 248.303379 
L 293.345101 244.768914 
L 296.129365 241.234449 
L 298.907375 237.699985 
L 301.680672 234.16552 
L 304.450714 230.631056 
L 307.218881 227.096591 
L 309.986484 223.562126 
L 312.754764 220.027662 
L 315.524901 216.493197 
L 318.298018 212.958732 
L 321.075177 209.424268 
L 323.857389 205.889803 
L 326.645614 202.355338 
L 329.440758 198.820874 
L 332.24368 195.286409 
L 335.055191 191.751944 
L 337.876051 188.21748 
L 340.706974 184.683015 
L 343.548624 181.148551 
L 346.401616 177.614086 
L 349.266515 174.079621 
L 352.143832 170.545157 
L 355.034026 167.010692 
L 357.9375 163.476227 
L 360.854597 159.941763 
L 363.785601 156.407298 
L 366.730728 152.872833 
L 369.690129 149.338369 
L 372.663879 145.803904 
L 375.651978 142.269439 
L 378.654343 138.734975 
L 381.670802 135.20051 
L 384.701088 131.666045 
L 387.744837 128.131581 
L 390.801573 124.597116 
L 393.870706 121.062652 
L 396.95152 117.528187 
L 400.043167 113.993722 
L 403.144654 110.459258 
L 406.254836 106.924793 
L 409.372402 103.390328 
L 412.495861 99.855864 
L 415.623536 96.321399 
L 418.753542 92.786934 
L 421.883777 89.25247 
L 425.011903 85.718005 
L 428.135333 82.18354 
L 431.251209 78.649076 
L 434.356385 75.114611 
L 437.447408 71.580146 
L 440.520493 68.045682 
L 443.571507 64.511217 
L 446.595935 60.976753 
L 449.588863 57.442288 
L 452.544943 53.907823 
L 455.458362 50.373359 
L 458.322812 46.838894 
L 461.131445 43.304429 
L 463.87683 39.769965 
L 466.550902 36.2355 
" clip-path="url(#p37e47367b6)" style="fill: none; stroke: #d62728; stroke-width: 2; stroke-linecap: square"/>
   </g>
   <g id="line2d_31">
    <path d="M 79.65817 386.1475 
L 107.080681 382.613035 
L 125.173412 379.078571 
L 138.668255 375.544106 
L 149.54251 372.009641 
L 158.734533 368.475177 
L 166.75542 364.940712 
L 173.913508 361.406247 
L 180.409257 357.871783 
L 186.380537 354.337318 
L 191.926391 350.802854 
L 197.120483 347.268389 
L 202.019171 343.733924 
L 206.666592 340.19946 
L 211.098004 336.664995 
L 215.342051 333.13053 
L 219.422344 329.596066 
L 223.3586 326.061601 
L 227.167468 322.527136 
L 230.863152 318.992672 
L 234.457875 315.458207 
L 237.962246 311.923742 
L 241.38554 308.389278 
L 244.73592 304.854813 
L 248.020618 301.320348 
L 251.246077 297.785884 
L 254.418065 294.251419 
L 257.541777 290.716955 
L 260.621908 287.18249 
L 263.662725 283.648025 
L 266.668119 280.113561 
L 269.64165 276.579096 
L 272.586592 273.044631 
L 275.505961 269.510167 
L 278.402549 265.975702 
L 281.278944 262.441237 
L 284.137556 258.906773 
L 286.980631 255.372308 
L 289.810271 251.837843 
L 292.628447 248.303379 
L 295.437007 244.768914 
L 298.237695 241.234449 
L 301.032153 237.699985 
L 303.821931 234.16552 
L 306.608496 230.631056 
L 309.393237 227.096591 
L 312.17747 223.562126 
L 314.962443 220.027662 
L 317.749339 216.493197 
L 320.539281 212.958732 
L 323.333334 209.424268 
L 326.132509 205.889803 
L 328.937762 202.355338 
L 331.749995 198.820874 
L 334.570062 195.286409 
L 337.398764 191.751944 
L 340.236854 188.21748 
L 343.085031 184.683015 
L 345.943946 181.148551 
L 348.814196 177.614086 
L 351.696327 174.079621 
L 354.590827 170.545157 
L 357.49813 167.010692 
L 360.41861 163.476227 
L 363.352577 159.941763 
L 366.300277 156.407298 
L 369.261888 152.872833 
L 372.237515 149.338369 
L 375.227183 145.803904 
L 378.230837 142.269439 
L 381.248334 138.734975 
L 384.279436 135.20051 
L 387.323804 131.666045 
L 390.380992 128.131581 
L 393.45044 124.597116 
L 396.531463 121.062652 
L 399.623242 117.528187 
L 402.724817 113.993722 
L 405.835076 110.459258 
L 408.95274 106.924793 
L 412.076358 103.390328 
L 415.204285 99.855864 
L 418.334678 96.321399 
L 421.465474 92.786934 
L 424.594378 89.25247 
L 427.718846 85.718005 
L 430.836068 82.18354 
L 433.942945 78.649076 
L 437.036077 75.114611 
L 440.111734 71.580146 
L 443.165838 68.045682 
L 446.193935 64.511217 
L 449.191176 60.976753 
L 452.152277 57.442288 
L 455.071502 53.907823 
L 457.942615 50.373359 
L 460.758852 46.838894 
L 463.51287 43.304429 
L 466.196699 39.769965 
L 468.801678 36.2355 
" clip-path="url(#p37e47367b6)" style="fill: none; stroke: #9467bd; stroke-width: 2; stroke-linecap: square"/>
   </g>
   <g id="line2d_32">
    <path d="M 79.65817 386.1475 
L 107.163613 382.613035 
L 125.299368 379.078571 
L 138.820527 375.544106 
L 149.713238 372.009641 
L 158.919365 368.475177 
L 166.951649 364.940712 
L 174.119305 361.406247 
L 180.62331 357.871783 
L 186.601864 354.337318 
L 192.15423 350.802854 
L 197.35423 347.268389 
L 202.258335 343.733924 
L 206.910767 340.19946 
L 211.346851 336.664995 
L 215.595282 333.13053 
L 219.679714 329.596066 
L 223.619898 326.061601 
L 227.432512 322.527136 
L 231.131781 318.992672 
L 234.729952 315.458207 
L 238.237648 311.923742 
L 241.66416 308.389278 
L 245.017665 304.854813 
L 248.305406 301.320348 
L 251.533833 297.785884 
L 254.708727 294.251419 
L 257.835289 290.716955 
L 260.918222 287.18249 
L 263.961798 283.648025 
L 266.969914 280.113561 
L 269.946137 276.579096 
L 272.893744 273.044631 
L 275.815757 269.510167 
L 278.71497 265.975702 
L 281.593976 262.441237 
L 284.455188 258.906773 
L 287.300855 255.372308 
L 290.133082 251.837843 
L 292.953841 248.303379 
L 295.764986 244.768914 
L 298.568259 241.234449 
L 301.365305 237.699985 
L 304.157677 234.16552 
L 306.946843 230.631056 
L 309.734192 227.096591 
L 312.521041 223.562126 
L 315.308639 220.027662 
L 318.09817 216.493197 
L 320.890758 212.958732 
L 323.687467 209.424268 
L 326.489308 205.889803 
L 329.297235 202.355338 
L 332.112152 198.820874 
L 334.93491 195.286409 
L 337.76631 191.751944 
L 340.607101 188.21748 
L 343.457982 184.683015 
L 346.319601 181.148551 
L 349.192553 177.614086 
L 352.077379 174.079621 
L 354.974565 170.545157 
L 357.884539 167.010692 
L 360.807671 163.476227 
L 363.744266 159.941763 
L 366.694564 156.407298 
L 369.658737 152.872833 
L 372.63688 149.338369 
L 375.629012 145.803904 
L 378.635069 142.269439 
L 381.654897 138.734975 
L 384.688248 135.20051 
L 387.734771 131.666045 
L 390.794007 128.131581 
L 393.865383 124.597116 
L 396.948196 121.062652 
L 400.041613 117.528187 
L 403.144654 113.993722 
L 406.256188 110.459258 
L 409.374916 106.924793 
L 412.499361 103.390328 
L 415.627856 99.855864 
L 418.758529 96.321399 
L 421.889289 92.786934 
L 425.017811 89.25247 
L 428.141515 85.718005 
L 431.257556 82.18354 
L 434.362798 78.649076 
L 437.453796 75.114611 
L 440.526778 71.580146 
L 443.577617 68.045682 
L 446.601809 64.511217 
L 449.594448 60.976753 
L 452.550194 57.442288 
L 455.463244 53.907823 
L 458.327297 50.373359 
L 461.135512 46.838894 
L 463.880467 43.304429 
L 466.554102 39.769965 
L 469.14766 36.2355 
" clip-path="url(#p37e47367b6)" style="fill: none; stroke: #8c564b; stroke-width: 2; stroke-linecap: square"/>
   </g>
   <g id="line2d_33">
    <path d="M 79.65817 386.1475 
L 107.176415 382.613035 
L 125.318811 379.078571 
L 138.844032 375.544106 
L 149.73959 372.009641 
L 158.947893 368.475177 
L 166.981935 364.940712 
L 174.151067 361.406247 
L 180.656346 357.871783 
L 186.636022 354.337318 
L 192.189393 350.802854 
L 197.390305 347.268389 
L 202.295245 343.733924 
L 206.948451 340.19946 
L 211.385256 336.664995 
L 215.634363 333.13053 
L 219.719434 329.596066 
L 223.660225 326.061601 
L 227.473416 322.527136 
L 231.17324 318.992672 
L 234.771942 315.458207 
L 238.280152 311.923742 
L 241.707161 308.389278 
L 245.061148 304.854813 
L 248.349358 301.320348 
L 251.578244 297.785884 
L 254.753587 294.251419 
L 257.880588 290.716955 
L 260.963954 287.18249 
L 264.007956 283.648025 
L 267.016493 280.113561 
L 269.993131 276.579096 
L 272.94115 273.044631 
L 275.863571 269.510167 
L 278.763189 265.975702 
L 281.642599 262.441237 
L 284.504212 258.906773 
L 287.350279 255.372308 
L 290.182906 251.837843 
L 293.004064 248.303379 
L 295.815608 244.768914 
L 298.61928 241.234449 
L 301.416726 237.699985 
L 304.209499 234.16552 
L 306.999066 230.631056 
L 309.786817 227.096591 
L 312.574071 223.562126 
L 315.362074 220.027662 
L 318.152012 216.493197 
L 320.945009 212.958732 
L 323.742128 209.424268 
L 326.54438 205.889803 
L 329.35272 202.355338 
L 332.168051 198.820874 
L 334.991225 195.286409 
L 337.823041 191.751944 
L 340.664249 188.21748 
L 343.515548 184.683015 
L 346.377584 181.148551 
L 349.250953 177.614086 
L 352.136195 174.079621 
L 355.033795 170.545157 
L 357.944181 167.010692 
L 360.867722 163.476227 
L 363.804722 159.941763 
L 366.755421 156.407298 
L 369.719988 152.872833 
L 372.698518 149.338369 
L 375.69103 145.803904 
L 378.697457 142.269439 
L 381.717644 138.734975 
L 384.75134 135.20051 
L 387.798195 131.666045 
L 390.857746 128.131581 
L 393.929417 124.597116 
L 397.012505 121.062652 
L 400.106172 117.528187 
L 403.209438 113.993722 
L 406.321167 110.459258 
L 409.440056 106.924793 
L 412.564625 103.390328 
L 415.693205 99.855864 
L 418.823918 96.321399 
L 421.954668 92.786934 
L 425.083126 89.25247 
L 428.206708 85.718005 
L 431.322562 82.18354 
L 434.427545 78.649076 
L 437.518208 75.114611 
L 440.59077 71.580146 
L 443.641098 68.045682 
L 446.66468 64.511217 
L 449.656601 60.976753 
L 452.611511 57.442288 
L 455.523598 53.907823 
L 458.38655 50.373359 
L 461.193516 46.838894 
L 463.937059 43.304429 
L 466.609109 39.769965 
L 469.200888 36.2355 
" clip-path="url(#p37e47367b6)" style="fill: none; stroke: #e377c2; stroke-width: 2; stroke-linecap: square"/>
   </g>
   <g id="line2d_34">
    <path d="M 79.65817 386.1475 
L 107.178387 382.613035 
L 125.321805 379.078571 
L 138.847651 375.544106 
L 149.743647 372.009641 
L 158.952285 368.475177 
L 166.986598 364.940712 
L 174.155957 361.406247 
L 180.661433 357.871783 
L 186.641281 354.337318 
L 192.194807 350.802854 
L 197.395859 347.268389 
L 202.300928 343.733924 
L 206.954253 340.19946 
L 211.391169 336.664995 
L 215.64038 333.13053 
L 219.72555 329.596066 
L 223.666433 326.061601 
L 227.479714 322.527136 
L 231.179623 318.992672 
L 234.778407 315.458207 
L 238.286695 311.923742 
L 241.713781 308.389278 
L 245.067843 304.854813 
L 248.356125 301.320348 
L 251.585082 297.785884 
L 254.760493 294.251419 
L 257.887563 290.716955 
L 260.970995 287.18249 
L 264.015063 283.648025 
L 267.023664 280.113561 
L 270.000367 276.579096 
L 272.948449 273.044631 
L 275.870932 269.510167 
L 278.770613 265.975702 
L 281.650085 262.441237 
L 284.51176 258.906773 
L 287.357889 255.372308 
L 290.190577 251.837843 
L 293.011797 248.303379 
L 295.823402 244.768914 
L 298.627136 241.234449 
L 301.424643 237.699985 
L 304.217477 234.16552 
L 307.007106 230.631056 
L 309.79492 227.096591 
L 312.582235 223.562126 
L 315.370301 220.027662 
L 318.160302 216.493197 
L 320.953361 212.958732 
L 323.750544 209.424268 
L 326.552859 205.889803 
L 329.361263 202.355338 
L 332.176658 198.820874 
L 334.999895 195.286409 
L 337.831775 191.751944 
L 340.673048 188.21748 
L 343.524411 184.683015 
L 346.386511 181.148551 
L 349.259944 177.614086 
L 352.14525 174.079621 
L 355.042914 170.545157 
L 357.953364 167.010692 
L 360.876967 163.476227 
L 363.81403 159.941763 
L 366.76479 156.407298 
L 369.729418 152.872833 
L 372.708008 149.338369 
L 375.700578 145.803904 
L 378.707062 142.269439 
L 381.727304 138.734975 
L 384.761054 135.20051 
L 387.80796 131.666045 
L 390.867559 128.131581 
L 393.939276 124.597116 
L 397.022406 121.062652 
L 400.116112 117.528187 
L 403.219412 113.993722 
L 406.33117 110.459258 
L 409.450084 106.924793 
L 412.574673 103.390328 
L 415.703265 99.855864 
L 418.833984 96.321399 
L 421.964733 92.786934 
L 425.093181 89.25247 
L 428.216744 85.718005 
L 431.332569 82.18354 
L 434.437512 78.649076 
L 437.528124 75.114611 
L 440.600621 71.580146 
L 443.65087 68.045682 
L 446.674358 64.511217 
L 449.666168 60.976753 
L 452.620949 57.442288 
L 455.532888 53.907823 
L 458.39567 50.373359 
L 461.202443 46.838894 
L 463.945769 43.304429 
L 466.617574 39.769965 
L 469.20908 36.2355 
" clip-path="url(#p37e47367b6)" style="fill: none; stroke: #7f7f7f; stroke-width: 2; stroke-linecap: square"/>
   </g>
   <g id="patch_3">
    <path d="M 60.180625 386.1475 
L 60.180625 36.2355 
" style="fill: none; stroke: #000000; stroke-width: 0.8; stroke-linejoin: miter; stroke-linecap: square"/>
   </g>
   <g id="patch_4">
    <path d="M 488.686625 386.1475 
L 488.686625 36.2355 
" style="fill: none; stroke: #000000; stroke-width: 0.8; stroke-linejoin: miter; stroke-linecap: square"/>
   </g>
   <g id="patch_5">
    <path d="M 60.180625 386.1475 
L 488.686625 386.1475 
" style="fill: none; stroke: #000000; stroke-width: 0.8; stroke-linejoin: miter; stroke-linecap: square"/>
   </g>
   <g id="patch_6">
    <path d="M 60.180625 36.2355 
L 488.686625 36.2355 
" style="fill: none; stroke: #000000; stroke-width: 0.8; stroke-linejoin: miter; stroke-linecap: square"/>
   </g>
   <g id="text_16">
    <!-- Perfiles de θ(z) en el tiempo (0–7 días) -->
    <g transform="translate(158.776125 16.798125) scale(0.12 -0.12)">
     <defs>
      <path id="DejaVuSans-6c" d="M 603 4863 
L 1178 4863 
L 1178 0 
L 603 0 
L 603 4863 
z
" transform="scale(0.015625)"/>
      <path id="DejaVuSans-3b8" d="M 2953 2219 
L 963 2219 
Q 1009 1284 1225 888 
Q 1494 400 1959 400 
Q 2428 400 2688 891 
Q 2916 1322 2953 2219 
z
M 2944 2750 
Q 2856 3638 2688 3950 
Q 2419 4444 1959 4444 
Q 1481 4444 1228 3956 
Q 1028 3563 969 2750 
L 2944 2750 
z
M 1959 4913 
Q 2709 4913 3138 4250 
Q 3566 3591 3566 2422 
Q 3566 1256 3138 594 
Q 2709 -72 1959 -72 
Q 1206 -72 781 594 
Q 353 1256 353 2422 
Q 353 3591 781 4250 
Q 1206 4913 1959 4913 
z
" transform="scale(0.015625)"/>
      <path id="DejaVuSans-7a" d="M 353 3500 
L 3084 3500 
L 3084 2975 
L 922 459 
L 3084 459 
L 3084 0 
L 275 0 
L 275 525 
L 2438 3041 
L 353 3041 
L 353 3500 
z
" transform="scale(0.015625)"/>
      <path id="DejaVuSans-74" d="M 1172 4494 
L 1172 3500 
L 2356 3500 
L 2356 3053 
L 1172 3053 
L 1172 1153 
Q 1172 725 1289 603 
Q 1406 481 1766 481 
L 2356 481 
L 2356 0 
L 1766 0 
Q 1100 0 847 248 
Q 594 497 594 1153 
L 594 3053 
L 172 3053 
L 172 3500 
L 594 3500 
L 594 4494 
L 1172 4494 
z
" transform="scale(0.015625)"/>
      <path id="DejaVuSans-2013" d="M 313 1978 
L 2888 1978 
L 2888 1528 
L 313 1528 
L 313 1978 
z
" transform="scale(0.015625)"/>
      <path id="DejaVuSans-ed" d="M 1325 5119 
L 1947 5119 
L 928 3944 
L 450 3944 
L 1325 5119 
z
M 603 3500 
L 1178 3500 
L 1178 0 
L 603 0 
L 603 3500 
z
M 891 3584 
L 891 3584 
z
" transform="scale(0.015625)"/>
     </defs>
     <use xlink:href="#DejaVuSans-50"/>
     <use xlink:href="#DejaVuSans-65" transform="translate(56.677734 0)"/>
     <use xlink:href="#DejaVuSans-72" transform="translate(118.201172 0)"/>
     <use xlink:href="#DejaVuSans-66" transform="translate(159.314453 0)"/>
     <use xlink:href="#DejaVuSans-69" transform="translate(194.519531 0)"/>
     <use xlink:href="#DejaVuSans-6c" transform="translate(222.302734 0)"/>
     <use xlink:href="#DejaVuSans-65" transform="translate(250.085938 0)"/>
     <use xlink:href="#DejaVuSans-73" transform="translate(311.609375 0)"/>
     <use xlink:href="#DejaVuSans-20" transform="translate(363.708984 0)"/>
     <use xlink:href="#DejaVuSans-64" transform="translate(395.496094 0)"/>
     <use xlink:href="#DejaVuSans-65" transform="translate(458.972656 0)"/>
     <use xlink:href="#DejaVuSans-20" transform="translate(520.496094 0)"/>
     <use xlink:href="#DejaVuSans-3b8" transform="translate(552.283203 0)"/>
     <use xlink:href="#DejaVuSans-28" transform="translate(613.464844 0)"/>
     <use xlink:href="#DejaVuSans-7a" transform="translate(652.478516 0)"/>
     <use xlink:href="#DejaVuSans-29" transform="translate(704.96875 0)"/>
     <use xlink:href="#DejaVuSans-20" transform="translate(743.982422 0)"/>
     <use xlink:href="#DejaVuSans-65" transform="translate(775.769531 0)"/>
     <use xlink:href="#DejaVuSans-6e" transform="translate(837.292969 0)"/>
     <use xlink:href="#DejaVuSans-20" transform="translate(900.671875 0)"/>
     <use xlink:href="#DejaVuSans-65" transform="translate(932.458984 0)"/>
     <use xlink:href="#DejaVuSans-6c" transform="translate(993.982422 0)"/>
     <use xlink:href="#DejaVuSans-20" transform="translate(1021.765625 0)"/>
     <use xlink:href="#DejaVuSans-74" transform="translate(1053.552734 0)"/>
     <use xlink:href="#DejaVuSans-69" transform="translate(1092.761719 0)"/>
     <use xlink:href="#DejaVuSans-65" transform="translate(1120.544922 0)"/>
     <use xlink:href="#DejaVuSans-6d" transform="translate(1182.068359 0)"/>
     <use xlink:href="#DejaVuSans-70" transform="translate(1279.480469 0)"/>
     <use xlink:href="#DejaVuSans-6f" transform="translate(1342.957031 0)"/>
     <use xlink:href="#DejaVuSans-20" transform="translate(1404.138672 0)"/>
     <use xlink:href="#DejaVuSans-28" transform="translate(1435.925781 0)"/>
     <use xlink:href="#DejaVuSans-30" transform="translate(1474.939453 0)"/>
     <use xlink:href="#DejaVuSans-2013" transform="translate(1538.5625 0)"/>
     <use xlink:href="#DejaVuSans-37" transform="translate(1588.5625 0)"/>
     <use xlink:href="#DejaVuSans-20" transform="translate(1652.185547 0)"/>
     <use xlink:href="#DejaVuSans-64" transform="translate(1683.972656 0)"/>
     <use xlink:href="#DejaVuSans-ed" transform="translate(1747.449219 0)"/>
     <use xlink:href="#DejaVuSans-61" transform="translate(1775.232422 0)"/>
     <use xlink:href="#DejaVuSans-73" transform="translate(1836.511719 0)"/>
     <use xlink:href="#DejaVuSans-29" transform="translate(1888.611328 0)"/>
    </g>
    <!-- Relave Puerto Cristal -->
    <g transform="translate(211.800187 30.2355) scale(0.12 -0.12)">
     <defs>
      <path id="DejaVuSans-52" d="M 2841 2188 
Q 3044 2119 3236 1894 
Q 3428 1669 3622 1275 
L 4263 0 
L 3584 0 
L 2988 1197 
Q 2756 1666 2539 1819 
Q 2322 1972 1947 1972 
L 1259 1972 
L 1259 0 
L 628 0 
L 628 4666 
L 2053 4666 
Q 2853 4666 3247 4331 
Q 3641 3997 3641 3322 
Q 3641 2881 3436 2590 
Q 3231 2300 2841 2188 
z
M 1259 4147 
L 1259 2491 
L 2053 2491 
Q 2509 2491 2742 2702 
Q 2975 2913 2975 3322 
Q 2975 3731 2742 3939 
Q 2509 4147 2053 4147 
L 1259 4147 
z
" transform="scale(0.015625)"/>
      <path id="DejaVuSans-76" d="M 191 3500 
L 800 3500 
L 1894 563 
L 2988 3500 
L 3597 3500 
L 2284 0 
L 1503 0 
L 191 3500 
z
" transform="scale(0.015625)"/>
      <path id="DejaVuSans-43" d="M 4122 4306 
L 4122 3641 
Q 3803 3938 3442 4084 
Q 3081 4231 2675 4231 
Q 1875 4231 1450 3742 
Q 1025 3253 1025 2328 
Q 1025 1406 1450 917 
Q 1875 428 2675 428 
Q 3081 428 3442 575 
Q 3803 722 4122 1019 
L 4122 359 
Q 3791 134 3420 21 
Q 3050 -91 2638 -91 
Q 1578 -91 968 557 
Q 359 1206 359 2328 
Q 359 3453 968 4101 
Q 1578 4750 2638 4750 
Q 3056 4750 3426 4639 
Q 3797 4528 4122 4306 
z
" transform="scale(0.015625)"/>
     </defs>
     <use xlink:href="#DejaVuSans-52"/>
     <use xlink:href="#DejaVuSans-65" transform="translate(64.982422 0)"/>
     <use xlink:href="#DejaVuSans-6c" transform="translate(126.505859 0)"/>
     <use xlink:href="#DejaVuSans-61" transform="translate(154.289062 0)"/>
     <use xlink:href="#DejaVuSans-76" transform="translate(215.568359 0)"/>
     <use xlink:href="#DejaVuSans-65" transform="translate(274.748047 0)"/>
     <use xlink:href="#DejaVuSans-20" transform="translate(336.271484 0)"/>
     <use xlink:href="#DejaVuSans-50" transform="translate(368.058594 0)"/>
     <use xlink:href="#DejaVuSans-75" transform="translate(426.611328 0)"/>
     <use xlink:href="#DejaVuSans-65" transform="translate(489.990234 0)"/>
     <use xlink:href="#DejaVuSans-72" transform="translate(551.513672 0)"/>
     <use xlink:href="#DejaVuSans-74" transform="translate(592.626953 0)"/>
     <use xlink:href="#DejaVuSans-6f" transform="translate(631.835938 0)"/>
     <use xlink:href="#DejaVuSans-20" transform="translate(693.017578 0)"/>
     <use xlink:href="#DejaVuSans-43" transform="translate(724.804688 0)"/>
     <use xlink:href="#DejaVuSans-72" transform="translate(794.628906 0)"/>
     <use xlink:href="#DejaVuSans-69" transform="translate(835.742188 0)"/>
     <use xlink:href="#DejaVuSans-73" transform="translate(863.525391 0)"/>
     <use xlink:href="#DejaVuSans-74" transform="translate(915.625 0)"/>
     <use xlink:href="#DejaVuSans-61" transform="translate(954.833984 0)"/>
     <use xlink:href="#DejaVuSans-6c" transform="translate(1016.113281 0)"/>
    </g>
   </g>
   <g id="legend_1">
    <g id="patch_7">
     <path d="M 419.681938 381.1475 
L 481.686625 381.1475 
Q 483.686625 381.1475 483.686625 379.1475 
L 483.686625 262.7225 
Q 483.686625 260.7225 481.686625 260.7225 
L 419.681938 260.7225 
Q 417.681938 260.7225 417.681938 262.7225 
L 417.681938 379.1475 
Q 417.681938 381.1475 419.681938 381.1475 
z
" style="fill: #ffffff; opacity: 0.8; stroke: #cccccc; stroke-linejoin: miter"/>
    </g>
    <g id="line2d_35">
     <path d="M 421.681938 268.820937 
L 431.681938 268.820937 
L 441.681938 268.820937 
" style="fill: none; stroke: #1f77b4; stroke-width: 2; stroke-linecap: square"/>
    </g>
    <g id="text_17">
     <!-- 0 días -->
     <g transform="translate(449.681938 272.320937) scale(0.1 -0.1)">
      <use xlink:href="#DejaVuSans-30"/>
      <use xlink:href="#DejaVuSans-20" transform="translate(63.623047 0)"/>
      <use xlink:href="#DejaVuSans-64" transform="translate(95.410156 0)"/>
      <use xlink:href="#DejaVuSans-ed" transform="translate(158.886719 0)"/>
      <use xlink:href="#DejaVuSans-61" transform="translate(186.669922 0)"/>
      <use xlink:href="#DejaVuSans-73" transform="translate(247.949219 0)"/>
     </g>
    </g>
    <g id="line2d_36">
     <path d="M 421.681938 283.499062 
L 431.681938 283.499062 
L 441.681938 283.499062 
" style="fill: none; stroke: #ff7f0e; stroke-width: 2; stroke-linecap: square"/>
    </g>
    <g id="text_18">
     <!-- 1 días -->
     <g transform="translate(449.681938 286.999062) scale(0.1 -0.1)">
      <use xlink:href="#DejaVuSans-31"/>
      <use xlink:href="#DejaVuSans-20" transform="translate(63.623047 0)"/>
      <use xlink:href="#DejaVuSans-64" transform="translate(95.410156 0)"/>
      <use xlink:href="#DejaVuSans-ed" transform="translate(158.886719 0)"/>
      <use xlink:href="#DejaVuSans-61" transform="translate(186.669922 0)"/>
      <use xlink:href="#DejaVuSans-73" transform="translate(247.949219 0)"/>
     </g>
    </g>
    <g id="line2d_37">
     <path d="M 421.681938 298.177187 
L 431.681938 298.177187 
L 441.681938 298.177187 
" style="fill: none; stroke: #2ca02c; stroke-width: 2; stroke-linecap: square"/>
    </g>
    <g id="text_19">
     <!-- 2 días -->
     <g transform="translate(449.681938 301.677187) scale(0.1 -0.1)">
      <use xlink:href="#DejaVuSans-32"/>
      <use xlink:href="#DejaVuSans-20" transform="translate(63.623047 0)"/>
      <use xlink:href="#DejaVuSans-64" transform="translate(95.410156 0)"/>
      <use xlink:href="#DejaVuSans-ed" transform="translate(158.886719 0)"/>
      <use xlink:href="#DejaVuSans-61" transform="translate(186.669922 0)"/>
      <use xlink:href="#DejaVuSans-73" transform="translate(247.949219 0)"/>
     </g>
    </g>
    <g id="line2d_38">
     <path d="M 421.681938 312.855312 
L 431.681938 312.855312 
L 441.681938 312.855312 
" style="fill: none; stroke: #d62728; stroke-width: 2; stroke-linecap: square"/>
    </g>
    <g id="text_20">
     <!-- 3 días -->
     <g transform="translate(449.681938 316.355312) scale(0.1 -0.1)">
      <use xlink:href="#DejaVuSans-33"/>
      <use xlink:href="#DejaVuSans-20" transform="translate(63.623047 0)"/>
      <use xlink:href="#DejaVuSans-64" transform="translate(95.410156 0)"/>
      <use xlink:href="#DejaVuSans-ed" transform="translate(158.886719 0)"/>
      <use xlink:href="#DejaVuSans-61" transform="translate(186.669922 0)"/>
      <use xlink:href="#DejaVuSans-73" transform="translate(247.949219 0)"/>
     </g>
    </g>
    <g id="line2d_39">
     <path d="M 421.681938 327.533437 
L 431.681938 327.533437 
L 441.681938 327.533437 
" style="fill: none; stroke: #9467bd; stroke-width: 2; stroke-linecap: square"/>
    </g>
    <g id="text_21">
     <!-- 4 días -->
     <g transform="translate(449.681938 331.033437) scale(0.1 -0.1)">
      <use xlink:href="#DejaVuSans-34"/>
      <use xlink:href="#DejaVuSans-20" transform="translate(63.623047 0)"/>
      <use xlink:href="#DejaVuSans-64" transform="translate(95.410156 0)"/>
      <use xlink:href="#DejaVuSans-ed" transform="translate(158.886719 0)"/>
      <use xlink:href="#DejaVuSans-61" transform="translate(186.669922 0)"/>
      <use xlink:href="#DejaVuSans-73" transform="translate(247.949219 0)"/>
     </g>
    </g>
    <g id="line2d_40">
     <path d="M 421.681938 342.211562 
L 431.681938 342.211562 
L 441.681938 342.211562 
" style="fill: none; stroke: #8c564b; stroke-width: 2; stroke-linecap: square"/>
    </g>
    <g id="text_22">
     <!-- 5 días -->
     <g transform="translate(449.681938 345.711562) scale(0.1 -0.1)">
      <use xlink:href="#DejaVuSans-35"/>
      <use xlink:href="#DejaVuSans-20" transform="translate(63.623047 0)"/>
      <use xlink:href="#DejaVuSans-64" transform="translate(95.410156 0)"/>
      <use xlink:href="#DejaVuSans-ed" transform="translate(158.886719 0)"/>
      <use xlink:href="#DejaVuSans-61" transform="translate(186.669922 0)"/>
      <use xlink:href="#DejaVuSans-73" transform="translate(247.949219 0)"/>
     </g>
    </g>
    <g id="line2d_41">
     <path d="M 421.681938 356.889687 
L 431.681938 356.889687 
L 441.681938 356.889687 
" style="fill: none; stroke: #e377c2; stroke-width: 2; stroke-linecap: square"/>
    </g>
    <g id="text_23">
     <!-- 6 días -->
     <g transform="translate(449.681938 360.389687) scale(0.1 -0.1)">
      <use xlink:href="#DejaVuSans-36"/>
      <use xlink:href="#DejaVuSans-20" transform="translate(63.623047 0)"/>
      <use xlink:href="#DejaVuSans-64" transform="translate(95.410156 0)"/>
      <use xlink:href="#DejaVuSans-ed" transform="translate(158.886719 0)"/>
      <use xlink:href="#DejaVuSans-61" transform="translate(186.669922 0)"/>
      <use xlink:href="#DejaVuSans-73" transform="translate(247.949219 0)"/>
     </g>
    </g>
    <g id="line2d_42">
     <path d="M 421.681938 371.567812 
L 431.681938 371.567812 
L 441.681938 371.567812 
" style="fill: none; stroke: #7f7f7f; stroke-width: 2; stroke-linecap: square"/>
    </g>
    <g id="text_24">
     <!-- 7 días -->
     <g transform="translate(449.681938 375.067812) scale(0.1 -0.1)">
      <use xlink:href="#DejaVuSans-37"/>
      <use xlink:href="#DejaVuSans-20" transform="translate(63.623047 0)"/>
      <use xlink:href="#DejaVuSans-64" transform="translate(95.410156 0)"/>
      <use xlink:href="#DejaVuSans-ed" transform="translate(158.886719 0)"/>
      <use xlink:href="#DejaVuSans-61" transform="translate(186.669922 0)"/>
      <use xlink:href="#DejaVuSans-73" transform="translate(247.949219 0)"/>
     </g>
    </g>
   </g>
  </g>
 </g>
 <defs>
  <clipPath id="p37e47367b6">
   <rect x="60.180625" y="36.2355" width="428.506" height="349.912"/>
  </clipPath>
 </defs>
</svg>
