<?xml version="1.0" encoding="utf-8" standalone="no"?>
<!DOCTYPE svg PUBLIC "-//W3C//DTD SVG 1.1//EN"
  "http://www.w3.org/Graphics/SVG/1.1/DTD/svg11.dtd">
<svg xmlns:xlink="http://www.w3.org/1999/xlink" width="495.873187pt" height="422.88325pt" viewBox="0 0 495.873187 422.88325" xmlns="http://www.w3.org/2000/svg" version="1.1">
 <metadata>
  <rdf:RDF xmlns:dc="http://purl.org/dc/elements/1.1/" xmlns:cc="http://creativecommons.org/ns#" xmlns:rdf="http://www.w3.org/1999/02/22-rdf-syntax-ns#">
   <cc:Work>
    <dc:type rdf:resource="http://purl.org/dc/dcmitype/StillImage"/>
    <dc:date>2025-12-09T03:25:12.282092</dc:date>
    <dc:format>image/svg+xml</dc:format>
    <dc:creator>
     <cc:Agent>
      <dc:title>Matplotlib v3.10.0, https://matplotlib.org/</dc:title>
     </cc:Agent>
    </dc:creator>
   </cc:Work>
  </rdf:RDF>
 </metadata>
 <defs>
  <style type="text/css">*{stroke-linejoin: round; stroke-linecap: butt}</style>
 </defs>
 <g id="figure_1">
  <g id="patch_1">
   <path d="M 0 422.88325 
L 495.873187 422.88325 
L 495.873187 0 
L 0 0 
z
" style="fill: #ffffff"/>
  </g>
  <g id="axes_1">
   <g id="patch_2">
    <path d="M 60.180625 385.327 
L 480.721625 385.327 
L 480.721625 36.56925 
L 60.180625 36.56925 
z
" style="fill: #ffffff"/>
   </g>
   <g id="matplotlib.axis_1">
    <g id="xtick_1">
     <g id="line2d_1">
      <path d="M 60.180625 385.327 
L 60.180625 36.56925 
" clip-path="url(#p6d21bf318c)" style="fill: none; stroke: #b0b0b0; stroke-width: 0.8; stroke-linecap: square"/>
     </g>
     <g id="line2d_2">
      <defs>
       <path id="m2bf5286760" d="M 0 0 
L 0 3.5 
" style="stroke: #000000; stroke-width: 0.8"/>
      </defs>
      <g>
       <use xlink:href="#m2bf5286760" x="60.180625" y="385.327" style="stroke: #000000; stroke-width: 0.8"/>
      </g>
     </g>
     <g id="text_1">
      <!-- 0.0 -->
      <g transform="translate(52.229062 399.925437) scale(0.1 -0.1)">
       <defs>
        <path id="DejaVuSans-30" d="M 2034 4250 
Q 1547 4250 1301 3770 
Q 1056 3291 1056 2328 
Q 1056 1369 1301 889 
Q 1547 409 2034 409 
Q 2525 409 2770 889 
Q 3016 1369 3016 2328 
Q 3016 3291 2770 3770 
Q 2525 4250 2034 4250 
z
M 2034 4750 
Q 2819 4750 3233 4129 
Q 3647 3509 3647 2328 
Q 3647 1150 3233 529 
Q 2819 -91 2034 -91 
Q 1250 -91 836 529 
Q 422 1150 422 2328 
Q 422 3509 836 4129 
Q 1250 4750 2034 4750 
z
" transform="scale(0.015625)"/>
        <path id="DejaVuSans-2e" d="M 684 794 
L 1344 794 
L 1344 0 
L 684 0 
L 684 794 
z
" transform="scale(0.015625)"/>
       </defs>
       <use xlink:href="#DejaVuSans-30"/>
       <use xlink:href="#DejaVuSans-2e" transform="translate(63.623047 0)"/>
       <use xlink:href="#DejaVuSans-30" transform="translate(95.410156 0)"/>
      </g>
     </g>
    </g>
    <g id="xtick_2">
     <g id="line2d_3">
      <path d="M 144.288825 385.327 
L 144.288825 36.56925 
" clip-path="url(#p6d21bf318c)" style="fill: none; stroke: #b0b0b0; stroke-width: 0.8; stroke-linecap: square"/>
     </g>
     <g id="line2d_4">
      <g>
       <use xlink:href="#m2bf5286760" x="144.288825" y="385.327" style="stroke: #000000; stroke-width: 0.8"/>
      </g>
     </g>
     <g id="text_2">
      <!-- 0.2 -->
      <g transform="translate(136.337263 399.925437) scale(0.1 -0.1)">
       <defs>
        <path id="DejaVuSans-32" d="M 1228 531 
L 3431 531 
L 3431 0 
L 469 0 
L 469 531 
Q 828 903 1448 1529 
Q 2069 2156 2228 2338 
Q 2531 2678 2651 2914 
Q 2772 3150 2772 3378 
Q 2772 3750 2511 3984 
Q 2250 4219 1831 4219 
Q 1534 4219 1204 4116 
Q 875 4013 500 3803 
L 500 4441 
Q 881 4594 1212 4672 
Q 1544 4750 1819 4750 
Q 2544 4750 2975 4387 
Q 3406 4025 3406 3419 
Q 3406 3131 3298 2873 
Q 3191 2616 2906 2266 
Q 2828 2175 2409 1742 
Q 1991 1309 1228 531 
z
" transform="scale(0.015625)"/>
       </defs>
       <use xlink:href="#DejaVuSans-30"/>
       <use xlink:href="#DejaVuSans-2e" transform="translate(63.623047 0)"/>
       <use xlink:href="#DejaVuSans-32" transform="translate(95.410156 0)"/>
      </g>
     </g>
    </g>
    <g id="xtick_3">
     <g id="line2d_5">
      <path d="M 228.397025 385.327 
L 228.397025 36.56925 
" clip-path="url(#p6d21bf318c)" style="fill: none; stroke: #b0b0b0; stroke-width: 0.8; stroke-linecap: square"/>
     </g>
     <g id="line2d_6">
      <g>
       <use xlink:href="#m2bf5286760" x="228.397025" y="385.327" style="stroke: #000000; stroke-width: 0.8"/>
      </g>
     </g>
     <g id="text_3">
      <!-- 0.4 -->
      <g transform="translate(220.445463 399.925437) scale(0.1 -0.1)">
       <defs>
        <path id="DejaVuSans-34" d="M 2419 4116 
L 825 1625 
L 2419 1625 
L 2419 4116 
z
M 2253 4666 
L 3047 4666 
L 3047 1625 
L 3713 1625 
L 3713 1100 
L 3047 1100 
L 3047 0 
L 2419 0 
L 2419 1100 
L 313 1100 
L 313 1709 
L 2253 4666 
z
" transform="scale(0.015625)"/>
       </defs>
       <use xlink:href="#DejaVuSans-30"/>
       <use xlink:href="#DejaVuSans-2e" transform="translate(63.623047 0)"/>
       <use xlink:href="#DejaVuSans-34" transform="translate(95.410156 0)"/>
      </g>
     </g>
    </g>
    <g id="xtick_4">
     <g id="line2d_7">
      <path d="M 312.505225 385.327 
L 312.505225 36.56925 
" clip-path="url(#p6d21bf318c)" style="fill: none; stroke: #b0b0b0; stroke-width: 0.8; stroke-linecap: square"/>
     </g>
     <g id="line2d_8">
      <g>
       <use xlink:href="#m2bf5286760" x="312.505225" y="385.327" style="stroke: #000000; stroke-width: 0.8"/>
      </g>
     </g>
     <g id="text_4">
      <!-- 0.6 -->
      <g transform="translate(304.553663 399.925437) scale(0.1 -0.1)">
       <defs>
        <path id="DejaVuSans-36" d="M 2113 2584 
Q 1688 2584 1439 2293 
Q 1191 2003 1191 1497 
Q 1191 994 1439 701 
Q 1688 409 2113 409 
Q 2538 409 2786 701 
Q 3034 994 3034 1497 
Q 3034 2003 2786 2293 
Q 2538 2584 2113 2584 
z
M 3366 4563 
L 3366 3988 
Q 3128 4100 2886 4159 
Q 2644 4219 2406 4219 
Q 1781 4219 1451 3797 
Q 1122 3375 1075 2522 
Q 1259 2794 1537 2939 
Q 1816 3084 2150 3084 
Q 2853 3084 3261 2657 
Q 3669 2231 3669 1497 
Q 3669 778 3244 343 
Q 2819 -91 2113 -91 
Q 1303 -91 875 529 
Q 447 1150 447 2328 
Q 447 3434 972 4092 
Q 1497 4750 2381 4750 
Q 2619 4750 2861 4703 
Q 3103 4656 3366 4563 
z
" transform="scale(0.015625)"/>
       </defs>
       <use xlink:href="#DejaVuSans-30"/>
       <use xlink:href="#DejaVuSans-2e" transform="translate(63.623047 0)"/>
       <use xlink:href="#DejaVuSans-36" transform="translate(95.410156 0)"/>
      </g>
     </g>
    </g>
    <g id="xtick_5">
     <g id="line2d_9">
      <path d="M 396.613425 385.327 
L 396.613425 36.56925 
" clip-path="url(#p6d21bf318c)" style="fill: none; stroke: #b0b0b0; stroke-width: 0.8; stroke-linecap: square"/>
     </g>
     <g id="line2d_10">
      <g>
       <use xlink:href="#m2bf5286760" x="396.613425" y="385.327" style="stroke: #000000; stroke-width: 0.8"/>
      </g>
     </g>
     <g id="text_5">
      <!-- 0.8 -->
      <g transform="translate(388.661863 399.925437) scale(0.1 -0.1)">
       <defs>
        <path id="DejaVuSans-38" d="M 2034 2216 
Q 1584 2216 1326 1975 
Q 1069 1734 1069 1313 
Q 1069 891 1326 650 
Q 1584 409 2034 409 
Q 2484 409 2743 651 
Q 3003 894 3003 1313 
Q 3003 1734 2745 1975 
Q 2488 2216 2034 2216 
z
M 1403 2484 
Q 997 2584 770 2862 
Q 544 3141 544 3541 
Q 544 4100 942 4425 
Q 1341 4750 2034 4750 
Q 2731 4750 3128 4425 
Q 3525 4100 3525 3541 
Q 3525 3141 3298 2862 
Q 3072 2584 2669 2484 
Q 3125 2378 3379 2068 
Q 3634 1759 3634 1313 
Q 3634 634 3220 271 
Q 2806 -91 2034 -91 
Q 1263 -91 848 271 
Q 434 634 434 1313 
Q 434 1759 690 2068 
Q 947 2378 1403 2484 
z
M 1172 3481 
Q 1172 3119 1398 2916 
Q 1625 2713 2034 2713 
Q 2441 2713 2670 2916 
Q 2900 3119 2900 3481 
Q 2900 3844 2670 4047 
Q 2441 4250 2034 4250 
Q 1625 4250 1398 4047 
Q 1172 3844 1172 3481 
z
" transform="scale(0.015625)"/>
       </defs>
       <use xlink:href="#DejaVuSans-30"/>
       <use xlink:href="#DejaVuSans-2e" transform="translate(63.623047 0)"/>
       <use xlink:href="#DejaVuSans-38" transform="translate(95.410156 0)"/>
      </g>
     </g>
    </g>
    <g id="xtick_6">
     <g id="line2d_11">
      <path d="M 480.721625 385.327 
L 480.721625 36.56925 
" clip-path="url(#p6d21bf318c)" style="fill: none; stroke: #b0b0b0; stroke-width: 0.8; stroke-linecap: square"/>
     </g>
     <g id="line2d_12">
      <g>
       <use xlink:href="#m2bf5286760" x="480.721625" y="385.327" style="stroke: #000000; stroke-width: 0.8"/>
      </g>
     </g>
     <g id="text_6">
      <!-- 1.0 -->
      <g transform="translate(472.770062 399.925437) scale(0.1 -0.1)">
       <defs>
        <path id="DejaVuSans-31" d="M 794 531 
L 1825 531 
L 1825 4091 
L 703 3866 
L 703 4441 
L 1819 4666 
L 2450 4666 
L 2450 531 
L 3481 531 
L 3481 0 
L 794 0 
L 794 531 
z
" transform="scale(0.015625)"/>
       </defs>
       <use xlink:href="#DejaVuSans-31"/>
       <use xlink:href="#DejaVuSans-2e" transform="translate(63.623047 0)"/>
       <use xlink:href="#DejaVuSans-30" transform="translate(95.410156 0)"/>
      </g>
     </g>
    </g>
    <g id="text_7">
     <!-- $C/C_0$  -->
     <g transform="translate(257.801125 413.603562) scale(0.1 -0.1)">
      <defs>
       <path id="DejaVuSans-Oblique-43" d="M 4447 4306 
L 4319 3641 
Q 4019 3944 3683 4091 
Q 3347 4238 2956 4238 
Q 2422 4238 2017 3981 
Q 1613 3725 1319 3200 
Q 1131 2863 1032 2486 
Q 934 2109 934 1728 
Q 934 1091 1264 756 
Q 1594 422 2222 422 
Q 2656 422 3056 561 
Q 3456 700 3834 978 
L 3688 231 
Q 3316 72 2936 -9 
Q 2556 -91 2175 -91 
Q 1278 -91 773 396 
Q 269 884 269 1753 
Q 269 2309 461 2846 
Q 653 3384 1013 3828 
Q 1394 4300 1883 4525 
Q 2372 4750 3022 4750 
Q 3422 4750 3780 4639 
Q 4138 4528 4447 4306 
z
" transform="scale(0.015625)"/>
       <path id="DejaVuSans-2f" d="M 1625 4666 
L 2156 4666 
L 531 -594 
L 0 -594 
L 1625 4666 
z
" transform="scale(0.015625)"/>
       <path id="DejaVuSans-20" transform="scale(0.015625)"/>
      </defs>
      <use xlink:href="#DejaVuSans-Oblique-43" transform="translate(0 0.78125)"/>
      <use xlink:href="#DejaVuSans-2f" transform="translate(69.824219 0.78125)"/>
      <use xlink:href="#DejaVuSans-Oblique-43" transform="translate(103.515625 0.78125)"/>
      <use xlink:href="#DejaVuSans-30" transform="translate(173.339844 -15.625) scale(0.7)"/>
      <use xlink:href="#DejaVuSans-20" transform="translate(220.610352 0.78125)"/>
     </g>
    </g>
   </g>
   <g id="matplotlib.axis_2">
    <g id="ytick_1">
     <g id="line2d_13">
      <path d="M 60.180625 385.327 
L 480.721625 385.327 
" clip-path="url(#p6d21bf318c)" style="fill: none; stroke: #b0b0b0; stroke-width: 0.8; stroke-linecap: square"/>
     </g>
     <g id="line2d_14">
      <defs>
       <path id="m43a9b333b9" d="M 0 0 
L -3.5 0 
" style="stroke: #000000; stroke-width: 0.8"/>
      </defs>
      <g>
       <use xlink:href="#m43a9b333b9" x="60.180625" y="385.327" style="stroke: #000000; stroke-width: 0.8"/>
      </g>
     </g>
     <g id="text_8">
      <!-- −70 -->
      <g transform="translate(32.075937 389.126219) scale(0.1 -0.1)">
       <defs>
        <path id="DejaVuSans-2212" d="M 678 2272 
L 4684 2272 
L 4684 1741 
L 678 1741 
L 678 2272 
z
" transform="scale(0.015625)"/>
        <path id="DejaVuSans-37" d="M 525 4666 
L 3525 4666 
L 3525 4397 
L 1831 0 
L 1172 0 
L 2766 4134 
L 525 4134 
L 525 4666 
z
" transform="scale(0.015625)"/>
       </defs>
       <use xlink:href="#DejaVuSans-2212"/>
       <use xlink:href="#DejaVuSans-37" transform="translate(83.789062 0)"/>
       <use xlink:href="#DejaVuSans-30" transform="translate(147.412109 0)"/>
      </g>
     </g>
    </g>
    <g id="ytick_2">
     <g id="line2d_15">
      <path d="M 60.180625 335.504464 
L 480.721625 335.504464 
" clip-path="url(#p6d21bf318c)" style="fill: none; stroke: #b0b0b0; stroke-width: 0.8; stroke-linecap: square"/>
     </g>
     <g id="line2d_16">
      <g>
       <use xlink:href="#m43a9b333b9" x="60.180625" y="335.504464" style="stroke: #000000; stroke-width: 0.8"/>
      </g>
     </g>
     <g id="text_9">
      <!-- −60 -->
      <g transform="translate(32.075937 339.303683) scale(0.1 -0.1)">
       <use xlink:href="#DejaVuSans-2212"/>
       <use xlink:href="#DejaVuSans-36" transform="translate(83.789062 0)"/>
       <use xlink:href="#DejaVuSans-30" transform="translate(147.412109 0)"/>
      </g>
     </g>
    </g>
    <g id="ytick_3">
     <g id="line2d_17">
      <path d="M 60.180625 285.681929 
L 480.721625 285.681929 
" clip-path="url(#p6d21bf318c)" style="fill: none; stroke: #b0b0b0; stroke-width: 0.8; stroke-linecap: square"/>
     </g>
     <g id="line2d_18">
      <g>
       <use xlink:href="#m43a9b333b9" x="60.180625" y="285.681929" style="stroke: #000000; stroke-width: 0.8"/>
      </g>
     </g>
     <g id="text_10">
      <!-- −50 -->
      <g transform="translate(32.075937 289.481147) scale(0.1 -0.1)">
       <defs>
        <path id="DejaVuSans-35" d="M 691 4666 
L 3169 4666 
L 3169 4134 
L 1269 4134 
L 1269 2991 
Q 1406 3038 1543 3061 
Q 1681 3084 1819 3084 
Q 2600 3084 3056 2656 
Q 3513 2228 3513 1497 
Q 3513 744 3044 326 
Q 2575 -91 1722 -91 
Q 1428 -91 1123 -41 
Q 819 9 494 109 
L 494 744 
Q 775 591 1075 516 
Q 1375 441 1709 441 
Q 2250 441 2565 725 
Q 2881 1009 2881 1497 
Q 2881 1984 2565 2268 
Q 2250 2553 1709 2553 
Q 1456 2553 1204 2497 
Q 953 2441 691 2322 
L 691 4666 
z
" transform="scale(0.015625)"/>
       </defs>
       <use xlink:href="#DejaVuSans-2212"/>
       <use xlink:href="#DejaVuSans-35" transform="translate(83.789062 0)"/>
       <use xlink:href="#DejaVuSans-30" transform="translate(147.412109 0)"/>
      </g>
     </g>
    </g>
    <g id="ytick_4">
     <g id="line2d_19">
      <path d="M 60.180625 235.859393 
L 480.721625 235.859393 
" clip-path="url(#p6d21bf318c)" style="fill: none; stroke: #b0b0b0; stroke-width: 0.8; stroke-linecap: square"/>
     </g>
     <g id="line2d_20">
      <g>
       <use xlink:href="#m43a9b333b9" x="60.180625" y="235.859393" style="stroke: #000000; stroke-width: 0.8"/>
      </g>
     </g>
     <g id="text_11">
      <!-- −40 -->
      <g transform="translate(32.075937 239.658612) scale(0.1 -0.1)">
       <use xlink:href="#DejaVuSans-2212"/>
       <use xlink:href="#DejaVuSans-34" transform="translate(83.789062 0)"/>
       <use xlink:href="#DejaVuSans-30" transform="translate(147.412109 0)"/>
      </g>
     </g>
    </g>
    <g id="ytick_5">
     <g id="line2d_21">
      <path d="M 60.180625 186.036857 
L 480.721625 186.036857 
" clip-path="url(#p6d21bf318c)" style="fill: none; stroke: #b0b0b0; stroke-width: 0.8; stroke-linecap: square"/>
     </g>
     <g id="line2d_22">
      <g>
       <use xlink:href="#m43a9b333b9" x="60.180625" y="186.036857" style="stroke: #000000; stroke-width: 0.8"/>
      </g>
     </g>
     <g id="text_12">
      <!-- −30 -->
      <g transform="translate(32.075937 189.836076) scale(0.1 -0.1)">
       <defs>
        <path id="DejaVuSans-33" d="M 2597 2516 
Q 3050 2419 3304 2112 
Q 3559 1806 3559 1356 
Q 3559 666 3084 287 
Q 2609 -91 1734 -91 
Q 1441 -91 1130 -33 
Q 819 25 488 141 
L 488 750 
Q 750 597 1062 519 
Q 1375 441 1716 441 
Q 2309 441 2620 675 
Q 2931 909 2931 1356 
Q 2931 1769 2642 2001 
Q 2353 2234 1838 2234 
L 1294 2234 
L 1294 2753 
L 1863 2753 
Q 2328 2753 2575 2939 
Q 2822 3125 2822 3475 
Q 2822 3834 2567 4026 
Q 2313 4219 1838 4219 
Q 1578 4219 1281 4162 
Q 984 4106 628 3988 
L 628 4550 
Q 988 4650 1302 4700 
Q 1616 4750 1894 4750 
Q 2613 4750 3031 4423 
Q 3450 4097 3450 3541 
Q 3450 3153 3228 2886 
Q 3006 2619 2597 2516 
z
" transform="scale(0.015625)"/>
       </defs>
       <use xlink:href="#DejaVuSans-2212"/>
       <use xlink:href="#DejaVuSans-33" transform="translate(83.789062 0)"/>
       <use xlink:href="#DejaVuSans-30" transform="translate(147.412109 0)"/>
      </g>
     </g>
    </g>
    <g id="ytick_6">
     <g id="line2d_23">
      <path d="M 60.180625 136.214321 
L 480.721625 136.214321 
" clip-path="url(#p6d21bf318c)" style="fill: none; stroke: #b0b0b0; stroke-width: 0.8; stroke-linecap: square"/>
     </g>
     <g id="line2d_24">
      <g>
       <use xlink:href="#m43a9b333b9" x="60.180625" y="136.214321" style="stroke: #000000; stroke-width: 0.8"/>
      </g>
     </g>
     <g id="text_13">
      <!-- −20 -->
      <g transform="translate(32.075937 140.01354) scale(0.1 -0.1)">
       <use xlink:href="#DejaVuSans-2212"/>
       <use xlink:href="#DejaVuSans-32" transform="translate(83.789062 0)"/>
       <use xlink:href="#DejaVuSans-30" transform="translate(147.412109 0)"/>
      </g>
     </g>
    </g>
    <g id="ytick_7">
     <g id="line2d_25">
      <path d="M 60.180625 86.391786 
L 480.721625 86.391786 
" clip-path="url(#p6d21bf318c)" style="fill: none; stroke: #b0b0b0; stroke-width: 0.8; stroke-linecap: square"/>
     </g>
     <g id="line2d_26">
      <g>
       <use xlink:href="#m43a9b333b9" x="60.180625" y="86.391786" style="stroke: #000000; stroke-width: 0.8"/>
      </g>
     </g>
     <g id="text_14">
      <!-- −10 -->
      <g transform="translate(32.075937 90.191004) scale(0.1 -0.1)">
       <use xlink:href="#DejaVuSans-2212"/>
       <use xlink:href="#DejaVuSans-31" transform="translate(83.789062 0)"/>
       <use xlink:href="#DejaVuSans-30" transform="translate(147.412109 0)"/>
      </g>
     </g>
    </g>
    <g id="ytick_8">
     <g id="line2d_27">
      <path d="M 60.180625 36.56925 
L 480.721625 36.56925 
" clip-path="url(#p6d21bf318c)" style="fill: none; stroke: #b0b0b0; stroke-width: 0.8; stroke-linecap: square"/>
     </g>
     <g id="line2d_28">
      <g>
       <use xlink:href="#m43a9b333b9" x="60.180625" y="36.56925" style="stroke: #000000; stroke-width: 0.8"/>
      </g>
     </g>
     <g id="text_15">
      <!-- 0 -->
      <g transform="translate(46.818125 40.368469) scale(0.1 -0.1)">
       <use xlink:href="#DejaVuSans-30"/>
      </g>
     </g>
    </g>
    <g id="text_16">
     <!-- Profundidad (cm) -->
     <g transform="translate(14.798437 254.061406) rotate(-90) scale(0.1 -0.1)">
      <defs>
       <path id="DejaVuSans-50" d="M 1259 4147 
L 1259 2394 
L 2053 2394 
Q 2494 2394 2734 2622 
Q 2975 2850 2975 3272 
Q 2975 3691 2734 3919 
Q 2494 4147 2053 4147 
L 1259 4147 
z
M 628 4666 
L 2053 4666 
Q 2838 4666 3239 4311 
Q 3641 3956 3641 3272 
Q 3641 2581 3239 2228 
Q 2838 1875 2053 1875 
L 1259 1875 
L 1259 0 
L 628 0 
L 628 4666 
z
" transform="scale(0.015625)"/>
       <path id="DejaVuSans-72" d="M 2631 2963 
Q 2534 3019 2420 3045 
Q 2306 3072 2169 3072 
Q 1681 3072 1420 2755 
Q 1159 2438 1159 1844 
L 1159 0 
L 581 0 
L 581 3500 
L 1159 3500 
L 1159 2956 
Q 1341 3275 1631 3429 
Q 1922 3584 2338 3584 
Q 2397 3584 2469 3576 
Q 2541 3569 2628 3553 
L 2631 2963 
z
" transform="scale(0.015625)"/>
       <path id="DejaVuSans-6f" d="M 1959 3097 
Q 1497 3097 1228 2736 
Q 959 2375 959 1747 
Q 959 1119 1226 758 
Q 1494 397 1959 397 
Q 2419 397 2687 759 
Q 2956 1122 2956 1747 
Q 2956 2369 2687 2733 
Q 2419 3097 1959 3097 
z
M 1959 3584 
Q 2709 3584 3137 3096 
Q 3566 2609 3566 1747 
Q 3566 888 3137 398 
Q 2709 -91 1959 -91 
Q 1206 -91 779 398 
Q 353 888 353 1747 
Q 353 2609 779 3096 
Q 1206 3584 1959 3584 
z
" transform="scale(0.015625)"/>
       <path id="DejaVuSans-66" d="M 2375 4863 
L 2375 4384 
L 1825 4384 
Q 1516 4384 1395 4259 
Q 1275 4134 1275 3809 
L 1275 3500 
L 2222 3500 
L 2222 3053 
L 1275 3053 
L 1275 0 
L 697 0 
L 697 3053 
L 147 3053 
L 147 3500 
L 697 3500 
L 697 3744 
Q 697 4328 969 4595 
Q 1241 4863 1831 4863 
L 2375 4863 
z
" transform="scale(0.015625)"/>
       <path id="DejaVuSans-75" d="M 544 1381 
L 544 3500 
L 1119 3500 
L 1119 1403 
Q 1119 906 1312 657 
Q 1506 409 1894 409 
Q 2359 409 2629 706 
Q 2900 1003 2900 1516 
L 2900 3500 
L 3475 3500 
L 3475 0 
L 2900 0 
L 2900 538 
Q 2691 219 2414 64 
Q 2138 -91 1772 -91 
Q 1169 -91 856 284 
Q 544 659 544 1381 
z
M 1991 3584 
L 1991 3584 
z
" transform="scale(0.015625)"/>
       <path id="DejaVuSans-6e" d="M 3513 2113 
L 3513 0 
L 2938 0 
L 2938 2094 
Q 2938 2591 2744 2837 
Q 2550 3084 2163 3084 
Q 1697 3084 1428 2787 
Q 1159 2491 1159 1978 
L 1159 0 
L 581 0 
L 581 3500 
L 1159 3500 
L 1159 2956 
Q 1366 3272 1645 3428 
Q 1925 3584 2291 3584 
Q 2894 3584 3203 3211 
Q 3513 2838 3513 2113 
z
" transform="scale(0.015625)"/>
       <path id="DejaVuSans-64" d="M 2906 2969 
L 2906 4863 
L 3481 4863 
L 3481 0 
L 2906 0 
L 2906 525 
Q 2725 213 2448 61 
Q 2172 -91 1784 -91 
Q 1150 -91 751 415 
Q 353 922 353 1747 
Q 353 2572 751 3078 
Q 1150 3584 1784 3584 
Q 2172 3584 2448 3432 
Q 2725 3281 2906 2969 
z
M 947 1747 
Q 947 1113 1208 752 
Q 1469 391 1925 391 
Q 2381 391 2643 752 
Q 2906 1113 2906 1747 
Q 2906 2381 2643 2742 
Q 2381 3103 1925 3103 
Q 1469 3103 1208 2742 
Q 947 2381 947 1747 
z
" transform="scale(0.015625)"/>
       <path id="DejaVuSans-69" d="M 603 3500 
L 1178 3500 
L 1178 0 
L 603 0 
L 603 3500 
z
M 603 4863 
L 1178 4863 
L 1178 4134 
L 603 4134 
L 603 4863 
z
" transform="scale(0.015625)"/>
       <path id="DejaVuSans-61" d="M 2194 1759 
Q 1497 1759 1228 1600 
Q 959 1441 959 1056 
Q 959 750 1161 570 
Q 1363 391 1709 391 
Q 2188 391 2477 730 
Q 2766 1069 2766 1631 
L 2766 1759 
L 2194 1759 
z
M 3341 1997 
L 3341 0 
L 2766 0 
L 2766 531 
Q 2569 213 2275 61 
Q 1981 -91 1556 -91 
Q 1019 -91 701 211 
Q 384 513 384 1019 
Q 384 1609 779 1909 
Q 1175 2209 1959 2209 
L 2766 2209 
L 2766 2266 
Q 2766 2663 2505 2880 
Q 2244 3097 1772 3097 
Q 1472 3097 1187 3025 
Q 903 2953 641 2809 
L 641 3341 
Q 956 3463 1253 3523 
Q 1550 3584 1831 3584 
Q 2591 3584 2966 3190 
Q 3341 2797 3341 1997 
z
" transform="scale(0.015625)"/>
       <path id="DejaVuSans-28" d="M 1984 4856 
Q 1566 4138 1362 3434 
Q 1159 2731 1159 2009 
Q 1159 1288 1364 580 
Q 1569 -128 1984 -844 
L 1484 -844 
Q 1016 -109 783 600 
Q 550 1309 550 2009 
Q 550 2706 781 3412 
Q 1013 4119 1484 4856 
L 1984 4856 
z
" transform="scale(0.015625)"/>
       <path id="DejaVuSans-63" d="M 3122 3366 
L 3122 2828 
Q 2878 2963 2633 3030 
Q 2388 3097 2138 3097 
Q 1578 3097 1268 2742 
Q 959 2388 959 1747 
Q 959 1106 1268 751 
Q 1578 397 2138 397 
Q 2388 397 2633 464 
Q 2878 531 3122 666 
L 3122 134 
Q 2881 22 2623 -34 
Q 2366 -91 2075 -91 
Q 1284 -91 818 406 
Q 353 903 353 1747 
Q 353 2603 823 3093 
Q 1294 3584 2113 3584 
Q 2378 3584 2631 3529 
Q 2884 3475 3122 3366 
z
" transform="scale(0.015625)"/>
       <path id="DejaVuSans-6d" d="M 3328 2828 
Q 3544 3216 3844 3400 
Q 4144 3584 4550 3584 
Q 5097 3584 5394 3201 
Q 5691 2819 5691 2113 
L 5691 0 
L 5113 0 
L 5113 2094 
Q 5113 2597 4934 2840 
Q 4756 3084 4391 3084 
Q 3944 3084 3684 2787 
Q 3425 2491 3425 1978 
L 3425 0 
L 2847 0 
L 2847 2094 
Q 2847 2600 2669 2842 
Q 2491 3084 2119 3084 
Q 1678 3084 1418 2786 
Q 1159 2488 1159 1978 
L 1159 0 
L 581 0 
L 581 3500 
L 1159 3500 
L 1159 2956 
Q 1356 3278 1631 3431 
Q 1906 3584 2284 3584 
Q 2666 3584 2933 3390 
Q 3200 3197 3328 2828 
z
" transform="scale(0.015625)"/>
       <path id="DejaVuSans-29" d="M 513 4856 
L 1013 4856 
Q 1481 4119 1714 3412 
Q 1947 2706 1947 2009 
Q 1947 1309 1714 600 
Q 1481 -109 1013 -844 
L 513 -844 
Q 928 -128 1133 580 
Q 1338 1288 1338 2009 
Q 1338 2731 1133 3434 
Q 928 4138 513 4856 
z
" transform="scale(0.015625)"/>
      </defs>
      <use xlink:href="#DejaVuSans-50"/>
      <use xlink:href="#DejaVuSans-72" transform="translate(58.552734 0)"/>
      <use xlink:href="#DejaVuSans-6f" transform="translate(97.416016 0)"/>
      <use xlink:href="#DejaVuSans-66" transform="translate(158.597656 0)"/>
      <use xlink:href="#DejaVuSans-75" transform="translate(193.802734 0)"/>
      <use xlink:href="#DejaVuSans-6e" transform="translate(257.181641 0)"/>
      <use xlink:href="#DejaVuSans-64" transform="translate(320.560547 0)"/>
      <use xlink:href="#DejaVuSans-69" transform="translate(384.037109 0)"/>
      <use xlink:href="#DejaVuSans-64" transform="translate(411.820312 0)"/>
      <use xlink:href="#DejaVuSans-61" transform="translate(475.296875 0)"/>
      <use xlink:href="#DejaVuSans-64" transform="translate(536.576172 0)"/>
      <use xlink:href="#DejaVuSans-20" transform="translate(600.052734 0)"/>
      <use xlink:href="#DejaVuSans-28" transform="translate(631.839844 0)"/>
      <use xlink:href="#DejaVuSans-63" transform="translate(670.853516 0)"/>
      <use xlink:href="#DejaVuSans-6d" transform="translate(725.833984 0)"/>
      <use xlink:href="#DejaVuSans-29" transform="translate(823.246094 0)"/>
     </g>
     <!-- (0=superficie, -L=fondo) -->
     <g transform="translate(25.99625 272.844219) rotate(-90) scale(0.1 -0.1)">
      <defs>
       <path id="DejaVuSans-3d" d="M 678 2906 
L 4684 2906 
L 4684 2381 
L 678 2381 
L 678 2906 
z
M 678 1631 
L 4684 1631 
L 4684 1100 
L 678 1100 
L 678 1631 
z
" transform="scale(0.015625)"/>
       <path id="DejaVuSans-73" d="M 2834 3397 
L 2834 2853 
Q 2591 2978 2328 3040 
Q 2066 3103 1784 3103 
Q 1356 3103 1142 2972 
Q 928 2841 928 2578 
Q 928 2378 1081 2264 
Q 1234 2150 1697 2047 
L 1894 2003 
Q 2506 1872 2764 1633 
Q 3022 1394 3022 966 
Q 3022 478 2636 193 
Q 2250 -91 1575 -91 
Q 1294 -91 989 -36 
Q 684 19 347 128 
L 347 722 
Q 666 556 975 473 
Q 1284 391 1588 391 
Q 1994 391 2212 530 
Q 2431 669 2431 922 
Q 2431 1156 2273 1281 
Q 2116 1406 1581 1522 
L 1381 1569 
Q 847 1681 609 1914 
Q 372 2147 372 2553 
Q 372 3047 722 3315 
Q 1072 3584 1716 3584 
Q 2034 3584 2315 3537 
Q 2597 3491 2834 3397 
z
" transform="scale(0.015625)"/>
       <path id="DejaVuSans-70" d="M 1159 525 
L 1159 -1331 
L 581 -1331 
L 581 3500 
L 1159 3500 
L 1159 2969 
Q 1341 3281 1617 3432 
Q 1894 3584 2278 3584 
Q 2916 3584 3314 3078 
Q 3713 2572 3713 1747 
Q 3713 922 3314 415 
Q 2916 -91 2278 -91 
Q 1894 -91 1617 61 
Q 1341 213 1159 525 
z
M 3116 1747 
Q 3116 2381 2855 2742 
Q 2594 3103 2138 3103 
Q 1681 3103 1420 2742 
Q 1159 2381 1159 1747 
Q 1159 1113 1420 752 
Q 1681 391 2138 391 
Q 2594 391 2855 752 
Q 3116 1113 3116 1747 
z
" transform="scale(0.015625)"/>
       <path id="DejaVuSans-65" d="M 3597 1894 
L 3597 1613 
L 953 1613 
Q 991 1019 1311 708 
Q 1631 397 2203 397 
Q 2534 397 2845 478 
Q 3156 559 3463 722 
L 3463 178 
Q 3153 47 2828 -22 
Q 2503 -91 2169 -91 
Q 1331 -91 842 396 
Q 353 884 353 1716 
Q 353 2575 817 3079 
Q 1281 3584 2069 3584 
Q 2775 3584 3186 3129 
Q 3597 2675 3597 1894 
z
M 3022 2063 
Q 3016 2534 2758 2815 
Q 2500 3097 2075 3097 
Q 1594 3097 1305 2825 
Q 1016 2553 972 2059 
L 3022 2063 
z
" transform="scale(0.015625)"/>
       <path id="DejaVuSans-2c" d="M 750 794 
L 1409 794 
L 1409 256 
L 897 -744 
L 494 -744 
L 750 256 
L 750 794 
z
" transform="scale(0.015625)"/>
       <path id="DejaVuSans-2d" d="M 313 2009 
L 1997 2009 
L 1997 1497 
L 313 1497 
L 313 2009 
z
" transform="scale(0.015625)"/>
       <path id="DejaVuSans-4c" d="M 628 4666 
L 1259 4666 
L 1259 531 
L 3531 531 
L 3531 0 
L 628 0 
L 628 4666 
z
" transform="scale(0.015625)"/>
      </defs>
      <use xlink:href="#DejaVuSans-28"/>
      <use xlink:href="#DejaVuSans-30" transform="translate(39.013672 0)"/>
      <use xlink:href="#DejaVuSans-3d" transform="translate(102.636719 0)"/>
      <use xlink:href="#DejaVuSans-73" transform="translate(186.425781 0)"/>
      <use xlink:href="#DejaVuSans-75" transform="translate(238.525391 0)"/>
      <use xlink:href="#DejaVuSans-70" transform="translate(301.904297 0)"/>
      <use xlink:href="#DejaVuSans-65" transform="translate(365.380859 0)"/>
      <use xlink:href="#DejaVuSans-72" transform="translate(426.904297 0)"/>
      <use xlink:href="#DejaVuSans-66" transform="translate(468.017578 0)"/>
      <use xlink:href="#DejaVuSans-69" transform="translate(503.222656 0)"/>
      <use xlink:href="#DejaVuSans-63" transform="translate(531.005859 0)"/>
      <use xlink:href="#DejaVuSans-69" transform="translate(585.986328 0)"/>
      <use xlink:href="#DejaVuSans-65" transform="translate(613.769531 0)"/>
      <use xlink:href="#DejaVuSans-2c" transform="translate(675.292969 0)"/>
      <use xlink:href="#DejaVuSans-20" transform="translate(707.080078 0)"/>
      <use xlink:href="#DejaVuSans-2d" transform="translate(738.867188 0)"/>
      <use xlink:href="#DejaVuSans-4c" transform="translate(774.951172 0)"/>
      <use xlink:href="#DejaVuSans-3d" transform="translate(830.664062 0)"/>
      <use xlink:href="#DejaVuSans-66" transform="translate(914.453125 0)"/>
      <use xlink:href="#DejaVuSans-6f" transform="translate(949.658203 0)"/>
      <use xlink:href="#DejaVuSans-6e" transform="translate(1010.839844 0)"/>
      <use xlink:href="#DejaVuSans-64" transform="translate(1074.21875 0)"/>
      <use xlink:href="#DejaVuSans-6f" transform="translate(1137.695312 0)"/>
      <use xlink:href="#DejaVuSans-29" transform="translate(1198.876953 0)"/>
     </g>
    </g>
   </g>
   <g id="line2d_29">
    <path d="M 60.180625 385.327 
L 60.180625 381.804194 
L 60.180625 378.281389 
L 60.180625 374.758583 
L 60.180625 371.235778 
L 60.180625 367.712972 
L 60.180625 364.190167 
L 60.180625 360.667361 
L 60.180625 357.144556 
L 60.180625 353.62175 
L 60.180625 350.098944 
L 60.180625 346.576139 
L 60.180625 343.053333 
L 60.180625 339.530528 
L 60.180625 336.007722 
L 60.180625 332.484917 
L 60.180625 328.962111 
L 60.180625 325.439306 
L 60.180625 321.9165 
L 60.180625 318.393694 
L 60.180625 314.870889 
L 60.180625 311.348083 
L 60.180625 307.825278 
L 60.180625 304.302472 
L 60.180625 300.779667 
L 60.180625 297.256861 
L 60.180625 293.734056 
L 60.180625 290.21125 
L 60.180625 286.688444 
L 60.180625 283.165639 
L 60.180625 279.642833 
L 60.180625 276.120028 
L 60.180625 272.597222 
L 60.180625 269.074417 
L 60.180625 265.551611 
L 60.180625 262.028806 
L 60.180625 258.506 
L 60.180625 254.983194 
L 60.180625 251.460389 
L 60.180625 247.937583 
L 60.180625 244.414778 
L 60.180625 240.891972 
L 60.180625 237.369167 
L 60.180625 233.846361 
L 60.180625 230.323556 
L 60.180625 226.80075 
L 60.180625 223.277944 
L 60.180625 219.755139 
L 60.180625 216.232333 
L 60.180625 212.709528 
L 60.180625 209.186722 
L 60.180625 205.663917 
L 60.180625 202.141111 
L 60.180625 198.618306 
L 60.180625 195.0955 
L 60.180625 191.572694 
L 60.180625 188.049889 
L 60.180625 184.527083 
L 60.180625 181.004278 
L 60.180625 177.481472 
L 60.180625 173.958667 
L 60.180625 170.435861 
L 60.180625 166.913056 
L 60.180625 163.39025 
L 60.180625 159.867444 
L 60.180625 156.344639 
L 60.180625 152.821833 
L 60.180625 149.299028 
L 60.180625 145.776222 
L 60.180625 142.253417 
L 60.180625 138.730611 
L 60.180625 135.207806 
L 60.180625 131.685 
L 60.180625 128.162194 
L 60.180625 124.639389 
L 60.180625 121.116583 
L 60.180625 117.593778 
L 60.180625 114.070972 
L 60.180625 110.548167 
L 60.180625 107.025361 
L 60.180625 103.502556 
L 60.180625 99.97975 
L 60.180625 96.456944 
L 60.180625 92.934139 
L 60.180625 89.411333 
L 60.180625 85.888528 
L 60.180625 82.365722 
L 60.180625 78.842917 
L 60.180625 75.320111 
L 60.180625 71.797306 
L 60.180625 68.2745 
L 60.180625 64.751694 
L 60.180625 61.228889 
L 60.180625 57.706083 
L 60.180625 54.183278 
L 60.180625 50.660472 
L 60.180625 47.137667 
L 60.180625 43.614861 
L 60.180625 40.092056 
L 60.180625 36.56925 
" clip-path="url(#p6d21bf318c)" style="fill: none; stroke: #1f77b4; stroke-width: 2; stroke-linecap: square"/>
   </g>
   <g id="line2d_30">
    <path d="M 66.986838 385.327 
L 66.986838 381.804194 
L 67.159564 378.281389 
L 67.434453 374.758583 
L 67.772717 371.235778 
L 68.1531 367.712972 
L 68.564123 364.190167 
L 68.999847 360.667361 
L 69.45755 357.144556 
L 69.936449 353.62175 
L 70.436996 350.098944 
L 70.960485 346.576139 
L 71.508821 343.053333 
L 72.084382 339.530528 
L 72.689923 336.007722 
L 73.328512 332.484917 
L 74.003487 328.962111 
L 74.718431 325.439306 
L 75.477155 321.9165 
L 76.283708 318.393694 
L 77.142378 314.870889 
L 78.057707 311.348083 
L 79.034509 307.825278 
L 80.077889 304.302472 
L 81.193254 300.779667 
L 82.386336 297.256861 
L 83.663204 293.734056 
L 85.030275 290.21125 
L 86.494328 286.688444 
L 88.062508 283.165639 
L 89.742332 279.642833 
L 91.541688 276.120028 
L 93.468829 272.597222 
L 95.532369 269.074417 
L 97.741259 265.551611 
L 100.104773 262.028806 
L 102.632475 258.506 
L 105.334181 254.983194 
L 108.219915 251.460389 
L 111.299854 247.937583 
L 114.584264 244.414778 
L 118.083422 240.891972 
L 121.80753 237.369167 
L 125.766621 233.846361 
L 129.970445 230.323556 
L 134.428351 226.80075 
L 139.149157 223.277944 
L 144.141005 219.755139 
L 149.411211 216.232333 
L 154.966103 212.709528 
L 160.810856 209.186722 
L 166.949317 205.663917 
L 173.383831 202.141111 
L 180.115064 198.618306 
L 187.14183 195.0955 
L 194.460926 191.572694 
L 202.066976 188.049889 
L 209.952283 184.527083 
L 218.106715 181.004278 
L 226.517595 177.481472 
L 235.169634 173.958667 
L 244.044887 170.435861 
L 253.122749 166.913056 
L 262.379989 163.39025 
L 271.79083 159.867444 
L 281.327072 156.344639 
L 290.958266 152.821833 
L 300.651933 149.299028 
L 310.373836 145.776222 
L 320.088294 142.253417 
L 329.758542 138.730611 
L 339.347135 135.207806 
L 348.816375 131.685 
L 358.128776 128.162194 
L 367.247539 124.639389 
L 376.137042 121.116583 
L 384.76332 117.593778 
L 393.094544 114.070972 
L 401.101462 110.548167 
L 408.757816 107.025361 
L 416.040708 103.502556 
L 422.930906 99.97975 
L 429.413093 96.456944 
L 435.476037 92.934139 
L 441.112686 89.411333 
L 446.320183 85.888528 
L 451.099797 82.365722 
L 455.456778 78.842917 
L 459.400136 75.320111 
L 462.94235 71.797306 
L 466.099019 68.2745 
L 468.888461 64.751694 
L 471.331278 61.228889 
L 473.449895 57.706083 
L 475.268088 54.183278 
L 476.810513 50.660472 
L 478.102245 47.137667 
L 479.168357 43.614861 
L 480.033513 40.092056 
L 480.721625 36.56925 
" clip-path="url(#p6d21bf318c)" style="fill: none; stroke: #ff7f0e; stroke-width: 2; stroke-linecap: square"/>
   </g>
   <g id="line2d_31">
    <path d="M 146.541792 385.327 
L 146.541792 381.804194 
L 147.556379 378.281389 
L 149.212121 374.758583 
L 151.315026 371.235778 
L 153.753265 367.712972 
L 156.458678 364.190167 
L 159.388148 360.667361 
L 162.513596 357.144556 
L 165.816251 353.62175 
L 169.283219 350.098944 
L 172.905369 346.576139 
L 176.675988 343.053333 
L 180.589912 339.530528 
L 184.64295 336.007722 
L 188.83149 332.484917 
L 193.152232 328.962111 
L 197.601999 325.439306 
L 202.177599 321.9165 
L 206.875724 318.393694 
L 211.692881 314.870889 
L 216.625331 311.348083 
L 221.669051 307.825278 
L 226.819702 304.302472 
L 232.072603 300.779667 
L 237.422716 297.256861 
L 242.864638 293.734056 
L 248.392592 290.21125 
L 254.000427 286.688444 
L 259.68162 283.165639 
L 265.429289 279.642833 
L 271.236196 276.120028 
L 277.094769 272.597222 
L 282.99712 269.074417 
L 288.935062 265.551611 
L 294.900142 262.028806 
L 300.883665 258.506 
L 306.876727 254.983194 
L 312.870254 251.460389 
L 318.85503 247.937583 
L 324.821747 244.414778 
L 330.76104 240.891972 
L 336.663534 237.369167 
L 342.519887 233.846361 
L 348.320835 230.323556 
L 354.057243 226.80075 
L 359.720146 223.277944 
L 365.300799 219.755139 
L 370.790722 216.232333 
L 376.181745 212.709528 
L 381.466052 209.186722 
L 386.63622 205.663917 
L 391.685261 202.141111 
L 396.606656 198.618306 
L 401.39439 195.0955 
L 406.04298 191.572694 
L 410.547504 188.049889 
L 414.903618 184.527083 
L 419.10758 181.004278 
L 423.156258 177.481472 
L 427.047141 173.958667 
L 430.778344 170.435861 
L 434.348604 166.913056 
L 437.757278 163.39025 
L 441.004331 159.867444 
L 444.090325 156.344639 
L 447.016396 152.821833 
L 449.784234 149.299028 
L 452.396055 145.776222 
L 454.854574 142.253417 
L 457.162971 138.730611 
L 459.324853 135.207806 
L 461.344222 131.685 
L 463.225429 128.162194 
L 464.973138 124.639389 
L 466.592284 121.116583 
L 468.088027 117.593778 
L 469.465714 114.070972 
L 470.730837 110.548167 
L 471.888989 107.025361 
L 472.945827 103.502556 
L 473.907034 99.97975 
L 474.778282 96.456944 
L 475.565196 92.934139 
L 476.273328 89.411333 
L 476.908121 85.888528 
L 477.47489 82.365722 
L 477.978792 78.842917 
L 478.424809 75.320111 
L 478.817731 71.797306 
L 479.162139 68.2745 
L 479.462398 64.751694 
L 479.72264 61.228889 
L 479.946768 57.706083 
L 480.138443 54.183278 
L 480.301091 50.660472 
L 480.437896 47.137667 
L 480.551811 43.614861 
L 480.645555 40.092056 
L 480.721625 36.56925 
" clip-path="url(#p6d21bf318c)" style="fill: none; stroke: #2ca02c; stroke-width: 2; stroke-linecap: square"/>
   </g>
   <g id="line2d_32">
    <path d="M 324.903193 385.327 
L 324.903193 381.804194 
L 325.997768 378.281389 
L 327.77815 374.758583 
L 330.023814 371.235778 
L 332.599654 367.712972 
L 335.417022 364.190167 
L 338.414935 360.667361 
L 341.549802 357.144556 
L 344.789389 353.62175 
L 348.109101 350.098944 
L 351.489611 346.576139 
L 354.915307 343.053333 
L 358.373251 339.530528 
L 361.852473 336.007722 
L 365.343478 332.484917 
L 368.837903 328.962111 
L 372.328273 325.439306 
L 375.807823 321.9165 
L 379.270374 318.393694 
L 382.710237 314.870889 
L 386.122145 311.348083 
L 389.501204 307.825278 
L 392.842853 304.302472 
L 396.14284 300.779667 
L 399.397194 297.256861 
L 402.602218 293.734056 
L 405.75447 290.21125 
L 408.850758 286.688444 
L 411.888133 283.165639 
L 414.863882 279.642833 
L 417.775524 276.120028 
L 420.620807 272.597222 
L 423.397707 269.074417 
L 426.104421 265.551611 
L 428.739366 262.028806 
L 431.301175 258.506 
L 433.788698 254.983194 
L 436.200991 251.460389 
L 438.537318 247.937583 
L 440.797145 244.414778 
L 442.980132 240.891972 
L 445.086133 237.369167 
L 447.115188 233.846361 
L 449.067515 230.323556 
L 450.943504 226.80075 
L 452.743713 223.277944 
L 454.468857 219.755139 
L 456.119799 216.232333 
L 457.697548 212.709528 
L 459.203243 209.186722 
L 460.63815 205.663917 
L 462.003648 202.141111 
L 463.301225 198.618306 
L 464.532465 195.0955 
L 465.699038 191.572694 
L 466.802693 188.049889 
L 467.84525 184.527083 
L 468.828585 181.004278 
L 469.754627 177.481472 
L 470.625344 173.958667 
L 471.442737 170.435861 
L 472.208832 166.913056 
L 472.925668 163.39025 
L 473.595294 159.867444 
L 474.219756 156.344639 
L 474.801093 152.821833 
L 475.341333 149.299028 
L 475.842477 145.776222 
L 476.306505 142.253417 
L 476.735361 138.730611 
L 477.130952 135.207806 
L 477.495143 131.685 
L 477.829754 128.162194 
L 478.136551 124.639389 
L 478.417251 121.116583 
L 478.673513 117.593778 
L 478.906937 114.070972 
L 479.119063 110.548167 
L 479.31137 107.025361 
L 479.485273 103.502556 
L 479.642123 99.97975 
L 479.783209 96.456944 
L 479.909754 92.934139 
L 480.022918 89.411333 
L 480.123798 85.888528 
L 480.213429 82.365722 
L 480.292784 78.842917 
L 480.362778 75.320111 
L 480.424265 71.797306 
L 480.478045 68.2745 
L 480.524863 64.751694 
L 480.565409 61.228889 
L 480.600325 57.706083 
L 480.630202 54.183278 
L 480.655587 50.660472 
L 480.676982 47.137667 
L 480.694846 43.614861 
L 480.709599 40.092056 
L 480.721625 36.56925 
" clip-path="url(#p6d21bf318c)" style="fill: none; stroke: #d62728; stroke-width: 2; stroke-linecap: square"/>
   </g>
   <g id="line2d_33">
    <path d="M 434.907222 385.327 
L 434.907222 381.804194 
L 435.342115 378.281389 
L 436.047858 374.758583 
L 436.934482 371.235778 
L 437.945733 367.712972 
L 439.043934 364.190167 
L 440.202671 360.667361 
L 441.402773 357.144556 
L 442.629921 353.62175 
L 443.873158 350.098944 
L 445.123919 346.576139 
L 446.375389 343.053333 
L 447.622058 339.530528 
L 448.859413 336.007722 
L 450.083721 332.484917 
L 451.291865 328.962111 
L 452.481232 325.439306 
L 453.649619 321.9165 
L 454.79517 318.393694 
L 455.916324 314.870889 
L 457.01177 311.348083 
L 458.08042 307.825278 
L 459.121379 304.302472 
L 460.133923 300.779667 
L 461.117483 297.256861 
L 462.071627 293.734056 
L 462.99605 290.21125 
L 463.890559 286.688444 
L 464.755064 283.165639 
L 465.589569 279.642833 
L 466.394166 276.120028 
L 467.169023 272.597222 
L 467.91438 269.074417 
L 468.630542 265.551611 
L 469.317874 262.028806 
L 469.976795 258.506 
L 470.60777 254.983194 
L 471.211311 251.460389 
L 471.787966 247.937583 
L 472.338318 244.414778 
L 472.862983 240.891972 
L 473.362601 237.369167 
L 473.837836 233.846361 
L 474.289369 230.323556 
L 474.7179 226.80075 
L 475.12414 223.277944 
L 475.50881 219.755139 
L 475.872639 216.232333 
L 476.216357 212.709528 
L 476.540699 209.186722 
L 476.846398 205.663917 
L 477.134185 202.141111 
L 477.404786 198.618306 
L 477.658918 195.0955 
L 477.897293 191.572694 
L 478.120611 188.049889 
L 478.329561 184.527083 
L 478.524819 181.004278 
L 478.707046 177.481472 
L 478.876891 173.958667 
L 479.034983 170.435861 
L 479.181937 166.913056 
L 479.318349 163.39025 
L 479.444799 159.867444 
L 479.561845 156.344639 
L 479.670029 152.821833 
L 479.769872 149.299028 
L 479.861878 145.776222 
L 479.946527 142.253417 
L 480.024284 138.730611 
L 480.095591 135.207806 
L 480.160873 131.685 
L 480.220535 128.162194 
L 480.274961 124.639389 
L 480.324519 121.116583 
L 480.369558 117.593778 
L 480.410407 114.070972 
L 480.44738 110.548167 
L 480.480771 107.025361 
L 480.51086 103.502556 
L 480.537909 99.97975 
L 480.562165 96.456944 
L 480.58386 92.934139 
L 480.60321 89.411333 
L 480.620419 85.888528 
L 480.635676 82.365722 
L 480.649158 78.842917 
L 480.661029 75.320111 
L 480.671441 71.797306 
L 480.680537 68.2745 
L 480.688446 64.751694 
L 480.69529 61.228889 
L 480.701179 57.706083 
L 480.706215 54.183278 
L 480.710493 50.660472 
L 480.714099 47.137667 
L 480.717109 43.614861 
L 480.719596 40.092056 
L 480.721625 36.56925 
" clip-path="url(#p6d21bf318c)" style="fill: none; stroke: #9467bd; stroke-width: 2; stroke-linecap: square"/>
   </g>
   <g id="line2d_34">
    <path d="M 470.246203 385.327 
L 470.246203 381.804194 
L 470.35895 378.281389 
L 470.541695 374.758583 
L 470.77082 371.235778 
L 471.03144 367.712972 
L 471.313512 364.190167 
L 471.609952 360.667361 
L 471.915598 357.144556 
L 472.226593 353.62175 
L 472.539989 350.098944 
L 472.853502 346.576139 
L 473.16533 343.053333 
L 473.474043 339.530528 
L 473.778492 336.007722 
L 474.077754 332.484917 
L 474.371085 328.962111 
L 474.657885 325.439306 
L 474.937674 321.9165 
L 475.210074 318.393694 
L 475.474789 314.870889 
L 475.731594 311.348083 
L 475.980329 307.825278 
L 476.220884 304.302472 
L 476.453197 300.779667 
L 476.677244 297.256861 
L 476.893036 293.734056 
L 477.100618 290.21125 
L 477.300058 286.688444 
L 477.491448 283.165639 
L 477.674902 279.642833 
L 477.85055 276.120028 
L 478.018539 272.597222 
L 478.179027 269.074417 
L 478.332185 265.551611 
L 478.478192 262.028806 
L 478.617238 258.506 
L 478.749516 254.983194 
L 478.875225 251.460389 
L 478.99457 247.937583 
L 479.107756 244.414778 
L 479.214992 240.891972 
L 479.316487 237.369167 
L 479.412451 233.846361 
L 479.503092 230.323556 
L 479.588619 226.80075 
L 479.669237 223.277944 
L 479.74515 219.755139 
L 479.816558 216.232333 
L 479.883658 212.709528 
L 479.946645 209.186722 
L 480.005708 205.663917 
L 480.061031 202.141111 
L 480.112797 198.618306 
L 480.161181 195.0955 
L 480.206354 191.572694 
L 480.248481 188.049889 
L 480.287724 184.527083 
L 480.324238 181.004278 
L 480.358174 177.481472 
L 480.389674 173.958667 
L 480.41888 170.435861 
L 480.445925 166.913056 
L 480.470937 163.39025 
L 480.494039 159.867444 
L 480.515349 156.344639 
L 480.53498 152.821833 
L 480.553039 149.299028 
L 480.569629 145.776222 
L 480.584846 142.253417 
L 480.598784 138.730611 
L 480.611531 135.207806 
L 480.62317 131.685 
L 480.63378 128.162194 
L 480.643435 124.639389 
L 480.652206 121.116583 
L 480.66016 117.593778 
L 480.667359 114.070972 
L 480.673861 110.548167 
L 480.679723 107.025361 
L 480.684995 103.502556 
L 480.689727 99.97975 
L 480.693963 96.456944 
L 480.697746 92.934139 
L 480.701116 89.411333 
L 480.704109 85.888528 
L 480.706759 82.365722 
L 480.709098 78.842917 
L 480.711156 75.320111 
L 480.712959 71.797306 
L 480.714532 68.2745 
L 480.7159 64.751694 
L 480.717082 61.228889 
L 480.718099 57.706083 
L 480.718968 54.183278 
L 480.719706 50.660472 
L 480.720328 47.137667 
L 480.720847 43.614861 
L 480.721275 40.092056 
L 480.721625 36.56925 
" clip-path="url(#p6d21bf318c)" style="fill: none; stroke: #8c564b; stroke-width: 2; stroke-linecap: square"/>
   </g>
   <g id="line2d_35">
    <path d="M 478.610405 385.327 
L 478.610405 381.804194 
L 478.634473 378.281389 
L 478.67346 374.758583 
L 478.722294 371.235778 
L 478.777768 367.712972 
L 478.83771 364.190167 
L 478.900586 360.667361 
L 478.965275 357.144556 
L 479.03094 353.62175 
L 479.096944 350.098944 
L 479.162793 346.576139 
L 479.228101 343.053333 
L 479.292564 339.530528 
L 479.355941 336.007722 
L 479.418041 332.484917 
L 479.478712 328.962111 
L 479.537835 325.439306 
L 479.59532 321.9165 
L 479.651095 318.393694 
L 479.705111 314.870889 
L 479.757331 311.348083 
L 479.807733 307.825278 
L 479.856308 304.302472 
L 479.903053 300.779667 
L 479.947978 297.256861 
L 479.991096 293.734056 
L 480.032428 290.21125 
L 480.072001 286.688444 
L 480.109845 283.165639 
L 480.145995 279.642833 
L 480.180489 276.120028 
L 480.213366 272.597222 
L 480.24467 269.074417 
L 480.274445 265.551611 
L 480.302735 262.028806 
L 480.329589 258.506 
L 480.355054 254.983194 
L 480.379176 251.460389 
L 480.402006 247.937583 
L 480.42359 244.414778 
L 480.443978 240.891972 
L 480.463215 237.369167 
L 480.481351 233.846361 
L 480.498431 230.323556 
L 480.514501 226.80075 
L 480.529606 223.277944 
L 480.54379 219.755139 
L 480.557097 216.232333 
L 480.569568 212.709528 
L 480.581243 209.186722 
L 480.592164 205.663917 
L 480.602367 202.141111 
L 480.611892 198.618306 
L 480.620772 195.0955 
L 480.629045 191.572694 
L 480.636742 188.049889 
L 480.643896 184.527083 
L 480.650538 181.004278 
L 480.656699 177.481472 
L 480.662405 173.958667 
L 480.667686 170.435861 
L 480.672566 166.913056 
L 480.677071 163.39025 
L 480.681225 159.867444 
L 480.685049 156.344639 
L 480.688566 152.821833 
L 480.691797 149.299028 
L 480.694759 145.776222 
L 480.697473 142.253417 
L 480.699954 138.730611 
L 480.702221 135.207806 
L 480.704287 131.685 
L 480.706168 128.162194 
L 480.707878 124.639389 
L 480.709429 121.116583 
L 480.710835 117.593778 
L 480.712105 114.070972 
L 480.713251 110.548167 
L 480.714283 107.025361 
L 480.715211 103.502556 
L 480.716042 99.97975 
L 480.716786 96.456944 
L 480.71745 92.934139 
L 480.718041 89.411333 
L 480.718565 85.888528 
L 480.719029 82.365722 
L 480.719438 78.842917 
L 480.719798 75.320111 
L 480.720113 71.797306 
L 480.720388 68.2745 
L 480.720627 64.751694 
L 480.720833 61.228889 
L 480.72101 57.706083 
L 480.721162 54.183278 
L 480.721291 50.660472 
L 480.721399 47.137667 
L 480.721489 43.614861 
L 480.721564 40.092056 
L 480.721625 36.56925 
" clip-path="url(#p6d21bf318c)" style="fill: none; stroke: #e377c2; stroke-width: 2; stroke-linecap: square"/>
   </g>
   <g id="line2d_36">
    <path d="M 480.322231 385.327 
L 480.322231 381.804194 
L 480.326913 378.281389 
L 480.334495 374.758583 
L 480.343988 371.235778 
L 480.354765 367.712972 
L 480.366401 364.190167 
L 480.378594 360.667361 
L 480.391126 357.144556 
L 480.403832 353.62175 
L 480.416587 350.098944 
L 480.429295 346.576139 
L 480.441881 343.053333 
L 480.454286 339.530528 
L 480.466463 336.007722 
L 480.478376 332.484917 
L 480.489996 328.962111 
L 480.501301 325.439306 
L 480.512273 321.9165 
L 480.522902 318.393694 
L 480.533177 314.870889 
L 480.543094 311.348083 
L 480.552649 307.825278 
L 480.561841 304.302472 
L 480.570671 300.779667 
L 480.579142 297.256861 
L 480.587258 293.734056 
L 480.595025 290.21125 
L 480.602447 286.688444 
L 480.609533 283.165639 
L 480.61629 279.642833 
L 480.622727 276.120028 
L 480.628851 272.597222 
L 480.634671 269.074417 
L 480.640199 265.551611 
L 480.645442 262.028806 
L 480.65041 258.506 
L 480.655113 254.983194 
L 480.659562 251.460389 
L 480.663765 247.937583 
L 480.667733 244.414778 
L 480.671475 240.891972 
L 480.675 237.369167 
L 480.678318 233.846361 
L 480.681439 230.323556 
L 480.68437 226.80075 
L 480.687122 223.277944 
L 480.689702 219.755139 
L 480.692119 216.232333 
L 480.694382 212.709528 
L 480.696497 209.186722 
L 480.698472 205.663917 
L 480.700316 202.141111 
L 480.702035 198.618306 
L 480.703635 195.0955 
L 480.705125 191.572694 
L 480.706509 188.049889 
L 480.707793 184.527083 
L 480.708985 181.004278 
L 480.710089 177.481472 
L 480.71111 173.958667 
L 480.712055 170.435861 
L 480.712926 166.913056 
L 480.71373 163.39025 
L 480.714471 159.867444 
L 480.715152 156.344639 
L 480.715778 152.821833 
L 480.716352 149.299028 
L 480.716879 145.776222 
L 480.71736 142.253417 
L 480.717801 138.730611 
L 480.718202 135.207806 
L 480.718568 131.685 
L 480.718901 128.162194 
L 480.719203 124.639389 
L 480.719478 121.116583 
L 480.719726 117.593778 
L 480.71995 114.070972 
L 480.720152 110.548167 
L 480.720334 107.025361 
L 480.720498 103.502556 
L 480.720644 99.97975 
L 480.720775 96.456944 
L 480.720892 92.934139 
L 480.720996 89.411333 
L 480.721088 85.888528 
L 480.721169 82.365722 
L 480.721241 78.842917 
L 480.721305 75.320111 
L 480.72136 71.797306 
L 480.721408 68.2745 
L 480.72145 64.751694 
L 480.721486 61.228889 
L 480.721517 57.706083 
L 480.721544 54.183278 
L 480.721566 50.660472 
L 480.721585 47.137667 
L 480.721601 43.614861 
L 480.721614 40.092056 
L 480.721625 36.56925 
" clip-path="url(#p6d21bf318c)" style="fill: none; stroke: #7f7f7f; stroke-width: 2; stroke-linecap: square"/>
   </g>
   <g id="patch_3">
    <path d="M 60.180625 385.327 
L 60.180625 36.56925 
" style="fill: none; stroke: #000000; stroke-width: 0.8; stroke-linejoin: miter; stroke-linecap: square"/>
   </g>
   <g id="patch_4">
    <path d="M 480.721625 385.327 
L 480.721625 36.56925 
" style="fill: none; stroke: #000000; stroke-width: 0.8; stroke-linejoin: miter; stroke-linecap: square"/>
   </g>
   <g id="patch_5">
    <path d="M 60.180625 385.327 
L 480.721625 385.327 
" style="fill: none; stroke: #000000; stroke-width: 0.8; stroke-linejoin: miter; stroke-linecap: square"/>
   </g>
   <g id="patch_6">
    <path d="M 60.180625 36.56925 
L 480.721625 36.56925 
" style="fill: none; stroke: #000000; stroke-width: 0.8; stroke-linejoin: miter; stroke-linecap: square"/>
   </g>
   <g id="text_17">
    <!-- Perfiles de C/C_0 vs profundidad (0–7 días) -->
    <g transform="translate(141.896437 16.798125) scale(0.12 -0.12)">
     <defs>
      <path id="DejaVuSans-6c" d="M 603 4863 
L 1178 4863 
L 1178 0 
L 603 0 
L 603 4863 
z
" transform="scale(0.015625)"/>
      <path id="DejaVuSans-43" d="M 4122 4306 
L 4122 3641 
Q 3803 3938 3442 4084 
Q 3081 4231 2675 4231 
Q 1875 4231 1450 3742 
Q 1025 3253 1025 2328 
Q 1025 1406 1450 917 
Q 1875 428 2675 428 
Q 3081 428 3442 575 
Q 3803 722 4122 1019 
L 4122 359 
Q 3791 134 3420 21 
Q 3050 -91 2638 -91 
Q 1578 -91 968 557 
Q 359 1206 359 2328 
Q 359 3453 968 4101 
Q 1578 4750 2638 4750 
Q 3056 4750 3426 4639 
Q 3797 4528 4122 4306 
z
" transform="scale(0.015625)"/>
      <path id="DejaVuSans-5f" d="M 3263 -1063 
L 3263 -1509 
L -63 -1509 
L -63 -1063 
L 3263 -1063 
z
" transform="scale(0.015625)"/>
      <path id="DejaVuSans-76" d="M 191 3500 
L 800 3500 
L 1894 563 
L 2988 3500 
L 3597 3500 
L 2284 0 
L 1503 0 
L 191 3500 
z
" transform="scale(0.015625)"/>
      <path id="DejaVuSans-2013" d="M 313 1978 
L 2888 1978 
L 2888 1528 
L 313 1528 
L 313 1978 
z
" transform="scale(0.015625)"/>
      <path id="DejaVuSans-ed" d="M 1325 5119 
L 1947 5119 
L 928 3944 
L 450 3944 
L 1325 5119 
z
M 603 3500 
L 1178 3500 
L 1178 0 
L 603 0 
L 603 3500 
z
M 891 3584 
L 891 3584 
z
" transform="scale(0.015625)"/>
     </defs>
     <use xlink:href="#DejaVuSans-50"/>
     <use xlink:href="#DejaVuSans-65" transform="translate(56.677734 0)"/>
     <use xlink:href="#DejaVuSans-72" transform="translate(118.201172 0)"/>
     <use xlink:href="#DejaVuSans-66" transform="translate(159.314453 0)"/>
     <use xlink:href="#DejaVuSans-69" transform="translate(194.519531 0)"/>
     <use xlink:href="#DejaVuSans-6c" transform="translate(222.302734 0)"/>
     <use xlink:href="#DejaVuSans-65" transform="translate(250.085938 0)"/>
     <use xlink:href="#DejaVuSans-73" transform="translate(311.609375 0)"/>
     <use xlink:href="#DejaVuSans-20" transform="translate(363.708984 0)"/>
     <use xlink:href="#DejaVuSans-64" transform="translate(395.496094 0)"/>
     <use xlink:href="#DejaVuSans-65" transform="translate(458.972656 0)"/>
     <use xlink:href="#DejaVuSans-20" transform="translate(520.496094 0)"/>
     <use xlink:href="#DejaVuSans-43" transform="translate(552.283203 0)"/>
     <use xlink:href="#DejaVuSans-2f" transform="translate(622.107422 0)"/>
     <use xlink:href="#DejaVuSans-43" transform="translate(655.798828 0)"/>
     <use xlink:href="#DejaVuSans-5f" transform="translate(725.623047 0)"/>
     <use xlink:href="#DejaVuSans-30" transform="translate(775.623047 0)"/>
     <use xlink:href="#DejaVuSans-20" transform="translate(839.246094 0)"/>
     <use xlink:href="#DejaVuSans-76" transform="translate(871.033203 0)"/>
     <use xlink:href="#DejaVuSans-73" transform="translate(930.212891 0)"/>
     <use xlink:href="#DejaVuSans-20" transform="translate(982.3125 0)"/>
     <use xlink:href="#DejaVuSans-70" transform="translate(1014.099609 0)"/>
     <use xlink:href="#DejaVuSans-72" transform="translate(1077.576172 0)"/>
     <use xlink:href="#DejaVuSans-6f" transform="translate(1116.439453 0)"/>
     <use xlink:href="#DejaVuSans-66" transform="translate(1177.621094 0)"/>
     <use xlink:href="#DejaVuSans-75" transform="translate(1212.826172 0)"/>
     <use xlink:href="#DejaVuSans-6e" transform="translate(1276.205078 0)"/>
     <use xlink:href="#DejaVuSans-64" transform="translate(1339.583984 0)"/>
     <use xlink:href="#DejaVuSans-69" transform="translate(1403.060547 0)"/>
     <use xlink:href="#DejaVuSans-64" transform="translate(1430.84375 0)"/>
     <use xlink:href="#DejaVuSans-61" transform="translate(1494.320312 0)"/>
     <use xlink:href="#DejaVuSans-64" transform="translate(1555.599609 0)"/>
     <use xlink:href="#DejaVuSans-20" transform="translate(1619.076172 0)"/>
     <use xlink:href="#DejaVuSans-28" transform="translate(1650.863281 0)"/>
     <use xlink:href="#DejaVuSans-30" transform="translate(1689.876953 0)"/>
     <use xlink:href="#DejaVuSans-2013" transform="translate(1753.5 0)"/>
     <use xlink:href="#DejaVuSans-37" transform="translate(1803.5 0)"/>
     <use xlink:href="#DejaVuSans-20" transform="translate(1867.123047 0)"/>
     <use xlink:href="#DejaVuSans-64" transform="translate(1898.910156 0)"/>
     <use xlink:href="#DejaVuSans-ed" transform="translate(1962.386719 0)"/>
     <use xlink:href="#DejaVuSans-61" transform="translate(1990.169922 0)"/>
     <use xlink:href="#DejaVuSans-73" transform="translate(2051.449219 0)"/>
     <use xlink:href="#DejaVuSans-29" transform="translate(2103.548828 0)"/>
    </g>
    <!-- Relave Puerto Cristal  -->
    <g transform="translate(205.910812 30.56925) scale(0.12 -0.12)">
     <defs>
      <path id="DejaVuSans-52" d="M 2841 2188 
Q 3044 2119 3236 1894 
Q 3428 1669 3622 1275 
L 4263 0 
L 3584 0 
L 2988 1197 
Q 2756 1666 2539 1819 
Q 2322 1972 1947 1972 
L 1259 1972 
L 1259 0 
L 628 0 
L 628 4666 
L 2053 4666 
Q 2853 4666 3247 4331 
Q 3641 3997 3641 3322 
Q 3641 2881 3436 2590 
Q 3231 2300 2841 2188 
z
M 1259 4147 
L 1259 2491 
L 2053 2491 
Q 2509 2491 2742 2702 
Q 2975 2913 2975 3322 
Q 2975 3731 2742 3939 
Q 2509 4147 2053 4147 
L 1259 4147 
z
" transform="scale(0.015625)"/>
      <path id="DejaVuSans-74" d="M 1172 4494 
L 1172 3500 
L 2356 3500 
L 2356 3053 
L 1172 3053 
L 1172 1153 
Q 1172 725 1289 603 
Q 1406 481 1766 481 
L 2356 481 
L 2356 0 
L 1766 0 
Q 1100 0 847 248 
Q 594 497 594 1153 
L 594 3053 
L 172 3053 
L 172 3500 
L 594 3500 
L 594 4494 
L 1172 4494 
z
" transform="scale(0.015625)"/>
     </defs>
     <use xlink:href="#DejaVuSans-52"/>
     <use xlink:href="#DejaVuSans-65" transform="translate(64.982422 0)"/>
     <use xlink:href="#DejaVuSans-6c" transform="translate(126.505859 0)"/>
     <use xlink:href="#DejaVuSans-61" transform="translate(154.289062 0)"/>
     <use xlink:href="#DejaVuSans-76" transform="translate(215.568359 0)"/>
     <use xlink:href="#DejaVuSans-65" transform="translate(274.748047 0)"/>
     <use xlink:href="#DejaVuSans-20" transform="translate(336.271484 0)"/>
     <use xlink:href="#DejaVuSans-50" transform="translate(368.058594 0)"/>
     <use xlink:href="#DejaVuSans-75" transform="translate(426.611328 0)"/>
     <use xlink:href="#DejaVuSans-65" transform="translate(489.990234 0)"/>
     <use xlink:href="#DejaVuSans-72" transform="translate(551.513672 0)"/>
     <use xlink:href="#DejaVuSans-74" transform="translate(592.626953 0)"/>
     <use xlink:href="#DejaVuSans-6f" transform="translate(631.835938 0)"/>
     <use xlink:href="#DejaVuSans-20" transform="translate(693.017578 0)"/>
     <use xlink:href="#DejaVuSans-43" transform="translate(724.804688 0)"/>
     <use xlink:href="#DejaVuSans-72" transform="translate(794.628906 0)"/>
     <use xlink:href="#DejaVuSans-69" transform="translate(835.742188 0)"/>
     <use xlink:href="#DejaVuSans-73" transform="translate(863.525391 0)"/>
     <use xlink:href="#DejaVuSans-74" transform="translate(915.625 0)"/>
     <use xlink:href="#DejaVuSans-61" transform="translate(954.833984 0)"/>
     <use xlink:href="#DejaVuSans-6c" transform="translate(1016.113281 0)"/>
     <use xlink:href="#DejaVuSans-20" transform="translate(1043.896484 0)"/>
    </g>
   </g>
   <g id="legend_1">
    <g id="patch_7">
     <path d="M 67.180625 161.99425 
L 129.185313 161.99425 
Q 131.185313 161.99425 131.185313 159.99425 
L 131.185313 43.56925 
Q 131.185313 41.56925 129.185313 41.56925 
L 67.180625 41.56925 
Q 65.180625 41.56925 65.180625 43.56925 
L 65.180625 159.99425 
Q 65.180625 161.99425 67.180625 161.99425 
z
" style="fill: #ffffff; opacity: 0.8; stroke: #cccccc; stroke-linejoin: miter"/>
    </g>
    <g id="line2d_37">
     <path d="M 69.180625 49.667687 
L 79.180625 49.667687 
L 89.180625 49.667687 
" style="fill: none; stroke: #1f77b4; stroke-width: 2; stroke-linecap: square"/>
    </g>
    <g id="text_18">
     <!-- 0 días -->
     <g transform="translate(97.180625 53.167687) scale(0.1 -0.1)">
      <use xlink:href="#DejaVuSans-30"/>
      <use xlink:href="#DejaVuSans-20" transform="translate(63.623047 0)"/>
      <use xlink:href="#DejaVuSans-64" transform="translate(95.410156 0)"/>
      <use xlink:href="#DejaVuSans-ed" transform="translate(158.886719 0)"/>
      <use xlink:href="#DejaVuSans-61" transform="translate(186.669922 0)"/>
      <use xlink:href="#DejaVuSans-73" transform="translate(247.949219 0)"/>
     </g>
    </g>
    <g id="line2d_38">
     <path d="M 69.180625 64.345813 
L 79.180625 64.345813 
L 89.180625 64.345813 
" style="fill: none; stroke: #ff7f0e; stroke-width: 2; stroke-linecap: square"/>
    </g>
    <g id="text_19">
     <!-- 1 días -->
     <g transform="translate(97.180625 67.845813) scale(0.1 -0.1)">
      <use xlink:href="#DejaVuSans-31"/>
      <use xlink:href="#DejaVuSans-20" transform="translate(63.623047 0)"/>
      <use xlink:href="#DejaVuSans-64" transform="translate(95.410156 0)"/>
      <use xlink:href="#DejaVuSans-ed" transform="translate(158.886719 0)"/>
      <use xlink:href="#DejaVuSans-61" transform="translate(186.669922 0)"/>
      <use xlink:href="#DejaVuSans-73" transform="translate(247.949219 0)"/>
     </g>
    </g>
    <g id="line2d_39">
     <path d="M 69.180625 79.023937 
L 79.180625 79.023937 
L 89.180625 79.023937 
" style="fill: none; stroke: #2ca02c; stroke-width: 2; stroke-linecap: square"/>
    </g>
    <g id="text_20">
     <!-- 2 días -->
     <g transform="translate(97.180625 82.523937) scale(0.1 -0.1)">
      <use xlink:href="#DejaVuSans-32"/>
      <use xlink:href="#DejaVuSans-20" transform="translate(63.623047 0)"/>
      <use xlink:href="#DejaVuSans-64" transform="translate(95.410156 0)"/>
      <use xlink:href="#DejaVuSans-ed" transform="translate(158.886719 0)"/>
      <use xlink:href="#DejaVuSans-61" transform="translate(186.669922 0)"/>
      <use xlink:href="#DejaVuSans-73" transform="translate(247.949219 0)"/>
     </g>
    </g>
    <g id="line2d_40">
     <path d="M 69.180625 93.702063 
L 79.180625 93.702063 
L 89.180625 93.702063 
" style="fill: none; stroke: #d62728; stroke-width: 2; stroke-linecap: square"/>
    </g>
    <g id="text_21">
     <!-- 3 días -->
     <g transform="translate(97.180625 97.202063) scale(0.1 -0.1)">
      <use xlink:href="#DejaVuSans-33"/>
      <use xlink:href="#DejaVuSans-20" transform="translate(63.623047 0)"/>
      <use xlink:href="#DejaVuSans-64" transform="translate(95.410156 0)"/>
      <use xlink:href="#DejaVuSans-ed" transform="translate(158.886719 0)"/>
      <use xlink:href="#DejaVuSans-61" transform="translate(186.669922 0)"/>
      <use xlink:href="#DejaVuSans-73" transform="translate(247.949219 0)"/>
     </g>
    </g>
    <g id="line2d_41">
     <path d="M 69.180625 108.380188 
L 79.180625 108.380188 
L 89.180625 108.380188 
" style="fill: none; stroke: #9467bd; stroke-width: 2; stroke-linecap: square"/>
    </g>
    <g id="text_22">
     <!-- 4 días -->
     <g transform="translate(97.180625 111.880188) scale(0.1 -0.1)">
      <use xlink:href="#DejaVuSans-34"/>
      <use xlink:href="#DejaVuSans-20" transform="translate(63.623047 0)"/>
      <use xlink:href="#DejaVuSans-64" transform="translate(95.410156 0)"/>
      <use xlink:href="#DejaVuSans-ed" transform="translate(158.886719 0)"/>
      <use xlink:href="#DejaVuSans-61" transform="translate(186.669922 0)"/>
      <use xlink:href="#DejaVuSans-73" transform="translate(247.949219 0)"/>
     </g>
    </g>
    <g id="line2d_42">
     <path d="M 69.180625 123.058312 
L 79.180625 123.058312 
L 89.180625 123.058312 
" style="fill: none; stroke: #8c564b; stroke-width: 2; stroke-linecap: square"/>
    </g>
    <g id="text_23">
     <!-- 5 días -->
     <g transform="translate(97.180625 126.558312) scale(0.1 -0.1)">
      <use xlink:href="#DejaVuSans-35"/>
      <use xlink:href="#DejaVuSans-20" transform="translate(63.623047 0)"/>
      <use xlink:href="#DejaVuSans-64" transform="translate(95.410156 0)"/>
      <use xlink:href="#DejaVuSans-ed" transform="translate(158.886719 0)"/>
      <use xlink:href="#DejaVuSans-61" transform="translate(186.669922 0)"/>
      <use xlink:href="#DejaVuSans-73" transform="translate(247.949219 0)"/>
     </g>
    </g>
    <g id="line2d_43">
     <path d="M 69.180625 137.736437 
L 79.180625 137.736437 
L 89.180625 137.736437 
" style="fill: none; stroke: #e377c2; stroke-width: 2; stroke-linecap: square"/>
    </g>
    <g id="text_24">
     <!-- 6 días -->
     <g transform="translate(97.180625 141.236437) scale(0.1 -0.1)">
      <use xlink:href="#DejaVuSans-36"/>
      <use xlink:href="#DejaVuSans-20" transform="translate(63.623047 0)"/>
      <use xlink:href="#DejaVuSans-64" transform="translate(95.410156 0)"/>
      <use xlink:href="#DejaVuSans-ed" transform="translate(158.886719 0)"/>
      <use xlink:href="#DejaVuSans-61" transform="translate(186.669922 0)"/>
      <use xlink:href="#DejaVuSans-73" transform="translate(247.949219 0)"/>
     </g>
    </g>
    <g id="line2d_44">
     <path d="M 69.180625 152.414562 
L 79.180625 152.414562 
L 89.180625 152.414562 
" style="fill: none; stroke: #7f7f7f; stroke-width: 2; stroke-linecap: square"/>
    </g>
    <g id="text_25">
     <!-- 7 días -->
     <g transform="translate(97.180625 155.914562) scale(0.1 -0.1)">
      <use xlink:href="#DejaVuSans-37"/>
      <use xlink:href="#DejaVuSans-20" transform="translate(63.623047 0)"/>
      <use xlink:href="#DejaVuSans-64" transform="translate(95.410156 0)"/>
      <use xlink:href="#DejaVuSans-ed" transform="translate(158.886719 0)"/>
      <use xlink:href="#DejaVuSans-61" transform="translate(186.669922 0)"/>
      <use xlink:href="#DejaVuSans-73" transform="translate(247.949219 0)"/>
     </g>
    </g>
   </g>
  </g>
 </g>
 <defs>
  <clipPath id="p6d21bf318c">
   <rect x="60.180625" y="36.56925" width="420.541" height="348.75775"/>
  </clipPath>
 </defs>
</svg>
